<svg width="15" height="14" viewBox="0 0 15 14" fill="none" xmlns="http://www.w3.org/2000/svg">
<path d="M6.75004 10.25C6.75004 10.4489 6.82905 10.6397 6.96971 10.7803C7.11036 10.921 7.30112 11 7.50004 11C7.69895 11 7.88971 10.921 8.03036 10.7803C8.17102 10.6397 8.25004 10.4489 8.25004 10.25C8.25004 10.0511 8.17102 9.86032 8.03036 9.71967C7.88971 9.57902 7.69895 9.5 7.50004 9.5C7.30112 9.5 7.11036 9.57902 6.96971 9.71967C6.82905 9.86032 6.75004 10.0511 6.75004 10.25ZM7.00004 5.5V8.375C7.00004 8.44375 7.05629 8.5 7.12504 8.5H7.87504C7.94379 8.5 8.00004 8.44375 8.00004 8.375V5.5C8.00004 5.43125 7.94379 5.375 7.87504 5.375H7.12504C7.05629 5.375 7.00004 5.43125 7.00004 5.5ZM14.4328 12.375L7.93285 1.125C7.83597 0.957813 7.66879 0.875 7.50004 0.875C7.33129 0.875 7.16254 0.957813 7.06722 1.125L0.567223 12.375C0.375035 12.7094 0.61566 13.125 1.00004 13.125H14C14.3844 13.125 14.625 12.7094 14.4328 12.375ZM2.19066 11.9391L7.50004 2.74844L12.8094 11.9391H2.19066Z" fill="#A97B28"/>
</svg>
