<svg width="586" height="277" viewBox="0 0 586 277" fill="none" xmlns="http://www.w3.org/2000/svg">
<g clip-path="url(#clip0_80_314)">
<path style="mix-blend-mode:screen" d="M28.1966 62.9668C13.3893 84.8716 4.73486 111.306 4.73486 139.746" stroke="url(#paint0_linear_80_314)" stroke-width="5" stroke-miterlimit="10"/>
<path style="mix-blend-mode:screen" d="M142.057 2.43555C122.742 2.43555 104.374 6.42438 87.6961 13.6133" stroke="url(#paint1_linear_80_314)" stroke-width="5" stroke-miterlimit="10"/>
<path style="mix-blend-mode:screen" d="M269.254 188.547C270.294 185.752 271.232 182.904 272.097 179.987C288.265 125.453 268.966 68.8423 227.641 34.8242" stroke="url(#paint2_linear_80_314)" stroke-width="5" stroke-miterlimit="10"/>
<path style="mix-blend-mode:screen" d="M154.137 276.538C181.859 274.127 207.236 263.468 227.79 247.039" stroke="url(#paint3_linear_80_314)" stroke-width="5" stroke-miterlimit="10"/>
<path style="mix-blend-mode:screen" d="M142.057 264.481C210.952 264.481 266.803 208.635 266.803 139.746C266.803 70.8563 210.952 15.0103 142.057 15.0103C73.1616 15.0103 17.3108 70.8563 17.3108 139.746C17.3108 208.635 73.1616 264.481 142.057 264.481Z" stroke="url(#paint4_linear_80_314)" stroke-width="0.75" stroke-miterlimit="10"/>
<path d="M142.057 253.191C204.716 253.191 255.512 202.4 255.512 139.746C255.512 77.0919 204.716 26.3008 142.057 26.3008C79.3976 26.3008 28.6022 77.0919 28.6022 139.746C28.6022 202.4 79.3976 253.191 142.057 253.191Z" fill="black" fill-opacity="0.3" stroke="url(#paint5_linear_80_314)" stroke-width="2" stroke-miterlimit="10"/>
<path d="M142.065 41.2979C148.765 41.2979 155.447 41.98 162.008 43.3337L147.65 112.93C145.812 112.551 143.941 112.36 142.065 112.36L142.065 41.2979Z" fill="url(#paint6_linear_80_314)"/>
<path d="M161.996 43.3312C175.816 46.1807 188.865 51.9603 200.262 60.2803L158.362 117.676C155.171 115.346 151.517 113.727 147.646 112.929L161.996 43.3312Z" fill="url(#paint7_linear_80_314)"/>
<path d="M200.285 60.297C211.679 68.6203 221.157 79.29 228.078 91.5867L166.152 126.443C164.213 122.999 161.559 120.011 158.368 117.68L200.285 60.297Z" fill="url(#paint8_linear_80_314)"/>
<path d="M228.109 91.6415C238.727 110.534 242.832 132.397 239.79 153.854C236.748 175.312 226.728 195.172 211.277 210.369C195.826 225.566 175.803 235.255 154.298 237.941C132.793 240.627 111.002 236.161 92.2878 225.231C73.5735 214.301 58.9767 197.516 50.7503 177.466C42.5238 157.416 41.125 135.216 46.7698 114.292C52.4146 93.3676 64.7891 74.883 81.9835 61.6908C99.1779 48.4987 120.236 41.3324 141.908 41.298L142.021 112.363C135.953 112.373 130.057 114.38 125.242 118.073C120.428 121.767 116.963 126.943 115.382 132.802C113.802 138.66 114.193 144.876 116.497 150.49C118.8 156.104 122.887 160.804 128.127 163.865C133.367 166.925 139.469 168.176 145.49 167.423C151.512 166.671 157.118 163.958 161.444 159.703C165.771 155.448 168.576 149.887 169.428 143.879C170.28 137.871 169.13 131.75 166.157 126.46L228.109 91.6415Z" fill="url(#paint9_linear_80_314)"/>
<path style="mix-blend-mode:screen" d="M142.057 153.335C149.563 153.335 155.647 147.251 155.647 139.746C155.647 132.241 149.563 126.157 142.057 126.157C134.551 126.157 128.467 132.241 128.467 139.746C128.467 147.251 134.551 153.335 142.057 153.335Z" fill="url(#paint10_linear_80_314)"/>
<path style="mix-blend-mode:screen" d="M142.057 166.992C157.106 166.992 169.305 154.794 169.305 139.746C169.305 124.699 157.106 112.5 142.057 112.5C127.008 112.5 114.809 124.699 114.809 139.746C114.809 154.794 127.008 166.992 142.057 166.992Z" stroke="url(#paint11_linear_80_314)" stroke-width="0.75" stroke-miterlimit="10"/>
</g>
<rect x="344" y="34.3481" width="28" height="28" fill="#E7483D"/>
<path d="M394.733 54.5281L393.329 50.9281H387.497L386.093 54.4921L384.635 53.8981L389.567 41.7481H391.439L396.299 53.8981L394.733 54.5281ZM388.037 49.4881H392.771L390.413 43.4401L388.037 49.4881ZM397.919 54.3481V44.9881H399.539V54.3481H397.919ZM398.729 43.3861C398.417 43.3861 398.147 43.2721 397.919 43.0441C397.703 42.8161 397.595 42.5521 397.595 42.2521C397.595 41.9041 397.697 41.6281 397.901 41.4241C398.105 41.2201 398.381 41.1181 398.729 41.1181C399.041 41.1181 399.305 41.2321 399.521 41.4601C399.749 41.6761 399.863 41.9401 399.863 42.2521C399.863 42.5881 399.761 42.8641 399.557 43.0801C399.353 43.2841 399.077 43.3861 398.729 43.3861ZM402.419 54.3481V44.9881H403.985V47.0221C404.141 46.6261 404.351 46.2601 404.615 45.9241C404.879 45.5761 405.209 45.3001 405.605 45.0961C406.001 44.8801 406.463 44.7721 406.991 44.7721C407.171 44.7721 407.351 44.7841 407.531 44.8081C407.711 44.8201 407.861 44.8441 407.981 44.8801L407.495 46.5541C407.267 46.4581 406.997 46.4101 406.685 46.4101C406.241 46.4101 405.815 46.5361 405.407 46.7881C405.011 47.0401 404.681 47.4301 404.417 47.9581C404.165 48.4861 404.039 49.1581 404.039 49.9741V54.3481H402.419ZM412.609 54.5641C411.841 54.5641 411.139 54.3661 410.503 53.9701C409.867 53.5741 409.363 53.0161 408.991 52.2961C408.619 51.5641 408.433 50.7061 408.433 49.7221C408.433 48.7741 408.619 47.9281 408.991 47.1841C409.375 46.4401 409.879 45.8521 410.503 45.4201C411.139 44.9881 411.835 44.7721 412.591 44.7721C413.215 44.7721 413.749 44.8981 414.193 45.1501C414.649 45.4021 415.003 45.6601 415.255 45.9241V41.0281H416.875V52.0801C416.875 52.5361 416.983 52.8361 417.199 52.9801C417.427 53.1121 417.673 53.1781 417.937 53.1781L417.595 54.4381C416.455 54.4381 415.759 53.9821 415.507 53.0701C415.243 53.4421 414.871 53.7841 414.391 54.0961C413.923 54.4081 413.329 54.5641 412.609 54.5641ZM412.969 53.1241C413.413 53.1241 413.833 53.0221 414.229 52.8181C414.637 52.6021 414.979 52.3261 415.255 51.9901V47.3461C415.027 47.0581 414.709 46.7941 414.301 46.5541C413.893 46.3021 413.443 46.1761 412.951 46.1761C412.375 46.1761 411.871 46.3321 411.439 46.6441C411.007 46.9561 410.671 47.3761 410.431 47.9041C410.203 48.4201 410.089 49.0081 410.089 49.6681C410.089 50.3281 410.215 50.9221 410.467 51.4501C410.719 51.9661 411.061 52.3741 411.493 52.6741C411.937 52.9741 412.429 53.1241 412.969 53.1241ZM420.102 54.3481V44.9881H421.668V47.0221C421.824 46.6261 422.034 46.2601 422.298 45.9241C422.562 45.5761 422.892 45.3001 423.288 45.0961C423.684 44.8801 424.146 44.7721 424.674 44.7721C424.854 44.7721 425.034 44.7841 425.214 44.8081C425.394 44.8201 425.544 44.8441 425.664 44.8801L425.178 46.5541C424.95 46.4581 424.68 46.4101 424.368 46.4101C423.924 46.4101 423.498 46.5361 423.09 46.7881C422.694 47.0401 422.364 47.4301 422.1 47.9581C421.848 48.4861 421.722 49.1581 421.722 49.9741V54.3481H420.102ZM430.689 54.5641C429.801 54.5641 429.003 54.3601 428.295 53.9521C427.587 53.5321 427.029 52.9561 426.621 52.2241C426.225 51.4801 426.027 50.6281 426.027 49.6681C426.027 48.6601 426.231 47.7901 426.639 47.0581C427.047 46.3261 427.605 45.7621 428.313 45.3661C429.021 44.9701 429.813 44.7721 430.689 44.7721C431.565 44.7721 432.351 44.9701 433.047 45.3661C433.755 45.7621 434.313 46.3261 434.721 47.0581C435.141 47.7781 435.351 48.6361 435.351 49.6321C435.351 50.6281 435.147 51.4981 434.739 52.2421C434.331 52.9741 433.773 53.5441 433.065 53.9521C432.369 54.3601 431.577 54.5641 430.689 54.5641ZM430.689 53.1241C431.637 53.1241 432.375 52.8061 432.903 52.1701C433.431 51.5221 433.695 50.6881 433.695 49.6681C433.695 49.0441 433.563 48.4741 433.299 47.9581C433.035 47.4301 432.675 47.0101 432.219 46.6981C431.775 46.3741 431.265 46.2121 430.689 46.2121C429.741 46.2121 429.003 46.5241 428.475 47.1481C427.947 47.7721 427.683 48.6001 427.683 49.6321C427.683 50.2561 427.815 50.8381 428.079 51.3781C428.343 51.9061 428.697 52.3321 429.141 52.6561C429.597 52.9681 430.113 53.1241 430.689 53.1241ZM437.495 58.3081V47.3821C437.495 46.9741 437.393 46.6861 437.189 46.5181C436.997 46.3381 436.745 46.2481 436.433 46.2481L436.775 44.9881C437.879 44.9881 438.569 45.4261 438.845 46.3021C438.965 46.1221 439.157 45.9121 439.421 45.6721C439.697 45.4321 440.033 45.2221 440.429 45.0421C440.837 44.8621 441.299 44.7721 441.815 44.7721C442.535 44.7721 443.207 44.9641 443.831 45.3481C444.467 45.7201 444.977 46.2661 445.361 46.9861C445.745 47.6941 445.937 48.5581 445.937 49.5781C445.937 50.5741 445.745 51.4501 445.361 52.2061C444.977 52.9501 444.473 53.5321 443.849 53.9521C443.237 54.3601 442.571 54.5641 441.851 54.5641C441.299 54.5641 440.783 54.4561 440.303 54.2401C439.823 54.0121 439.427 53.7541 439.115 53.4661V58.3081H437.495ZM441.527 53.1241C442.343 53.1241 443.003 52.8061 443.507 52.1701C444.023 51.5221 444.281 50.6761 444.281 49.6321C444.281 48.9121 444.149 48.2941 443.885 47.7781C443.633 47.2621 443.291 46.8661 442.859 46.5901C442.439 46.3141 441.971 46.1761 441.455 46.1761C440.939 46.1761 440.471 46.3081 440.051 46.5721C439.643 46.8241 439.331 47.1001 439.115 47.4001V52.0081C439.427 52.3321 439.787 52.6021 440.195 52.8181C440.603 53.0221 441.047 53.1241 441.527 53.1241ZM449.452 47.1841C449.128 47.1841 448.846 47.0641 448.606 46.8241C448.366 46.5841 448.246 46.3021 448.246 45.9781C448.246 45.6061 448.354 45.3121 448.57 45.0961C448.786 44.8801 449.08 44.7721 449.452 44.7721C449.764 44.7721 450.04 44.8921 450.28 45.1321C450.532 45.3721 450.658 45.6541 450.658 45.9781C450.658 46.3381 450.544 46.6321 450.316 46.8601C450.088 47.0761 449.8 47.1841 449.452 47.1841ZM449.452 54.5641C449.128 54.5641 448.846 54.4441 448.606 54.2041C448.366 53.9641 448.246 53.6821 448.246 53.3581C448.246 52.9861 448.354 52.6921 448.57 52.4761C448.786 52.2601 449.08 52.1521 449.452 52.1521C449.764 52.1521 450.04 52.2721 450.28 52.5121C450.532 52.7521 450.658 53.0341 450.658 53.3581C450.658 53.7181 450.544 54.0121 450.316 54.2401C450.088 54.4561 449.8 54.5641 449.452 54.5641ZM460.137 54.3481V52.9081H462.711V43.8181L460.299 45.6361L459.417 44.4301L463.143 41.7481H464.331V52.9081H466.473V54.3481H460.137ZM473 55.0681L471.92 54.3841L479.786 41.0281L480.866 41.7121L473 55.0681ZM472.082 49.4881C471.086 49.4881 470.324 49.1401 469.796 48.4441C469.28 47.7481 469.022 46.7761 469.022 45.5281C469.022 44.2801 469.286 43.3201 469.814 42.6481C470.354 41.9641 471.116 41.6221 472.1 41.6221C473.096 41.6221 473.858 41.9641 474.386 42.6481C474.914 43.3201 475.178 44.2801 475.178 45.5281C475.178 46.7641 474.908 47.7361 474.368 48.4441C473.84 49.1401 473.078 49.4881 472.082 49.4881ZM472.1 48.2821C472.604 48.2821 472.994 48.0781 473.27 47.6701C473.546 47.2621 473.684 46.5481 473.684 45.5281C473.684 44.6401 473.546 43.9681 473.27 43.5121C472.994 43.0441 472.598 42.8101 472.082 42.8101C471.602 42.8101 471.218 43.0141 470.93 43.4221C470.654 43.8181 470.516 44.5201 470.516 45.5281C470.516 46.4281 470.654 47.1121 470.93 47.5801C471.206 48.0481 471.596 48.2821 472.1 48.2821ZM480.758 54.4561C479.762 54.4561 479 54.1081 478.472 53.4121C477.956 52.7161 477.698 51.7441 477.698 50.4961C477.698 49.2481 477.962 48.2881 478.49 47.6161C479.03 46.9321 479.792 46.5901 480.776 46.5901C481.772 46.5901 482.534 46.9321 483.062 47.6161C483.59 48.2881 483.854 49.2481 483.854 50.4961C483.854 51.7321 483.584 52.7041 483.044 53.4121C482.516 54.1081 481.754 54.4561 480.758 54.4561ZM480.776 53.2501C481.28 53.2501 481.67 53.0461 481.946 52.6381C482.222 52.2301 482.36 51.5161 482.36 50.4961C482.36 49.6081 482.222 48.9361 481.946 48.4801C481.67 48.0121 481.274 47.7781 480.758 47.7781C480.278 47.7781 479.894 47.9821 479.606 48.3901C479.33 48.7861 479.192 49.4881 479.192 50.4961C479.192 51.3961 479.33 52.0801 479.606 52.5481C479.882 53.0161 480.272 53.2501 480.776 53.2501Z" fill="white"/>
<rect x="344" y="94.3481" width="28" height="28" fill="#8E5BCF"/>
<path d="M389.261 114.492C388.529 114.492 387.833 114.474 387.173 114.438C386.525 114.402 386.009 114.36 385.625 114.312V101.784C386.045 101.736 386.567 101.694 387.191 101.658C387.815 101.622 388.529 101.604 389.333 101.604C390.869 101.604 392.051 101.898 392.879 102.486C393.707 103.062 394.121 103.848 394.121 104.844C394.121 105.504 393.941 106.068 393.581 106.536C393.233 106.992 392.723 107.37 392.051 107.67C392.867 107.958 393.485 108.36 393.905 108.876C394.325 109.38 394.535 110.004 394.535 110.748C394.535 111.888 394.085 112.8 393.185 113.484C392.285 114.156 390.977 114.492 389.261 114.492ZM387.335 107.184H389.315C390.263 107.184 391.013 106.986 391.565 106.59C392.129 106.194 392.411 105.684 392.411 105.06C392.411 104.388 392.135 103.878 391.583 103.53C391.031 103.17 390.275 102.99 389.315 102.99C388.919 102.99 388.559 103.002 388.235 103.026C387.911 103.038 387.611 103.056 387.335 103.08V107.184ZM389.387 113.07C390.455 113.07 391.289 112.878 391.889 112.494C392.489 112.11 392.789 111.552 392.789 110.82C392.789 110.1 392.495 109.536 391.907 109.128C391.319 108.72 390.479 108.516 389.387 108.516H387.335V112.962C387.971 113.034 388.655 113.07 389.387 113.07ZM399.843 114.564C399.303 114.564 398.793 114.45 398.313 114.222C397.833 113.994 397.443 113.628 397.143 113.124C396.843 112.608 396.693 111.924 396.693 111.072V104.988H398.313V110.856C398.313 111.588 398.469 112.152 398.781 112.548C399.093 112.932 399.549 113.124 400.149 113.124C400.641 113.124 401.115 113.028 401.571 112.836C402.039 112.632 402.453 112.362 402.813 112.026V104.988H404.433V111.918C404.433 112.434 404.541 112.776 404.757 112.944C404.985 113.1 405.231 113.178 405.495 113.178L405.153 114.438C404.037 114.438 403.347 113.994 403.083 113.106C402.663 113.538 402.177 113.892 401.625 114.168C401.073 114.432 400.479 114.564 399.843 114.564ZM407.646 114.348V104.988H409.212V107.022C409.368 106.626 409.578 106.26 409.842 105.924C410.106 105.576 410.436 105.3 410.832 105.096C411.228 104.88 411.69 104.772 412.218 104.772C412.398 104.772 412.578 104.784 412.758 104.808C412.938 104.82 413.088 104.844 413.208 104.88L412.722 106.554C412.494 106.458 412.224 106.41 411.912 106.41C411.468 106.41 411.042 106.536 410.634 106.788C410.238 107.04 409.908 107.43 409.644 107.958C409.392 108.486 409.266 109.158 409.266 109.974V114.348H407.646ZM414.836 114.348V104.988H416.402V106.554C416.738 106.05 417.164 105.63 417.68 105.294C418.208 104.946 418.832 104.772 419.552 104.772C420.608 104.772 421.394 105.09 421.91 105.726C422.438 106.362 422.702 107.202 422.702 108.246V114.348H421.082V108.426C421.082 107.754 420.92 107.214 420.596 106.806C420.284 106.398 419.846 106.194 419.282 106.194C418.73 106.194 418.208 106.392 417.716 106.788C417.224 107.172 416.804 107.628 416.456 108.156V114.348H414.836ZM431.064 114.348V101.748H433.458L436.95 109.722L440.388 101.748H442.836V114.348H441.126V103.926L437.76 111.504H436.068L432.684 103.926V114.348H431.064ZM449.64 114.564C448.296 114.564 447.228 114.138 446.436 113.286C445.656 112.422 445.266 111.216 445.266 109.668C445.266 108.732 445.44 107.898 445.788 107.166C446.148 106.422 446.646 105.84 447.282 105.42C447.918 104.988 448.656 104.772 449.496 104.772C450.396 104.772 451.14 104.97 451.728 105.366C452.328 105.75 452.778 106.272 453.078 106.932C453.378 107.592 453.528 108.318 453.528 109.11C453.528 109.53 453.51 109.938 453.474 110.334H446.922C447.03 111.21 447.336 111.894 447.84 112.386C448.344 112.878 449.01 113.124 449.838 113.124C450.378 113.124 450.864 113.07 451.296 112.962C451.728 112.842 452.142 112.692 452.538 112.512L452.916 113.898C452.484 114.09 451.998 114.246 451.458 114.366C450.918 114.498 450.312 114.564 449.64 114.564ZM446.904 109.02H452.034C452.034 108.108 451.806 107.406 451.35 106.914C450.894 106.422 450.264 106.176 449.46 106.176C448.764 106.176 448.188 106.422 447.732 106.914C447.276 107.394 447 108.096 446.904 109.02ZM455.687 114.348V104.988H457.253V106.554C457.589 106.05 458.015 105.63 458.531 105.294C459.047 104.946 459.635 104.772 460.295 104.772C461.039 104.772 461.645 104.952 462.113 105.312C462.593 105.672 462.929 106.152 463.121 106.752C463.493 106.2 463.931 105.732 464.435 105.348C464.951 104.964 465.587 104.772 466.343 104.772C467.363 104.772 468.119 105.096 468.611 105.744C469.115 106.38 469.367 107.214 469.367 108.246V114.348H467.747V108.372C467.747 107.724 467.597 107.202 467.297 106.806C466.997 106.398 466.583 106.194 466.055 106.194C465.515 106.194 465.011 106.398 464.543 106.806C464.087 107.202 463.685 107.67 463.337 108.21V114.348H461.717V108.372C461.717 107.724 461.567 107.202 461.267 106.806C460.967 106.398 460.553 106.194 460.025 106.194C459.497 106.194 458.999 106.392 458.531 106.788C458.063 107.172 457.655 107.628 457.307 108.156V114.348H455.687ZM475.902 114.564C474.558 114.564 473.49 114.138 472.698 113.286C471.918 112.422 471.528 111.216 471.528 109.668C471.528 108.732 471.702 107.898 472.05 107.166C472.41 106.422 472.908 105.84 473.544 105.42C474.18 104.988 474.918 104.772 475.758 104.772C476.658 104.772 477.402 104.97 477.99 105.366C478.59 105.75 479.04 106.272 479.34 106.932C479.64 107.592 479.79 108.318 479.79 109.11C479.79 109.53 479.772 109.938 479.736 110.334H473.184C473.292 111.21 473.598 111.894 474.102 112.386C474.606 112.878 475.272 113.124 476.1 113.124C476.64 113.124 477.126 113.07 477.558 112.962C477.99 112.842 478.404 112.692 478.8 112.512L479.178 113.898C478.746 114.09 478.26 114.246 477.72 114.366C477.18 114.498 476.574 114.564 475.902 114.564ZM473.166 109.02H478.296C478.296 108.108 478.068 107.406 477.612 106.914C477.156 106.422 476.526 106.176 475.722 106.176C475.026 106.176 474.45 106.422 473.994 106.914C473.538 107.394 473.262 108.096 473.166 109.02ZM496.183 114.528L494.779 110.928H488.947L487.543 114.492L486.085 113.898L491.017 101.748H492.889L497.749 113.898L496.183 114.528ZM489.487 109.488H494.221L491.863 103.44L489.487 109.488ZM499.369 114.348V104.988H500.989V114.348H499.369ZM500.179 103.386C499.867 103.386 499.597 103.272 499.369 103.044C499.153 102.816 499.045 102.552 499.045 102.252C499.045 101.904 499.147 101.628 499.351 101.424C499.555 101.22 499.831 101.118 500.179 101.118C500.491 101.118 500.755 101.232 500.971 101.46C501.199 101.676 501.313 101.94 501.313 102.252C501.313 102.588 501.211 102.864 501.007 103.08C500.803 103.284 500.527 103.386 500.179 103.386ZM503.869 114.348V104.988H505.435V107.022C505.591 106.626 505.801 106.26 506.065 105.924C506.329 105.576 506.659 105.3 507.055 105.096C507.451 104.88 507.913 104.772 508.441 104.772C508.621 104.772 508.801 104.784 508.981 104.808C509.161 104.82 509.311 104.844 509.431 104.88L508.945 106.554C508.717 106.458 508.447 106.41 508.135 106.41C507.691 106.41 507.265 106.536 506.857 106.788C506.461 107.04 506.131 107.43 505.867 107.958C505.615 108.486 505.489 109.158 505.489 109.974V114.348H503.869ZM514.059 114.564C513.291 114.564 512.589 114.366 511.953 113.97C511.317 113.574 510.813 113.016 510.441 112.296C510.069 111.564 509.883 110.706 509.883 109.722C509.883 108.774 510.069 107.928 510.441 107.184C510.825 106.44 511.329 105.852 511.953 105.42C512.589 104.988 513.285 104.772 514.041 104.772C514.665 104.772 515.199 104.898 515.643 105.15C516.099 105.402 516.453 105.66 516.705 105.924V101.028H518.325V112.08C518.325 112.536 518.433 112.836 518.649 112.98C518.877 113.112 519.123 113.178 519.387 113.178L519.045 114.438C517.905 114.438 517.209 113.982 516.957 113.07C516.693 113.442 516.321 113.784 515.841 114.096C515.373 114.408 514.779 114.564 514.059 114.564ZM514.419 113.124C514.863 113.124 515.283 113.022 515.679 112.818C516.087 112.602 516.429 112.326 516.705 111.99V107.346C516.477 107.058 516.159 106.794 515.751 106.554C515.343 106.302 514.893 106.176 514.401 106.176C513.825 106.176 513.321 106.332 512.889 106.644C512.457 106.956 512.121 107.376 511.881 107.904C511.653 108.42 511.539 109.008 511.539 109.668C511.539 110.328 511.665 110.922 511.917 111.45C512.169 111.966 512.511 112.374 512.943 112.674C513.387 112.974 513.879 113.124 514.419 113.124ZM521.552 114.348V104.988H523.118V107.022C523.274 106.626 523.484 106.26 523.748 105.924C524.012 105.576 524.342 105.3 524.738 105.096C525.134 104.88 525.596 104.772 526.124 104.772C526.304 104.772 526.484 104.784 526.664 104.808C526.844 104.82 526.994 104.844 527.114 104.88L526.628 106.554C526.4 106.458 526.13 106.41 525.818 106.41C525.374 106.41 524.948 106.536 524.54 106.788C524.144 107.04 523.814 107.43 523.55 107.958C523.298 108.486 523.172 109.158 523.172 109.974V114.348H521.552ZM532.139 114.564C531.251 114.564 530.453 114.36 529.745 113.952C529.037 113.532 528.479 112.956 528.071 112.224C527.675 111.48 527.477 110.628 527.477 109.668C527.477 108.66 527.681 107.79 528.089 107.058C528.497 106.326 529.055 105.762 529.763 105.366C530.471 104.97 531.263 104.772 532.139 104.772C533.015 104.772 533.801 104.97 534.497 105.366C535.205 105.762 535.763 106.326 536.171 107.058C536.591 107.778 536.801 108.636 536.801 109.632C536.801 110.628 536.597 111.498 536.189 112.242C535.781 112.974 535.223 113.544 534.515 113.952C533.819 114.36 533.027 114.564 532.139 114.564ZM532.139 113.124C533.087 113.124 533.825 112.806 534.353 112.17C534.881 111.522 535.145 110.688 535.145 109.668C535.145 109.044 535.013 108.474 534.749 107.958C534.485 107.43 534.125 107.01 533.669 106.698C533.225 106.374 532.715 106.212 532.139 106.212C531.191 106.212 530.453 106.524 529.925 107.148C529.397 107.772 529.133 108.6 529.133 109.632C529.133 110.256 529.265 110.838 529.529 111.378C529.793 111.906 530.147 112.332 530.591 112.656C531.047 112.968 531.563 113.124 532.139 113.124ZM538.945 118.308V107.382C538.945 106.974 538.843 106.686 538.639 106.518C538.447 106.338 538.195 106.248 537.883 106.248L538.225 104.988C539.329 104.988 540.019 105.426 540.295 106.302C540.415 106.122 540.607 105.912 540.871 105.672C541.147 105.432 541.483 105.222 541.879 105.042C542.287 104.862 542.749 104.772 543.265 104.772C543.985 104.772 544.657 104.964 545.281 105.348C545.917 105.72 546.427 106.266 546.811 106.986C547.195 107.694 547.387 108.558 547.387 109.578C547.387 110.574 547.195 111.45 546.811 112.206C546.427 112.95 545.923 113.532 545.299 113.952C544.687 114.36 544.021 114.564 543.301 114.564C542.749 114.564 542.233 114.456 541.753 114.24C541.273 114.012 540.877 113.754 540.565 113.466V118.308H538.945ZM542.977 113.124C543.793 113.124 544.453 112.806 544.957 112.17C545.473 111.522 545.731 110.676 545.731 109.632C545.731 108.912 545.599 108.294 545.335 107.778C545.083 107.262 544.741 106.866 544.309 106.59C543.889 106.314 543.421 106.176 542.905 106.176C542.389 106.176 541.921 106.308 541.501 106.572C541.093 106.824 540.781 107.1 540.565 107.4V112.008C540.877 112.332 541.237 112.602 541.645 112.818C542.053 113.022 542.497 113.124 542.977 113.124ZM550.902 107.184C550.578 107.184 550.296 107.064 550.056 106.824C549.816 106.584 549.696 106.302 549.696 105.978C549.696 105.606 549.804 105.312 550.02 105.096C550.236 104.88 550.53 104.772 550.902 104.772C551.214 104.772 551.49 104.892 551.73 105.132C551.982 105.372 552.108 105.654 552.108 105.978C552.108 106.338 551.994 106.632 551.766 106.86C551.538 107.076 551.25 107.184 550.902 107.184ZM550.902 114.564C550.578 114.564 550.296 114.444 550.056 114.204C549.816 113.964 549.696 113.682 549.696 113.358C549.696 112.986 549.804 112.692 550.02 112.476C550.236 112.26 550.53 112.152 550.902 112.152C551.214 112.152 551.49 112.272 551.73 112.512C551.982 112.752 552.108 113.034 552.108 113.358C552.108 113.718 551.994 114.012 551.766 114.24C551.538 114.456 551.25 114.564 550.902 114.564ZM560.579 114.348C560.543 114.132 560.525 113.91 560.525 113.682C560.525 112.902 560.657 112.206 560.921 111.594C561.197 110.97 561.551 110.406 561.983 109.902C562.415 109.386 562.871 108.912 563.351 108.48C563.843 108.036 564.299 107.616 564.719 107.22C565.151 106.812 565.505 106.404 565.781 105.996C566.057 105.588 566.195 105.162 566.195 104.718C566.195 104.214 566.009 103.8 565.637 103.476C565.265 103.14 564.785 102.972 564.197 102.972C563.693 102.972 563.231 103.074 562.811 103.278C562.403 103.47 562.019 103.734 561.659 104.07L560.759 102.972C561.239 102.54 561.767 102.192 562.343 101.928C562.931 101.664 563.609 101.532 564.377 101.532C565.085 101.532 565.703 101.67 566.231 101.946C566.759 102.21 567.167 102.576 567.455 103.044C567.755 103.512 567.905 104.034 567.905 104.61C567.905 105.186 567.779 105.72 567.527 106.212C567.275 106.704 566.951 107.166 566.555 107.598C566.159 108.03 565.733 108.45 565.277 108.858C564.821 109.254 564.383 109.662 563.963 110.082C563.543 110.502 563.183 110.94 562.883 111.396C562.595 111.852 562.415 112.344 562.343 112.872H567.887V114.348H560.579ZM574.45 115.068L573.37 114.384L581.236 101.028L582.316 101.712L574.45 115.068ZM573.532 109.488C572.536 109.488 571.774 109.14 571.246 108.444C570.73 107.748 570.472 106.776 570.472 105.528C570.472 104.28 570.736 103.32 571.264 102.648C571.804 101.964 572.566 101.622 573.55 101.622C574.546 101.622 575.308 101.964 575.836 102.648C576.364 103.32 576.628 104.28 576.628 105.528C576.628 106.764 576.358 107.736 575.818 108.444C575.29 109.14 574.528 109.488 573.532 109.488ZM573.55 108.282C574.054 108.282 574.444 108.078 574.72 107.67C574.996 107.262 575.134 106.548 575.134 105.528C575.134 104.64 574.996 103.968 574.72 103.512C574.444 103.044 574.048 102.81 573.532 102.81C573.052 102.81 572.668 103.014 572.38 103.422C572.104 103.818 571.966 104.52 571.966 105.528C571.966 106.428 572.104 107.112 572.38 107.58C572.656 108.048 573.046 108.282 573.55 108.282ZM582.208 114.456C581.212 114.456 580.45 114.108 579.922 113.412C579.406 112.716 579.148 111.744 579.148 110.496C579.148 109.248 579.412 108.288 579.94 107.616C580.48 106.932 581.242 106.59 582.226 106.59C583.222 106.59 583.984 106.932 584.512 107.616C585.04 108.288 585.304 109.248 585.304 110.496C585.304 111.732 585.034 112.704 584.494 113.412C583.966 114.108 583.204 114.456 582.208 114.456ZM582.226 113.25C582.73 113.25 583.12 113.046 583.396 112.638C583.672 112.23 583.81 111.516 583.81 110.496C583.81 109.608 583.672 108.936 583.396 108.48C583.12 108.012 582.724 107.778 582.208 107.778C581.728 107.778 581.344 107.982 581.056 108.39C580.78 108.786 580.642 109.488 580.642 110.496C580.642 111.396 580.78 112.08 581.056 112.548C581.332 113.016 581.722 113.25 582.226 113.25Z" fill="white"/>
<rect x="344" y="154.348" width="28" height="28" fill="#EDC34C"/>
<path d="M385.708 174.348V161.748H393.268V163.224H387.418V167.058H392.458V168.498H387.418V172.872H393.268V174.348H385.708ZM398.941 174.564C398.053 174.564 397.273 174.36 396.601 173.952C395.941 173.532 395.431 172.956 395.071 172.224C394.711 171.48 394.531 170.628 394.531 169.668C394.531 168.768 394.711 167.946 395.071 167.202C395.443 166.458 395.971 165.87 396.655 165.438C397.339 164.994 398.143 164.772 399.067 164.772C399.595 164.772 400.057 164.82 400.453 164.916C400.861 165.012 401.251 165.15 401.623 165.33L401.137 166.698C400.801 166.53 400.477 166.41 400.165 166.338C399.865 166.254 399.529 166.212 399.157 166.212C398.317 166.212 397.609 166.518 397.033 167.13C396.469 167.73 396.187 168.564 396.187 169.632C396.187 170.28 396.307 170.868 396.547 171.396C396.787 171.924 397.117 172.344 397.537 172.656C397.969 172.968 398.473 173.124 399.049 173.124C399.505 173.124 399.895 173.076 400.219 172.98C400.543 172.872 400.891 172.722 401.263 172.53L401.767 173.898C401.395 174.102 400.975 174.264 400.507 174.384C400.051 174.504 399.529 174.564 398.941 174.564ZM407.417 174.564C406.529 174.564 405.731 174.36 405.023 173.952C404.315 173.532 403.757 172.956 403.349 172.224C402.953 171.48 402.755 170.628 402.755 169.668C402.755 168.66 402.959 167.79 403.367 167.058C403.775 166.326 404.333 165.762 405.041 165.366C405.749 164.97 406.541 164.772 407.417 164.772C408.293 164.772 409.079 164.97 409.775 165.366C410.483 165.762 411.041 166.326 411.449 167.058C411.869 167.778 412.079 168.636 412.079 169.632C412.079 170.628 411.875 171.498 411.467 172.242C411.059 172.974 410.501 173.544 409.793 173.952C409.097 174.36 408.305 174.564 407.417 174.564ZM407.417 173.124C408.365 173.124 409.103 172.806 409.631 172.17C410.159 171.522 410.423 170.688 410.423 169.668C410.423 169.044 410.291 168.474 410.027 167.958C409.763 167.43 409.403 167.01 408.947 166.698C408.503 166.374 407.993 166.212 407.417 166.212C406.469 166.212 405.731 166.524 405.203 167.148C404.675 167.772 404.411 168.6 404.411 169.632C404.411 170.256 404.543 170.838 404.807 171.378C405.071 171.906 405.425 172.332 405.869 172.656C406.325 172.968 406.841 173.124 407.417 173.124ZM416.753 174.564C416.045 174.564 415.403 174.474 414.827 174.294C414.263 174.114 413.795 173.88 413.423 173.592L414.107 172.242C414.419 172.506 414.809 172.728 415.277 172.908C415.757 173.076 416.267 173.16 416.807 173.16C417.479 173.16 417.983 173.052 418.319 172.836C418.667 172.608 418.841 172.32 418.841 171.972C418.841 171.72 418.775 171.498 418.643 171.306C418.523 171.114 418.295 170.928 417.959 170.748C417.623 170.556 417.137 170.352 416.501 170.136C415.625 169.836 414.965 169.482 414.521 169.074C414.089 168.654 413.873 168.078 413.873 167.346C413.873 166.626 414.185 166.02 414.809 165.528C415.445 165.024 416.321 164.772 417.437 164.772C418.037 164.772 418.571 164.838 419.039 164.97C419.507 165.09 419.927 165.246 420.299 165.438L419.849 166.77C419.525 166.578 419.153 166.422 418.733 166.302C418.325 166.182 417.869 166.122 417.365 166.122C416.741 166.122 416.267 166.248 415.943 166.5C415.619 166.752 415.457 167.028 415.457 167.328C415.457 167.616 415.583 167.862 415.835 168.066C416.087 168.27 416.579 168.492 417.311 168.732C418.499 169.128 419.327 169.566 419.795 170.046C420.263 170.526 420.497 171.126 420.497 171.846C420.497 172.686 420.155 173.352 419.471 173.844C418.799 174.324 417.893 174.564 416.753 174.564ZM422.887 178.524C422.527 178.524 422.209 178.488 421.933 178.416C421.669 178.344 421.459 178.26 421.303 178.164L421.663 176.814C421.807 176.898 421.987 176.97 422.203 177.03C422.419 177.09 422.659 177.12 422.923 177.12C423.427 177.12 423.877 176.958 424.273 176.634C424.669 176.31 425.047 175.674 425.407 174.726L425.821 173.646H424.957L421.303 165.42L422.743 164.772L426.235 172.566L428.953 164.844L430.447 165.42L427.009 174.816C426.661 175.776 426.283 176.526 425.875 177.066C425.467 177.606 425.017 177.984 424.525 178.2C424.033 178.416 423.487 178.524 422.887 178.524ZM434.595 174.564C433.887 174.564 433.245 174.474 432.669 174.294C432.105 174.114 431.637 173.88 431.265 173.592L431.949 172.242C432.261 172.506 432.651 172.728 433.119 172.908C433.599 173.076 434.109 173.16 434.649 173.16C435.321 173.16 435.825 173.052 436.161 172.836C436.509 172.608 436.683 172.32 436.683 171.972C436.683 171.72 436.617 171.498 436.485 171.306C436.365 171.114 436.137 170.928 435.801 170.748C435.465 170.556 434.979 170.352 434.343 170.136C433.467 169.836 432.807 169.482 432.363 169.074C431.931 168.654 431.715 168.078 431.715 167.346C431.715 166.626 432.027 166.02 432.651 165.528C433.287 165.024 434.163 164.772 435.279 164.772C435.879 164.772 436.413 164.838 436.881 164.97C437.349 165.09 437.769 165.246 438.141 165.438L437.691 166.77C437.367 166.578 436.995 166.422 436.575 166.302C436.167 166.182 435.711 166.122 435.207 166.122C434.583 166.122 434.109 166.248 433.785 166.5C433.461 166.752 433.299 167.028 433.299 167.328C433.299 167.616 433.425 167.862 433.677 168.066C433.929 168.27 434.421 168.492 435.153 168.732C436.341 169.128 437.169 169.566 437.637 170.046C438.105 170.526 438.339 171.126 438.339 171.846C438.339 172.686 437.997 173.352 437.313 173.844C436.641 174.324 435.735 174.564 434.595 174.564ZM443.771 174.564C442.871 174.564 442.157 174.27 441.629 173.682C441.113 173.082 440.855 172.23 440.855 171.126V166.734H439.235V165.33H440.891L441.233 162.378H442.475V165.33H445.067V166.734H442.475V171.252C442.475 171.948 442.619 172.434 442.907 172.71C443.207 172.986 443.561 173.124 443.969 173.124C444.269 173.124 444.551 173.076 444.815 172.98C445.091 172.884 445.343 172.77 445.571 172.638L446.021 173.934C445.781 174.078 445.457 174.216 445.049 174.348C444.641 174.492 444.215 174.564 443.771 174.564ZM451.042 174.564C449.698 174.564 448.63 174.138 447.838 173.286C447.058 172.422 446.668 171.216 446.668 169.668C446.668 168.732 446.842 167.898 447.19 167.166C447.55 166.422 448.048 165.84 448.684 165.42C449.32 164.988 450.058 164.772 450.898 164.772C451.798 164.772 452.542 164.97 453.13 165.366C453.73 165.75 454.18 166.272 454.48 166.932C454.78 167.592 454.93 168.318 454.93 169.11C454.93 169.53 454.912 169.938 454.876 170.334H448.324C448.432 171.21 448.738 171.894 449.242 172.386C449.746 172.878 450.412 173.124 451.24 173.124C451.78 173.124 452.266 173.07 452.698 172.962C453.13 172.842 453.544 172.692 453.94 172.512L454.318 173.898C453.886 174.09 453.4 174.246 452.86 174.366C452.32 174.498 451.714 174.564 451.042 174.564ZM448.306 169.02H453.436C453.436 168.108 453.208 167.406 452.752 166.914C452.296 166.422 451.666 166.176 450.862 166.176C450.166 166.176 449.59 166.422 449.134 166.914C448.678 167.394 448.402 168.096 448.306 169.02ZM457.089 174.348V164.988H458.655V166.554C458.991 166.05 459.417 165.63 459.933 165.294C460.449 164.946 461.037 164.772 461.697 164.772C462.441 164.772 463.047 164.952 463.515 165.312C463.995 165.672 464.331 166.152 464.523 166.752C464.895 166.2 465.333 165.732 465.837 165.348C466.353 164.964 466.989 164.772 467.745 164.772C468.765 164.772 469.521 165.096 470.013 165.744C470.517 166.38 470.769 167.214 470.769 168.246V174.348H469.149V168.372C469.149 167.724 468.999 167.202 468.699 166.806C468.399 166.398 467.985 166.194 467.457 166.194C466.917 166.194 466.413 166.398 465.945 166.806C465.489 167.202 465.087 167.67 464.739 168.21V174.348H463.119V168.372C463.119 167.724 462.969 167.202 462.669 166.806C462.369 166.398 461.955 166.194 461.427 166.194C460.899 166.194 460.401 166.392 459.933 166.788C459.465 167.172 459.057 167.628 458.709 168.156V174.348H457.089ZM474.819 167.184C474.495 167.184 474.213 167.064 473.973 166.824C473.733 166.584 473.613 166.302 473.613 165.978C473.613 165.606 473.721 165.312 473.937 165.096C474.153 164.88 474.447 164.772 474.819 164.772C475.131 164.772 475.407 164.892 475.647 165.132C475.899 165.372 476.025 165.654 476.025 165.978C476.025 166.338 475.911 166.632 475.683 166.86C475.455 167.076 475.167 167.184 474.819 167.184ZM474.819 174.564C474.495 174.564 474.213 174.444 473.973 174.204C473.733 173.964 473.613 173.682 473.613 173.358C473.613 172.986 473.721 172.692 473.937 172.476C474.153 172.26 474.447 172.152 474.819 172.152C475.131 172.152 475.407 172.272 475.647 172.512C475.899 172.752 476.025 173.034 476.025 173.358C476.025 173.718 475.911 174.012 475.683 174.24C475.455 174.456 475.167 174.564 474.819 174.564ZM484.496 174.348C484.46 174.132 484.442 173.91 484.442 173.682C484.442 172.902 484.574 172.206 484.838 171.594C485.114 170.97 485.468 170.406 485.9 169.902C486.332 169.386 486.788 168.912 487.268 168.48C487.76 168.036 488.216 167.616 488.636 167.22C489.068 166.812 489.422 166.404 489.698 165.996C489.974 165.588 490.112 165.162 490.112 164.718C490.112 164.214 489.926 163.8 489.554 163.476C489.182 163.14 488.702 162.972 488.114 162.972C487.61 162.972 487.148 163.074 486.728 163.278C486.32 163.47 485.936 163.734 485.576 164.07L484.676 162.972C485.156 162.54 485.684 162.192 486.26 161.928C486.848 161.664 487.526 161.532 488.294 161.532C489.002 161.532 489.62 161.67 490.148 161.946C490.676 162.21 491.084 162.576 491.372 163.044C491.672 163.512 491.822 164.034 491.822 164.61C491.822 165.186 491.696 165.72 491.444 166.212C491.192 166.704 490.868 167.166 490.472 167.598C490.076 168.03 489.65 168.45 489.194 168.858C488.738 169.254 488.3 169.662 487.88 170.082C487.46 170.502 487.1 170.94 486.8 171.396C486.512 171.852 486.332 172.344 486.26 172.872H491.804V174.348H484.496ZM498.367 175.068L497.287 174.384L505.153 161.028L506.233 161.712L498.367 175.068ZM497.449 169.488C496.453 169.488 495.691 169.14 495.163 168.444C494.647 167.748 494.389 166.776 494.389 165.528C494.389 164.28 494.653 163.32 495.181 162.648C495.721 161.964 496.483 161.622 497.467 161.622C498.463 161.622 499.225 161.964 499.753 162.648C500.281 163.32 500.545 164.28 500.545 165.528C500.545 166.764 500.275 167.736 499.735 168.444C499.207 169.14 498.445 169.488 497.449 169.488ZM497.467 168.282C497.971 168.282 498.361 168.078 498.637 167.67C498.913 167.262 499.051 166.548 499.051 165.528C499.051 164.64 498.913 163.968 498.637 163.512C498.361 163.044 497.965 162.81 497.449 162.81C496.969 162.81 496.585 163.014 496.297 163.422C496.021 163.818 495.883 164.52 495.883 165.528C495.883 166.428 496.021 167.112 496.297 167.58C496.573 168.048 496.963 168.282 497.467 168.282ZM506.125 174.456C505.129 174.456 504.367 174.108 503.839 173.412C503.323 172.716 503.065 171.744 503.065 170.496C503.065 169.248 503.329 168.288 503.857 167.616C504.397 166.932 505.159 166.59 506.143 166.59C507.139 166.59 507.901 166.932 508.429 167.616C508.957 168.288 509.221 169.248 509.221 170.496C509.221 171.732 508.951 172.704 508.411 173.412C507.883 174.108 507.121 174.456 506.125 174.456ZM506.143 173.25C506.647 173.25 507.037 173.046 507.313 172.638C507.589 172.23 507.727 171.516 507.727 170.496C507.727 169.608 507.589 168.936 507.313 168.48C507.037 168.012 506.641 167.778 506.125 167.778C505.645 167.778 505.261 167.982 504.973 168.39C504.697 168.786 504.559 169.488 504.559 170.496C504.559 171.396 504.697 172.08 504.973 172.548C505.249 173.016 505.639 173.25 506.143 173.25Z" fill="white"/>
<rect x="344" y="214.348" width="28" height="28" fill="#3BD3DA"/>
<path d="M385.82 234.348V221.748H387.53V232.818H393.308V234.348H385.82ZM394.834 234.348V224.988H396.454V234.348H394.834ZM395.644 223.386C395.332 223.386 395.062 223.272 394.834 223.044C394.618 222.816 394.51 222.552 394.51 222.252C394.51 221.904 394.612 221.628 394.816 221.424C395.02 221.22 395.296 221.118 395.644 221.118C395.956 221.118 396.22 221.232 396.436 221.46C396.664 221.676 396.778 221.94 396.778 222.252C396.778 222.588 396.676 222.864 396.472 223.08C396.268 223.284 395.992 223.386 395.644 223.386ZM405.526 238.308V233.394C405.274 233.658 404.92 233.922 404.464 234.186C404.02 234.438 403.498 234.564 402.898 234.564C402.178 234.564 401.494 234.378 400.846 234.006C400.21 233.634 399.694 233.088 399.298 232.368C398.902 231.636 398.704 230.748 398.704 229.704C398.704 228.72 398.902 227.862 399.298 227.13C399.694 226.386 400.222 225.81 400.882 225.402C401.542 224.982 402.268 224.772 403.06 224.772C403.6 224.772 404.086 224.868 404.518 225.06C404.962 225.24 405.346 225.468 405.67 225.744V224.988H407.146V238.308H405.526ZM403.258 233.124C403.738 233.124 404.176 233.01 404.572 232.782C404.968 232.554 405.286 232.29 405.526 231.99V226.932C405.202 226.704 404.842 226.524 404.446 226.392C404.062 226.248 403.654 226.176 403.222 226.176C402.706 226.176 402.232 226.314 401.8 226.59C401.368 226.866 401.02 227.262 400.756 227.778C400.492 228.294 400.36 228.918 400.36 229.65C400.36 230.37 400.492 230.994 400.756 231.522C401.032 232.038 401.392 232.434 401.836 232.71C402.28 232.986 402.754 233.124 403.258 233.124ZM413.081 234.564C412.541 234.564 412.031 234.45 411.551 234.222C411.071 233.994 410.681 233.628 410.381 233.124C410.081 232.608 409.931 231.924 409.931 231.072V224.988H411.551V230.856C411.551 231.588 411.707 232.152 412.019 232.548C412.331 232.932 412.787 233.124 413.387 233.124C413.879 233.124 414.353 233.028 414.809 232.836C415.277 232.632 415.691 232.362 416.051 232.026V224.988H417.671V231.918C417.671 232.434 417.779 232.776 417.995 232.944C418.223 233.1 418.469 233.178 418.733 233.178L418.391 234.438C417.275 234.438 416.585 233.994 416.321 233.106C415.901 233.538 415.415 233.892 414.863 234.168C414.311 234.432 413.717 234.564 413.081 234.564ZM420.884 234.348V224.988H422.504V234.348H420.884ZM421.694 223.386C421.382 223.386 421.112 223.272 420.884 223.044C420.668 222.816 420.56 222.552 420.56 222.252C420.56 221.904 420.662 221.628 420.866 221.424C421.07 221.22 421.346 221.118 421.694 221.118C422.006 221.118 422.27 221.232 422.486 221.46C422.714 221.676 422.828 221.94 422.828 222.252C422.828 222.588 422.726 222.864 422.522 223.08C422.318 223.284 422.042 223.386 421.694 223.386ZM428.93 234.564C428.162 234.564 427.46 234.366 426.824 233.97C426.188 233.574 425.684 233.016 425.312 232.296C424.94 231.564 424.754 230.706 424.754 229.722C424.754 228.774 424.94 227.928 425.312 227.184C425.696 226.44 426.2 225.852 426.824 225.42C427.46 224.988 428.156 224.772 428.912 224.772C429.536 224.772 430.07 224.898 430.514 225.15C430.97 225.402 431.324 225.66 431.576 225.924V221.028H433.196V232.08C433.196 232.536 433.304 232.836 433.52 232.98C433.748 233.112 433.994 233.178 434.258 233.178L433.916 234.438C432.776 234.438 432.08 233.982 431.828 233.07C431.564 233.442 431.192 233.784 430.712 234.096C430.244 234.408 429.65 234.564 428.93 234.564ZM429.29 233.124C429.734 233.124 430.154 233.022 430.55 232.818C430.958 232.602 431.3 232.326 431.576 231.99V227.346C431.348 227.058 431.03 226.794 430.622 226.554C430.214 226.302 429.764 226.176 429.272 226.176C428.696 226.176 428.192 226.332 427.76 226.644C427.328 226.956 426.992 227.376 426.752 227.904C426.524 228.42 426.41 229.008 426.41 229.668C426.41 230.328 426.536 230.922 426.788 231.45C427.04 231.966 427.382 232.374 427.814 232.674C428.258 232.974 428.75 233.124 429.29 233.124ZM436.424 234.348V224.988H438.044V234.348H436.424ZM437.234 223.386C436.922 223.386 436.652 223.272 436.424 223.044C436.208 222.816 436.1 222.552 436.1 222.252C436.1 221.904 436.202 221.628 436.406 221.424C436.61 221.22 436.886 221.118 437.234 221.118C437.546 221.118 437.81 221.232 438.026 221.46C438.254 221.676 438.368 221.94 438.368 222.252C438.368 222.588 438.266 222.864 438.062 223.08C437.858 223.284 437.582 223.386 437.234 223.386ZM444.2 234.564C443.3 234.564 442.586 234.27 442.058 233.682C441.542 233.082 441.284 232.23 441.284 231.126V226.734H439.664V225.33H441.32L441.662 222.378H442.904V225.33H445.496V226.734H442.904V231.252C442.904 231.948 443.048 232.434 443.336 232.71C443.636 232.986 443.99 233.124 444.398 233.124C444.698 233.124 444.98 233.076 445.244 232.98C445.52 232.884 445.772 232.77 446 232.638L446.45 233.934C446.21 234.078 445.886 234.216 445.478 234.348C445.07 234.492 444.644 234.564 444.2 234.564ZM448.136 238.524C447.776 238.524 447.458 238.488 447.182 238.416C446.918 238.344 446.708 238.26 446.552 238.164L446.912 236.814C447.056 236.898 447.236 236.97 447.452 237.03C447.668 237.09 447.908 237.12 448.172 237.12C448.676 237.12 449.126 236.958 449.522 236.634C449.918 236.31 450.296 235.674 450.656 234.726L451.07 233.646H450.206L446.552 225.42L447.992 224.772L451.484 232.566L454.202 224.844L455.696 225.42L452.258 234.816C451.91 235.776 451.532 236.526 451.124 237.066C450.716 237.606 450.266 237.984 449.774 238.2C449.282 238.416 448.736 238.524 448.136 238.524ZM462.9 234.348V221.784C463.392 221.724 463.932 221.682 464.52 221.658C465.12 221.622 465.738 221.604 466.374 221.604C467.418 221.604 468.306 221.772 469.038 222.108C469.77 222.432 470.328 222.882 470.712 223.458C471.096 224.034 471.288 224.694 471.288 225.438C471.288 226.338 471.066 227.1 470.622 227.724C470.178 228.348 469.56 228.828 468.768 229.164C467.976 229.488 467.058 229.65 466.014 229.65C465.51 229.65 465.042 229.632 464.61 229.596V234.348H462.9ZM466.23 228.228C467.298 228.228 468.126 227.988 468.714 227.508C469.302 227.028 469.596 226.386 469.596 225.582C469.596 224.802 469.314 224.184 468.75 223.728C468.186 223.272 467.382 223.044 466.338 223.044C466.014 223.044 465.708 223.05 465.42 223.062C465.132 223.074 464.862 223.092 464.61 223.116V228.138C464.802 228.162 465.036 228.186 465.312 228.21C465.588 228.222 465.894 228.228 466.23 228.228ZM476.858 234.564C475.97 234.564 475.172 234.36 474.464 233.952C473.756 233.532 473.198 232.956 472.79 232.224C472.394 231.48 472.196 230.628 472.196 229.668C472.196 228.66 472.4 227.79 472.808 227.058C473.216 226.326 473.774 225.762 474.482 225.366C475.19 224.97 475.982 224.772 476.858 224.772C477.734 224.772 478.52 224.97 479.216 225.366C479.924 225.762 480.482 226.326 480.89 227.058C481.31 227.778 481.52 228.636 481.52 229.632C481.52 230.628 481.316 231.498 480.908 232.242C480.5 232.974 479.942 233.544 479.234 233.952C478.538 234.36 477.746 234.564 476.858 234.564ZM476.858 233.124C477.806 233.124 478.544 232.806 479.072 232.17C479.6 231.522 479.864 230.688 479.864 229.668C479.864 229.044 479.732 228.474 479.468 227.958C479.204 227.43 478.844 227.01 478.388 226.698C477.944 226.374 477.434 226.212 476.858 226.212C475.91 226.212 475.172 226.524 474.644 227.148C474.116 227.772 473.852 228.6 473.852 229.632C473.852 230.256 473.984 230.838 474.248 231.378C474.512 231.906 474.866 232.332 475.31 232.656C475.766 232.968 476.282 233.124 476.858 233.124ZM487.616 234.564C486.728 234.564 485.93 234.36 485.222 233.952C484.514 233.532 483.956 232.956 483.548 232.224C483.152 231.48 482.954 230.628 482.954 229.668C482.954 228.66 483.158 227.79 483.566 227.058C483.974 226.326 484.532 225.762 485.24 225.366C485.948 224.97 486.74 224.772 487.616 224.772C488.492 224.772 489.278 224.97 489.974 225.366C490.682 225.762 491.24 226.326 491.648 227.058C492.068 227.778 492.278 228.636 492.278 229.632C492.278 230.628 492.074 231.498 491.666 232.242C491.258 232.974 490.7 233.544 489.992 233.952C489.296 234.36 488.504 234.564 487.616 234.564ZM487.616 233.124C488.564 233.124 489.302 232.806 489.83 232.17C490.358 231.522 490.622 230.688 490.622 229.668C490.622 229.044 490.49 228.474 490.226 227.958C489.962 227.43 489.602 227.01 489.146 226.698C488.702 226.374 488.192 226.212 487.616 226.212C486.668 226.212 485.93 226.524 485.402 227.148C484.874 227.772 484.61 228.6 484.61 229.632C484.61 230.256 484.742 230.838 485.006 231.378C485.27 231.906 485.624 232.332 486.068 232.656C486.524 232.968 487.04 233.124 487.616 233.124ZM497.275 234.564C496.723 234.564 496.225 234.462 495.781 234.258C495.337 234.042 494.983 233.7 494.719 233.232C494.467 232.764 494.341 232.158 494.341 231.414V221.028H495.961V231.252C495.961 231.9 496.093 232.38 496.357 232.692C496.633 233.004 497.011 233.16 497.491 233.16C497.719 233.16 497.941 233.136 498.157 233.088C498.385 233.028 498.577 232.962 498.733 232.89L499.129 234.204C498.913 234.3 498.643 234.384 498.319 234.456C498.007 234.528 497.659 234.564 497.275 234.564ZM501.914 227.184C501.59 227.184 501.308 227.064 501.068 226.824C500.828 226.584 500.708 226.302 500.708 225.978C500.708 225.606 500.816 225.312 501.032 225.096C501.248 224.88 501.542 224.772 501.914 224.772C502.226 224.772 502.502 224.892 502.742 225.132C502.994 225.372 503.12 225.654 503.12 225.978C503.12 226.338 503.006 226.632 502.778 226.86C502.55 227.076 502.262 227.184 501.914 227.184ZM501.914 234.564C501.59 234.564 501.308 234.444 501.068 234.204C500.828 233.964 500.708 233.682 500.708 233.358C500.708 232.986 500.816 232.692 501.032 232.476C501.248 232.26 501.542 232.152 501.914 232.152C502.226 232.152 502.502 232.272 502.742 232.512C502.994 232.752 503.12 233.034 503.12 233.358C503.12 233.718 503.006 234.012 502.778 234.24C502.55 234.456 502.262 234.564 501.914 234.564ZM514.759 234.564C514.063 234.564 513.439 234.444 512.887 234.204C512.335 233.952 511.831 233.604 511.375 233.16L512.437 231.954C513.157 232.71 513.961 233.088 514.849 233.088C515.341 233.088 515.797 232.926 516.217 232.602C516.637 232.266 516.973 231.744 517.225 231.036C517.489 230.328 517.621 229.416 517.621 228.3C517.249 228.636 516.835 228.918 516.379 229.146C515.923 229.374 515.431 229.488 514.903 229.488C514.267 229.488 513.661 229.344 513.085 229.056C512.521 228.756 512.059 228.324 511.699 227.76C511.351 227.184 511.177 226.476 511.177 225.636C511.177 224.88 511.345 224.19 511.681 223.566C512.029 222.942 512.509 222.45 513.121 222.09C513.733 221.718 514.441 221.532 515.245 221.532C515.869 221.532 516.403 221.628 516.847 221.82C517.291 222.012 517.663 222.264 517.963 222.576C518.251 222.876 518.491 223.23 518.683 223.638C518.887 224.034 519.037 224.562 519.133 225.222C519.229 225.87 519.277 226.716 519.277 227.76C519.277 229.356 519.079 230.658 518.683 231.666C518.287 232.662 517.747 233.394 517.063 233.862C516.391 234.33 515.623 234.564 514.759 234.564ZM515.173 228.156C515.629 228.156 516.067 228.042 516.487 227.814C516.919 227.586 517.297 227.31 517.621 226.986V226.446C517.621 225.306 517.399 224.442 516.955 223.854C516.523 223.266 515.935 222.972 515.191 222.972C514.507 222.972 513.925 223.212 513.445 223.692C512.977 224.16 512.743 224.784 512.743 225.564C512.743 226.104 512.857 226.572 513.085 226.968C513.313 227.352 513.607 227.646 513.967 227.85C514.339 228.054 514.741 228.156 515.173 228.156ZM525.66 234.564C524.928 234.564 524.298 234.486 523.77 234.33C523.242 234.162 522.762 233.928 522.33 233.628L523.176 232.242C523.512 232.482 523.884 232.686 524.292 232.854C524.7 233.01 525.162 233.088 525.678 233.088C526.482 233.088 527.13 232.86 527.622 232.404C528.114 231.936 528.36 231.342 528.36 230.622C528.36 229.878 528.102 229.272 527.586 228.804C527.082 228.324 526.356 228.084 525.408 228.084H523.176V221.748H529.404V223.206H524.706V226.626H525.606C526.542 226.626 527.34 226.788 528 227.112C528.672 227.436 529.182 227.886 529.53 228.462C529.89 229.038 530.07 229.698 530.07 230.442C530.07 231.246 529.884 231.96 529.512 232.584C529.152 233.196 528.642 233.682 527.982 234.042C527.322 234.39 526.548 234.564 525.66 234.564ZM536.255 235.068L535.175 234.384L543.041 221.028L544.121 221.712L536.255 235.068ZM535.337 229.488C534.341 229.488 533.579 229.14 533.051 228.444C532.535 227.748 532.277 226.776 532.277 225.528C532.277 224.28 532.541 223.32 533.069 222.648C533.609 221.964 534.371 221.622 535.355 221.622C536.351 221.622 537.113 221.964 537.641 222.648C538.169 223.32 538.433 224.28 538.433 225.528C538.433 226.764 538.163 227.736 537.623 228.444C537.095 229.14 536.333 229.488 535.337 229.488ZM535.355 228.282C535.859 228.282 536.249 228.078 536.525 227.67C536.801 227.262 536.939 226.548 536.939 225.528C536.939 224.64 536.801 223.968 536.525 223.512C536.249 223.044 535.853 222.81 535.337 222.81C534.857 222.81 534.473 223.014 534.185 223.422C533.909 223.818 533.771 224.52 533.771 225.528C533.771 226.428 533.909 227.112 534.185 227.58C534.461 228.048 534.851 228.282 535.355 228.282ZM544.013 234.456C543.017 234.456 542.255 234.108 541.727 233.412C541.211 232.716 540.953 231.744 540.953 230.496C540.953 229.248 541.217 228.288 541.745 227.616C542.285 226.932 543.047 226.59 544.031 226.59C545.027 226.59 545.789 226.932 546.317 227.616C546.845 228.288 547.109 229.248 547.109 230.496C547.109 231.732 546.839 232.704 546.299 233.412C545.771 234.108 545.009 234.456 544.013 234.456ZM544.031 233.25C544.535 233.25 544.925 233.046 545.201 232.638C545.477 232.23 545.615 231.516 545.615 230.496C545.615 229.608 545.477 228.936 545.201 228.48C544.925 228.012 544.529 227.778 544.013 227.778C543.533 227.778 543.149 227.982 542.861 228.39C542.585 228.786 542.447 229.488 542.447 230.496C542.447 231.396 542.585 232.08 542.861 232.548C543.137 233.016 543.527 233.25 544.031 233.25Z" fill="white"/>
<defs>
<linearGradient id="paint0_linear_80_314" x1="15.9812" y1="59.8118" x2="15.9812" y2="139.746" gradientUnits="userSpaceOnUse">
<stop stop-color="#011337"/>
<stop offset="0.1" stop-color="#012042"/>
<stop offset="0.3" stop-color="#034561"/>
<stop offset="0.57" stop-color="#058092"/>
<stop offset="0.9" stop-color="#08D0D6"/>
<stop offset="1" stop-color="#0AEBED"/>
</linearGradient>
<linearGradient id="paint1_linear_80_314" x1="113.772" y1="-3.22094" x2="113.772" y2="18.774" gradientUnits="userSpaceOnUse">
<stop stop-color="#011337"/>
<stop offset="0.1" stop-color="#012042"/>
<stop offset="0.3" stop-color="#034561"/>
<stop offset="0.57" stop-color="#058092"/>
<stop offset="0.9" stop-color="#08D0D6"/>
<stop offset="1" stop-color="#0AEBED"/>
</linearGradient>
<linearGradient id="paint2_linear_80_314" x1="270.969" y1="42.2639" x2="230.868" y2="177.519" gradientUnits="userSpaceOnUse">
<stop stop-color="#011337"/>
<stop offset="0.1" stop-color="#012042"/>
<stop offset="0.3" stop-color="#034561"/>
<stop offset="0.57" stop-color="#058092"/>
<stop offset="0.9" stop-color="#08D0D6"/>
<stop offset="1" stop-color="#0AEBED"/>
</linearGradient>
<linearGradient id="paint3_linear_80_314" x1="192.474" y1="242.622" x2="192.474" y2="282.15" gradientUnits="userSpaceOnUse">
<stop stop-color="#011337"/>
<stop offset="0.1" stop-color="#012042"/>
<stop offset="0.3" stop-color="#034561"/>
<stop offset="0.57" stop-color="#058092"/>
<stop offset="0.9" stop-color="#08D0D6"/>
<stop offset="1" stop-color="#0AEBED"/>
</linearGradient>
<linearGradient id="paint4_linear_80_314" x1="142.057" y1="14.1539" x2="142.057" y2="265.315" gradientUnits="userSpaceOnUse">
<stop stop-color="#011337"/>
<stop offset="0.1" stop-color="#012042"/>
<stop offset="0.3" stop-color="#034561"/>
<stop offset="0.57" stop-color="#058092"/>
<stop offset="0.9" stop-color="#08D0D6"/>
<stop offset="1" stop-color="#0AEBED"/>
</linearGradient>
<linearGradient id="paint5_linear_80_314" x1="142.057" y1="24.0472" x2="142.057" y2="255.445" gradientUnits="userSpaceOnUse">
<stop stop-color="#4CFFD5"/>
<stop offset="0.52" stop-color="#27F4E2"/>
<stop offset="1" stop-color="#0AEBED"/>
</linearGradient>
<linearGradient id="paint6_linear_80_314" x1="142.065" y1="41.2979" x2="138.348" y2="185.015" gradientUnits="userSpaceOnUse">
<stop stop-color="#FC574C"/>
<stop offset="1" stop-color="#E7483D" stop-opacity="0.2"/>
</linearGradient>
<linearGradient id="paint7_linear_80_314" x1="142.065" y1="41.2979" x2="138.348" y2="185.015" gradientUnits="userSpaceOnUse">
<stop stop-color="#AA72F1"/>
<stop offset="1" stop-color="#8E5BCF" stop-opacity="0.2"/>
</linearGradient>
<linearGradient id="paint8_linear_80_314" x1="211" y1="70.5" x2="116" y2="164" gradientUnits="userSpaceOnUse">
<stop stop-color="#EDC34C"/>
<stop offset="1" stop-color="#EDC34C" stop-opacity="0.2"/>
</linearGradient>
<linearGradient id="paint9_linear_80_314" x1="142.065" y1="41.2979" x2="142.065" y2="238.702" gradientUnits="userSpaceOnUse">
<stop stop-color="#3BBAC0"/>
<stop offset="1" stop-color="#3BBAC0" stop-opacity="0"/>
</linearGradient>
<linearGradient id="paint10_linear_80_314" x1="142.057" y1="126.157" x2="142.057" y2="153.335" gradientUnits="userSpaceOnUse">
<stop stop-color="#011337"/>
<stop offset="0.1" stop-color="#012042"/>
<stop offset="0.3" stop-color="#034561"/>
<stop offset="0.57" stop-color="#058092"/>
<stop offset="0.9" stop-color="#08D0D6"/>
<stop offset="1" stop-color="#0AEBED"/>
</linearGradient>
<linearGradient id="paint11_linear_80_314" x1="142.057" y1="111.644" x2="142.057" y2="167.848" gradientUnits="userSpaceOnUse">
<stop stop-color="#011337"/>
<stop offset="0.1" stop-color="#012042"/>
<stop offset="0.3" stop-color="#034561"/>
<stop offset="0.57" stop-color="#058092"/>
<stop offset="0.9" stop-color="#08D0D6"/>
<stop offset="1" stop-color="#0AEBED"/>
</linearGradient>
<clipPath id="clip0_80_314">
<rect width="280" height="276.696" fill="white"/>
</clipPath>
</defs>
</svg>
