<svg width="361" height="328" viewBox="0 0 361 328" fill="none" xmlns="http://www.w3.org/2000/svg">
<g clip-path="url(#clip0_210_444)">
<path style="mix-blend-mode:screen" d="M80.6754 56.4365C67.4546 76.0696 59.7274 99.7625 59.7274 125.253" stroke="url(#paint0_linear_210_444)" stroke-width="5" stroke-miterlimit="10"/>
<path style="mix-blend-mode:screen" d="M182.336 2.18311C165.091 2.18311 148.691 5.75826 133.8 12.2016" stroke="url(#paint1_linear_210_444)" stroke-width="5" stroke-miterlimit="10"/>
<path style="mix-blend-mode:screen" d="M295.905 168.993C296.834 166.488 297.671 163.936 298.444 161.321C312.88 112.443 295.648 61.7029 258.75 31.2129" stroke="url(#paint2_linear_210_444)" stroke-width="5" stroke-miterlimit="10"/>
<path style="mix-blend-mode:screen" d="M193.122 247.859C217.874 245.698 240.532 236.144 258.884 221.419" stroke="url(#paint3_linear_210_444)" stroke-width="5" stroke-miterlimit="10"/>
<path style="mix-blend-mode:screen" d="M182.336 237.053C243.85 237.053 293.717 186.998 293.717 125.253C293.717 63.5083 243.85 13.4541 182.336 13.4541C120.823 13.4541 70.9559 63.5083 70.9559 125.253C70.9559 186.998 120.823 237.053 182.336 237.053Z" stroke="url(#paint4_linear_210_444)" stroke-width="0.75" stroke-miterlimit="10"/>
<path d="M182.336 226.933C238.282 226.933 283.635 181.409 283.635 125.253C283.635 69.0968 238.282 23.5732 182.336 23.5732C126.391 23.5732 81.0375 69.0968 81.0375 125.253C81.0375 181.409 126.391 226.933 182.336 226.933Z" fill="black" fill-opacity="0.3" stroke="url(#paint5_linear_210_444)" stroke-width="2" stroke-miterlimit="10"/>
<path d="M182.344 37.0146C188.325 37.0146 194.292 37.626 200.15 38.8394L187.33 101.218C185.689 100.878 184.019 100.707 182.344 100.707V37.0146Z" fill="url(#paint6_linear_210_444)"/>
<path d="M200.14 38.8371C212.479 41.3911 224.129 46.5713 234.305 54.0284L196.895 105.471C194.045 103.383 190.782 101.933 187.327 101.217L200.14 38.8371Z" fill="url(#paint7_linear_210_444)"/>
<path d="M234.326 54.0434C244.499 61.5035 252.961 71.0667 259.141 82.0881L203.849 113.329C202.119 110.243 199.749 107.565 196.9 105.476L234.326 54.0434Z" fill="url(#paint8_linear_210_444)"/>
<path d="M259.169 82.1372C268.649 99.0706 272.314 118.666 269.598 137.898C266.882 157.13 257.936 174.93 244.14 188.551C230.345 202.172 212.467 210.856 193.266 213.264C174.065 215.671 154.609 211.668 137.9 201.872C121.19 192.076 108.158 177.031 100.813 159.061C93.4675 141.09 92.2186 121.192 97.2586 102.438C102.299 83.6842 113.347 67.1167 128.699 55.2927C144.052 43.4687 162.854 37.0456 182.204 37.0148L182.304 100.71C176.886 100.719 171.622 102.517 167.323 105.828C163.025 109.138 159.931 113.777 158.52 119.029C157.109 124.28 157.458 129.851 159.515 134.883C161.572 139.915 165.221 144.127 169.899 146.87C174.578 149.613 180.026 150.734 185.402 150.06C190.778 149.386 195.784 146.954 199.647 143.14C203.509 139.326 206.014 134.342 206.775 128.957C207.535 123.572 206.509 118.086 203.855 113.344L259.169 82.1372Z" fill="url(#paint9_linear_210_444)"/>
<path style="mix-blend-mode:screen" d="M182.336 137.433C189.038 137.433 194.471 131.98 194.471 125.253C194.471 118.527 189.038 113.074 182.336 113.074C175.635 113.074 170.202 118.527 170.202 125.253C170.202 131.98 175.635 137.433 182.336 137.433Z" fill="url(#paint10_linear_210_444)"/>
<path style="mix-blend-mode:screen" d="M182.337 149.674C195.773 149.674 206.665 138.74 206.665 125.254C206.665 111.767 195.773 100.833 182.337 100.833C168.9 100.833 158.008 111.767 158.008 125.254C158.008 138.74 168.9 149.674 182.337 149.674Z" stroke="url(#paint11_linear_210_444)" stroke-width="0.75" stroke-miterlimit="10"/>
</g>
<rect y="272" width="20" height="20" fill="#EDC34C"/>
<path d="M29.3284 287V277.2H35.2084V278.348H30.6584V281.33H34.5784V282.45H30.6584V285.852H35.2084V287H29.3284ZM39.6205 287.168C38.9299 287.168 38.3232 287.009 37.8005 286.692C37.2872 286.365 36.8905 285.917 36.6105 285.348C36.3305 284.769 36.1905 284.107 36.1905 283.36C36.1905 282.66 36.3305 282.021 36.6105 281.442C36.8999 280.863 37.3105 280.406 37.8425 280.07C38.3745 279.725 38.9999 279.552 39.7185 279.552C40.1292 279.552 40.4885 279.589 40.7965 279.664C41.1139 279.739 41.4172 279.846 41.7065 279.986L41.3285 281.05C41.0672 280.919 40.8152 280.826 40.5725 280.77C40.3392 280.705 40.0779 280.672 39.7885 280.672C39.1352 280.672 38.5845 280.91 38.1365 281.386C37.6979 281.853 37.4785 282.501 37.4785 283.332C37.4785 283.836 37.5719 284.293 37.7585 284.704C37.9452 285.115 38.2019 285.441 38.5285 285.684C38.8645 285.927 39.2565 286.048 39.7045 286.048C40.0592 286.048 40.3625 286.011 40.6145 285.936C40.8665 285.852 41.1372 285.735 41.4265 285.586L41.8185 286.65C41.5292 286.809 41.2025 286.935 40.8385 287.028C40.4839 287.121 40.0779 287.168 39.6205 287.168ZM46.2133 287.168C45.5227 287.168 44.902 287.009 44.3513 286.692C43.8007 286.365 43.3667 285.917 43.0493 285.348C42.7413 284.769 42.5873 284.107 42.5873 283.36C42.5873 282.576 42.746 281.899 43.0633 281.33C43.3807 280.761 43.8147 280.322 44.3653 280.014C44.916 279.706 45.532 279.552 46.2133 279.552C46.8947 279.552 47.506 279.706 48.0473 280.014C48.598 280.322 49.032 280.761 49.3493 281.33C49.676 281.89 49.8393 282.557 49.8393 283.332C49.8393 284.107 49.6807 284.783 49.3633 285.362C49.046 285.931 48.612 286.375 48.0613 286.692C47.52 287.009 46.904 287.168 46.2133 287.168ZM46.2133 286.048C46.9507 286.048 47.5247 285.801 47.9353 285.306C48.346 284.802 48.5513 284.153 48.5513 283.36C48.5513 282.875 48.4487 282.431 48.2433 282.03C48.038 281.619 47.758 281.293 47.4033 281.05C47.058 280.798 46.6613 280.672 46.2133 280.672C45.476 280.672 44.902 280.915 44.4913 281.4C44.0807 281.885 43.8753 282.529 43.8753 283.332C43.8753 283.817 43.978 284.27 44.1833 284.69C44.3887 285.101 44.664 285.432 45.0093 285.684C45.364 285.927 45.7653 286.048 46.2133 286.048ZM53.4745 287.168C52.9239 287.168 52.4245 287.098 51.9765 286.958C51.5379 286.818 51.1739 286.636 50.8845 286.412L51.4165 285.362C51.6592 285.567 51.9625 285.74 52.3265 285.88C52.6999 286.011 53.0965 286.076 53.5165 286.076C54.0392 286.076 54.4312 285.992 54.6925 285.824C54.9632 285.647 55.0985 285.423 55.0985 285.152C55.0985 284.956 55.0472 284.783 54.9445 284.634C54.8512 284.485 54.6739 284.34 54.4125 284.2C54.1512 284.051 53.7732 283.892 53.2785 283.724C52.5972 283.491 52.0839 283.215 51.7385 282.898C51.4025 282.571 51.2345 282.123 51.2345 281.554C51.2345 280.994 51.4772 280.523 51.9625 280.14C52.4572 279.748 53.1385 279.552 54.0065 279.552C54.4732 279.552 54.8885 279.603 55.2525 279.706C55.6165 279.799 55.9432 279.921 56.2325 280.07L55.8825 281.106C55.6305 280.957 55.3412 280.835 55.0145 280.742C54.6972 280.649 54.3425 280.602 53.9505 280.602C53.4652 280.602 53.0965 280.7 52.8445 280.896C52.5925 281.092 52.4665 281.307 52.4665 281.54C52.4665 281.764 52.5645 281.955 52.7605 282.114C52.9565 282.273 53.3392 282.445 53.9085 282.632C54.8325 282.94 55.4765 283.281 55.8405 283.654C56.2045 284.027 56.3865 284.494 56.3865 285.054C56.3865 285.707 56.1205 286.225 55.5885 286.608C55.0659 286.981 54.3612 287.168 53.4745 287.168ZM58.2454 290.248C57.9654 290.248 57.718 290.22 57.5034 290.164C57.298 290.108 57.1347 290.043 57.0134 289.968L57.2934 288.918C57.4054 288.983 57.5454 289.039 57.7134 289.086C57.8814 289.133 58.068 289.156 58.2734 289.156C58.6654 289.156 59.0154 289.03 59.3234 288.778C59.6314 288.526 59.9254 288.031 60.2054 287.294L60.5274 286.454H59.8554L57.0134 280.056L58.1334 279.552L60.8494 285.614L62.9634 279.608L64.1254 280.056L61.4514 287.364C61.1807 288.111 60.8867 288.694 60.5694 289.114C60.252 289.534 59.902 289.828 59.5194 289.996C59.1367 290.164 58.712 290.248 58.2454 290.248ZM67.3515 287.168C66.8008 287.168 66.3015 287.098 65.8535 286.958C65.4148 286.818 65.0508 286.636 64.7615 286.412L65.2935 285.362C65.5362 285.567 65.8395 285.74 66.2035 285.88C66.5768 286.011 66.9735 286.076 67.3935 286.076C67.9162 286.076 68.3082 285.992 68.5695 285.824C68.8402 285.647 68.9755 285.423 68.9755 285.152C68.9755 284.956 68.9242 284.783 68.8215 284.634C68.7282 284.485 68.5508 284.34 68.2895 284.2C68.0282 284.051 67.6502 283.892 67.1555 283.724C66.4742 283.491 65.9608 283.215 65.6155 282.898C65.2795 282.571 65.1115 282.123 65.1115 281.554C65.1115 280.994 65.3542 280.523 65.8395 280.14C66.3342 279.748 67.0155 279.552 67.8835 279.552C68.3502 279.552 68.7655 279.603 69.1295 279.706C69.4935 279.799 69.8202 279.921 70.1095 280.07L69.7595 281.106C69.5075 280.957 69.2182 280.835 68.8915 280.742C68.5742 280.649 68.2195 280.602 67.8275 280.602C67.3422 280.602 66.9735 280.7 66.7215 280.896C66.4695 281.092 66.3435 281.307 66.3435 281.54C66.3435 281.764 66.4415 281.955 66.6375 282.114C66.8335 282.273 67.2162 282.445 67.7855 282.632C68.7095 282.94 69.3535 283.281 69.7175 283.654C70.0815 284.027 70.2635 284.494 70.2635 285.054C70.2635 285.707 69.9975 286.225 69.4655 286.608C68.9428 286.981 68.2382 287.168 67.3515 287.168ZM74.4883 287.168C73.7883 287.168 73.233 286.939 72.8223 286.482C72.421 286.015 72.2203 285.353 72.2203 284.494V281.078H70.9603V279.986H72.2483L72.5143 277.69H73.4803V279.986H75.4963V281.078H73.4803V284.592C73.4803 285.133 73.5923 285.511 73.8163 285.726C74.0496 285.941 74.325 286.048 74.6423 286.048C74.8756 286.048 75.095 286.011 75.3003 285.936C75.515 285.861 75.711 285.773 75.8883 285.67L76.2383 286.678C76.0516 286.79 75.7996 286.897 75.4823 287C75.165 287.112 74.8336 287.168 74.4883 287.168ZM80.1433 287.168C79.098 287.168 78.2673 286.837 77.6513 286.174C77.0447 285.502 76.7413 284.564 76.7413 283.36C76.7413 282.632 76.8767 281.983 77.1473 281.414C77.4273 280.835 77.8147 280.383 78.3093 280.056C78.804 279.72 79.378 279.552 80.0313 279.552C80.7313 279.552 81.31 279.706 81.7673 280.014C82.234 280.313 82.584 280.719 82.8173 281.232C83.0507 281.745 83.1673 282.31 83.1673 282.926C83.1673 283.253 83.1533 283.57 83.1253 283.878H78.0293C78.1133 284.559 78.3513 285.091 78.7433 285.474C79.1353 285.857 79.6533 286.048 80.2973 286.048C80.7173 286.048 81.0953 286.006 81.4313 285.922C81.7673 285.829 82.0893 285.712 82.3973 285.572L82.6913 286.65C82.3553 286.799 81.9773 286.921 81.5573 287.014C81.1373 287.117 80.666 287.168 80.1433 287.168ZM78.0153 282.856H82.0053C82.0053 282.147 81.828 281.601 81.4733 281.218C81.1187 280.835 80.6287 280.644 80.0033 280.644C79.462 280.644 79.014 280.835 78.6593 281.218C78.3047 281.591 78.09 282.137 78.0153 282.856ZM84.8466 287V279.72H86.0646V280.938C86.3259 280.546 86.6572 280.219 87.0586 279.958C87.4599 279.687 87.9172 279.552 88.4306 279.552C89.0092 279.552 89.4806 279.692 89.8446 279.972C90.2179 280.252 90.4792 280.625 90.6286 281.092C90.9179 280.663 91.2586 280.299 91.6506 280C92.0519 279.701 92.5466 279.552 93.1346 279.552C93.9279 279.552 94.5159 279.804 94.8986 280.308C95.2906 280.803 95.4866 281.451 95.4866 282.254V287H94.2266V282.352C94.2266 281.848 94.1099 281.442 93.8766 281.134C93.6432 280.817 93.3212 280.658 92.9106 280.658C92.4906 280.658 92.0986 280.817 91.7346 281.134C91.3799 281.442 91.0672 281.806 90.7966 282.226V287H89.5366V282.352C89.5366 281.848 89.4199 281.442 89.1866 281.134C88.9532 280.817 88.6312 280.658 88.2206 280.658C87.8099 280.658 87.4226 280.812 87.0586 281.12C86.6946 281.419 86.3772 281.773 86.1066 282.184V287H84.8466ZM98.6371 281.428C98.3851 281.428 98.1658 281.335 97.9791 281.148C97.7924 280.961 97.6991 280.742 97.6991 280.49C97.6991 280.201 97.7831 279.972 97.9511 279.804C98.1191 279.636 98.3478 279.552 98.6371 279.552C98.8798 279.552 99.0944 279.645 99.2811 279.832C99.4771 280.019 99.5751 280.238 99.5751 280.49C99.5751 280.77 99.4864 280.999 99.3091 281.176C99.1318 281.344 98.9078 281.428 98.6371 281.428ZM98.6371 287.168C98.3851 287.168 98.1658 287.075 97.9791 286.888C97.7924 286.701 97.6991 286.482 97.6991 286.23C97.6991 285.941 97.7831 285.712 97.9511 285.544C98.1191 285.376 98.3478 285.292 98.6371 285.292C98.8798 285.292 99.0944 285.385 99.2811 285.572C99.4771 285.759 99.5751 285.978 99.5751 286.23C99.5751 286.51 99.4864 286.739 99.3091 286.916C99.1318 287.084 98.9078 287.168 98.6371 287.168ZM106.164 287C106.136 286.832 106.122 286.659 106.122 286.482C106.122 285.875 106.224 285.334 106.43 284.858C106.644 284.373 106.92 283.934 107.256 283.542C107.592 283.141 107.946 282.772 108.32 282.436C108.702 282.091 109.057 281.764 109.384 281.456C109.72 281.139 109.995 280.821 110.21 280.504C110.424 280.187 110.532 279.855 110.532 279.51C110.532 279.118 110.387 278.796 110.098 278.544C109.808 278.283 109.435 278.152 108.978 278.152C108.586 278.152 108.226 278.231 107.9 278.39C107.582 278.539 107.284 278.745 107.004 279.006L106.304 278.152C106.677 277.816 107.088 277.545 107.536 277.34C107.993 277.135 108.52 277.032 109.118 277.032C109.668 277.032 110.149 277.139 110.56 277.354C110.97 277.559 111.288 277.844 111.512 278.208C111.745 278.572 111.862 278.978 111.862 279.426C111.862 279.874 111.764 280.289 111.568 280.672C111.372 281.055 111.12 281.414 110.812 281.75C110.504 282.086 110.172 282.413 109.818 282.73C109.463 283.038 109.122 283.355 108.796 283.682C108.469 284.009 108.189 284.349 107.956 284.704C107.732 285.059 107.592 285.441 107.536 285.852H111.848V287H106.164ZM116.952 287.56L116.112 287.028L122.23 276.64L123.07 277.172L116.952 287.56ZM116.238 283.22C115.464 283.22 114.871 282.949 114.46 282.408C114.059 281.867 113.858 281.111 113.858 280.14C113.858 279.169 114.064 278.423 114.474 277.9C114.894 277.368 115.487 277.102 116.252 277.102C117.027 277.102 117.62 277.368 118.03 277.9C118.441 278.423 118.646 279.169 118.646 280.14C118.646 281.101 118.436 281.857 118.016 282.408C117.606 282.949 117.013 283.22 116.238 283.22ZM116.252 282.282C116.644 282.282 116.948 282.123 117.162 281.806C117.377 281.489 117.484 280.933 117.484 280.14C117.484 279.449 117.377 278.927 117.162 278.572C116.948 278.208 116.64 278.026 116.238 278.026C115.865 278.026 115.566 278.185 115.342 278.502C115.128 278.81 115.02 279.356 115.02 280.14C115.02 280.84 115.128 281.372 115.342 281.736C115.557 282.1 115.86 282.282 116.252 282.282ZM122.986 287.084C122.212 287.084 121.619 286.813 121.208 286.272C120.807 285.731 120.606 284.975 120.606 284.004C120.606 283.033 120.812 282.287 121.222 281.764C121.642 281.232 122.235 280.966 123 280.966C123.775 280.966 124.368 281.232 124.778 281.764C125.189 282.287 125.394 283.033 125.394 284.004C125.394 284.965 125.184 285.721 124.764 286.272C124.354 286.813 123.761 287.084 122.986 287.084ZM123 286.146C123.392 286.146 123.696 285.987 123.91 285.67C124.125 285.353 124.232 284.797 124.232 284.004C124.232 283.313 124.125 282.791 123.91 282.436C123.696 282.072 123.388 281.89 122.986 281.89C122.613 281.89 122.314 282.049 122.09 282.366C121.876 282.674 121.768 283.22 121.768 284.004C121.768 284.704 121.876 285.236 122.09 285.6C122.305 285.964 122.608 286.146 123 286.146Z" fill="white"/>
<rect y="308" width="20" height="20" fill="#E7483D"/>
<path d="M36.0702 323.14L34.9782 320.34H30.4422L29.3502 323.112L28.2162 322.65L32.0522 313.2H33.5082L37.2882 322.65L36.0702 323.14ZM30.8622 319.22H34.5442L32.7102 314.516L30.8622 319.22ZM38.5477 323V315.72H39.8077V323H38.5477ZM39.1777 314.474C38.9351 314.474 38.7251 314.385 38.5477 314.208C38.3797 314.031 38.2957 313.825 38.2957 313.592C38.2957 313.321 38.3751 313.107 38.5337 312.948C38.6924 312.789 38.9071 312.71 39.1777 312.71C39.4204 312.71 39.6257 312.799 39.7937 312.976C39.9711 313.144 40.0597 313.349 40.0597 313.592C40.0597 313.853 39.9804 314.068 39.8217 314.236C39.6631 314.395 39.4484 314.474 39.1777 314.474ZM42.0477 323V315.72H43.2657V317.302C43.3871 316.994 43.5504 316.709 43.7557 316.448C43.9611 316.177 44.2177 315.963 44.5257 315.804C44.8337 315.636 45.1931 315.552 45.6037 315.552C45.7437 315.552 45.8837 315.561 46.0237 315.58C46.1637 315.589 46.2804 315.608 46.3737 315.636L45.9957 316.938C45.8184 316.863 45.6084 316.826 45.3657 316.826C45.0204 316.826 44.6891 316.924 44.3717 317.12C44.0637 317.316 43.8071 317.619 43.6017 318.03C43.4057 318.441 43.3077 318.963 43.3077 319.598V323H42.0477ZM49.9737 323.168C49.3764 323.168 48.8304 323.014 48.3357 322.706C47.841 322.398 47.449 321.964 47.1597 321.404C46.8704 320.835 46.7257 320.167 46.7257 319.402C46.7257 318.665 46.8704 318.007 47.1597 317.428C47.4584 316.849 47.8504 316.392 48.3357 316.056C48.8304 315.72 49.3717 315.552 49.9597 315.552C50.445 315.552 50.8604 315.65 51.2057 315.846C51.5604 316.042 51.8357 316.243 52.0317 316.448V312.64H53.2917V321.236C53.2917 321.591 53.3757 321.824 53.5437 321.936C53.721 322.039 53.9124 322.09 54.1177 322.09L53.8517 323.07C52.965 323.07 52.4237 322.715 52.2277 322.006C52.0224 322.295 51.733 322.561 51.3597 322.804C50.9957 323.047 50.5337 323.168 49.9737 323.168ZM50.2537 322.048C50.599 322.048 50.9257 321.969 51.2337 321.81C51.551 321.642 51.817 321.427 52.0317 321.166V317.554C51.8544 317.33 51.607 317.125 51.2897 316.938C50.9724 316.742 50.6224 316.644 50.2397 316.644C49.7917 316.644 49.3997 316.765 49.0637 317.008C48.7277 317.251 48.4664 317.577 48.2797 317.988C48.1024 318.389 48.0137 318.847 48.0137 319.36C48.0137 319.873 48.1117 320.335 48.3077 320.746C48.5037 321.147 48.7697 321.465 49.1057 321.698C49.451 321.931 49.8337 322.048 50.2537 322.048ZM55.8016 323V315.72H57.0196V317.302C57.141 316.994 57.3043 316.709 57.5096 316.448C57.715 316.177 57.9716 315.963 58.2796 315.804C58.5876 315.636 58.947 315.552 59.3576 315.552C59.4976 315.552 59.6376 315.561 59.7776 315.58C59.9176 315.589 60.0343 315.608 60.1276 315.636L59.7496 316.938C59.5723 316.863 59.3623 316.826 59.1196 316.826C58.7743 316.826 58.443 316.924 58.1256 317.12C57.8176 317.316 57.561 317.619 57.3556 318.03C57.1596 318.441 57.0616 318.963 57.0616 319.598V323H55.8016ZM64.0356 323.168C63.3449 323.168 62.7243 323.009 62.1736 322.692C61.6229 322.365 61.1889 321.917 60.8716 321.348C60.5636 320.769 60.4096 320.107 60.4096 319.36C60.4096 318.576 60.5683 317.899 60.8856 317.33C61.2029 316.761 61.6369 316.322 62.1876 316.014C62.7383 315.706 63.3543 315.552 64.0356 315.552C64.7169 315.552 65.3283 315.706 65.8696 316.014C66.4203 316.322 66.8543 316.761 67.1716 317.33C67.4983 317.89 67.6616 318.557 67.6616 319.332C67.6616 320.107 67.5029 320.783 67.1856 321.362C66.8683 321.931 66.4343 322.375 65.8836 322.692C65.3423 323.009 64.7263 323.168 64.0356 323.168ZM64.0356 322.048C64.7729 322.048 65.3469 321.801 65.7576 321.306C66.1683 320.802 66.3736 320.153 66.3736 319.36C66.3736 318.875 66.2709 318.431 66.0656 318.03C65.8603 317.619 65.5803 317.293 65.2256 317.05C64.8803 316.798 64.4836 316.672 64.0356 316.672C63.2983 316.672 62.7243 316.915 62.3136 317.4C61.9029 317.885 61.6976 318.529 61.6976 319.332C61.6976 319.817 61.8003 320.27 62.0056 320.69C62.2109 321.101 62.4863 321.432 62.8316 321.684C63.1863 321.927 63.5876 322.048 64.0356 322.048ZM69.3294 326.08V317.582C69.3294 317.265 69.25 317.041 69.0914 316.91C68.942 316.77 68.746 316.7 68.5034 316.7L68.7694 315.72C69.628 315.72 70.1647 316.061 70.3794 316.742C70.4727 316.602 70.622 316.439 70.8274 316.252C71.042 316.065 71.3034 315.902 71.6114 315.762C71.9287 315.622 72.288 315.552 72.6894 315.552C73.2494 315.552 73.772 315.701 74.2574 316C74.752 316.289 75.1487 316.714 75.4474 317.274C75.746 317.825 75.8954 318.497 75.8954 319.29C75.8954 320.065 75.746 320.746 75.4474 321.334C75.1487 321.913 74.7567 322.365 74.2714 322.692C73.7954 323.009 73.2774 323.168 72.7174 323.168C72.288 323.168 71.8867 323.084 71.5134 322.916C71.14 322.739 70.832 322.538 70.5894 322.314V326.08H69.3294ZM72.4654 322.048C73.1 322.048 73.6134 321.801 74.0054 321.306C74.4067 320.802 74.6074 320.144 74.6074 319.332C74.6074 318.772 74.5047 318.291 74.2994 317.89C74.1034 317.489 73.8374 317.181 73.5014 316.966C73.1747 316.751 72.8107 316.644 72.4094 316.644C72.008 316.644 71.644 316.747 71.3174 316.952C71 317.148 70.7574 317.363 70.5894 317.596V321.18C70.832 321.432 71.112 321.642 71.4294 321.81C71.7467 321.969 72.092 322.048 72.4654 322.048ZM78.6293 317.428C78.3773 317.428 78.158 317.335 77.9713 317.148C77.7846 316.961 77.6913 316.742 77.6913 316.49C77.6913 316.201 77.7753 315.972 77.9433 315.804C78.1113 315.636 78.34 315.552 78.6293 315.552C78.872 315.552 79.0866 315.645 79.2733 315.832C79.4693 316.019 79.5673 316.238 79.5673 316.49C79.5673 316.77 79.4786 316.999 79.3013 317.176C79.124 317.344 78.9 317.428 78.6293 317.428ZM78.6293 323.168C78.3773 323.168 78.158 323.075 77.9713 322.888C77.7846 322.701 77.6913 322.482 77.6913 322.23C77.6913 321.941 77.7753 321.712 77.9433 321.544C78.1113 321.376 78.34 321.292 78.6293 321.292C78.872 321.292 79.0866 321.385 79.2733 321.572C79.4693 321.759 79.5673 321.978 79.5673 322.23C79.5673 322.51 79.4786 322.739 79.3013 322.916C79.124 323.084 78.9 323.168 78.6293 323.168ZM86.9398 323V321.88H88.9418V314.81L87.0658 316.224L86.3798 315.286L89.2778 313.2H90.2018V321.88H91.8678V323H86.9398ZM96.9444 323.56L96.1044 323.028L102.222 312.64L103.062 313.172L96.9444 323.56ZM96.2304 319.22C95.4557 319.22 94.863 318.949 94.4524 318.408C94.051 317.867 93.8504 317.111 93.8504 316.14C93.8504 315.169 94.0557 314.423 94.4664 313.9C94.8864 313.368 95.479 313.102 96.2444 313.102C97.019 313.102 97.6117 313.368 98.0224 313.9C98.433 314.423 98.6384 315.169 98.6384 316.14C98.6384 317.101 98.4284 317.857 98.0084 318.408C97.5977 318.949 97.005 319.22 96.2304 319.22ZM96.2444 318.282C96.6364 318.282 96.9397 318.123 97.1544 317.806C97.369 317.489 97.4764 316.933 97.4764 316.14C97.4764 315.449 97.369 314.927 97.1544 314.572C96.9397 314.208 96.6317 314.026 96.2304 314.026C95.857 314.026 95.5584 314.185 95.3344 314.502C95.1197 314.81 95.0124 315.356 95.0124 316.14C95.0124 316.84 95.1197 317.372 95.3344 317.736C95.549 318.1 95.8524 318.282 96.2444 318.282ZM102.978 323.084C102.204 323.084 101.611 322.813 101.2 322.272C100.799 321.731 100.598 320.975 100.598 320.004C100.598 319.033 100.804 318.287 101.214 317.764C101.634 317.232 102.227 316.966 102.992 316.966C103.767 316.966 104.36 317.232 104.77 317.764C105.181 318.287 105.386 319.033 105.386 320.004C105.386 320.965 105.176 321.721 104.756 322.272C104.346 322.813 103.753 323.084 102.978 323.084ZM102.992 322.146C103.384 322.146 103.688 321.987 103.902 321.67C104.117 321.353 104.224 320.797 104.224 320.004C104.224 319.313 104.117 318.791 103.902 318.436C103.688 318.072 103.38 317.89 102.978 317.89C102.605 317.89 102.306 318.049 102.082 318.366C101.868 318.674 101.76 319.22 101.76 320.004C101.76 320.704 101.868 321.236 102.082 321.6C102.297 321.964 102.6 322.146 102.992 322.146Z" fill="white"/>
<rect x="175" y="272" width="20" height="20" fill="#3BD3DA"/>
<path d="M204.638 287V277.2H205.968V285.81H210.462V287H204.638ZM211.648 287V279.72H212.908V287H211.648ZM212.278 278.474C212.036 278.474 211.826 278.385 211.648 278.208C211.48 278.031 211.396 277.825 211.396 277.592C211.396 277.321 211.476 277.107 211.634 276.948C211.793 276.789 212.008 276.71 212.278 276.71C212.521 276.71 212.726 276.799 212.894 276.976C213.072 277.144 213.16 277.349 213.16 277.592C213.16 277.853 213.081 278.068 212.922 278.236C212.764 278.395 212.549 278.474 212.278 278.474ZM219.964 290.08V286.258C219.768 286.463 219.493 286.669 219.138 286.874C218.793 287.07 218.387 287.168 217.92 287.168C217.36 287.168 216.828 287.023 216.324 286.734C215.83 286.445 215.428 286.02 215.12 285.46C214.812 284.891 214.658 284.2 214.658 283.388C214.658 282.623 214.812 281.955 215.12 281.386C215.428 280.807 215.839 280.359 216.352 280.042C216.866 279.715 217.43 279.552 218.046 279.552C218.466 279.552 218.844 279.627 219.18 279.776C219.526 279.916 219.824 280.093 220.076 280.308V279.72H221.224V290.08H219.964ZM218.2 286.048C218.574 286.048 218.914 285.959 219.222 285.782C219.53 285.605 219.778 285.399 219.964 285.166V281.232C219.712 281.055 219.432 280.915 219.124 280.812C218.826 280.7 218.508 280.644 218.172 280.644C217.771 280.644 217.402 280.751 217.066 280.966C216.73 281.181 216.46 281.489 216.254 281.89C216.049 282.291 215.946 282.777 215.946 283.346C215.946 283.906 216.049 284.391 216.254 284.802C216.469 285.203 216.749 285.511 217.094 285.726C217.44 285.941 217.808 286.048 218.2 286.048ZM225.841 287.168C225.421 287.168 225.024 287.079 224.651 286.902C224.277 286.725 223.974 286.44 223.741 286.048C223.507 285.647 223.391 285.115 223.391 284.452V279.72H224.651V284.284C224.651 284.853 224.772 285.292 225.015 285.6C225.257 285.899 225.612 286.048 226.079 286.048C226.461 286.048 226.83 285.973 227.185 285.824C227.549 285.665 227.871 285.455 228.151 285.194V279.72H229.411V285.11C229.411 285.511 229.495 285.777 229.663 285.908C229.84 286.029 230.031 286.09 230.237 286.09L229.971 287.07C229.103 287.07 228.566 286.725 228.361 286.034C228.034 286.37 227.656 286.645 227.227 286.86C226.797 287.065 226.335 287.168 225.841 287.168ZM231.91 287V279.72H233.17V287H231.91ZM232.54 278.474C232.297 278.474 232.087 278.385 231.91 278.208C231.742 278.031 231.658 277.825 231.658 277.592C231.658 277.321 231.737 277.107 231.896 276.948C232.055 276.789 232.269 276.71 232.54 276.71C232.783 276.71 232.988 276.799 233.156 276.976C233.333 277.144 233.422 277.349 233.422 277.592C233.422 277.853 233.343 278.068 233.184 278.236C233.025 278.395 232.811 278.474 232.54 278.474ZM238.168 287.168C237.571 287.168 237.025 287.014 236.53 286.706C236.035 286.398 235.643 285.964 235.354 285.404C235.065 284.835 234.92 284.167 234.92 283.402C234.92 282.665 235.065 282.007 235.354 281.428C235.653 280.849 236.045 280.392 236.53 280.056C237.025 279.72 237.566 279.552 238.154 279.552C238.639 279.552 239.055 279.65 239.4 279.846C239.755 280.042 240.03 280.243 240.226 280.448V276.64H241.486V285.236C241.486 285.591 241.57 285.824 241.738 285.936C241.915 286.039 242.107 286.09 242.312 286.09L242.046 287.07C241.159 287.07 240.618 286.715 240.422 286.006C240.217 286.295 239.927 286.561 239.554 286.804C239.19 287.047 238.728 287.168 238.168 287.168ZM238.448 286.048C238.793 286.048 239.12 285.969 239.428 285.81C239.745 285.642 240.011 285.427 240.226 285.166V281.554C240.049 281.33 239.801 281.125 239.484 280.938C239.167 280.742 238.817 280.644 238.434 280.644C237.986 280.644 237.594 280.765 237.258 281.008C236.922 281.251 236.661 281.577 236.474 281.988C236.297 282.389 236.208 282.847 236.208 283.36C236.208 283.873 236.306 284.335 236.502 284.746C236.698 285.147 236.964 285.465 237.3 285.698C237.645 285.931 238.028 286.048 238.448 286.048ZM243.996 287V279.72H245.256V287H243.996ZM244.626 278.474C244.383 278.474 244.173 278.385 243.996 278.208C243.828 278.031 243.744 277.825 243.744 277.592C243.744 277.321 243.823 277.107 243.982 276.948C244.141 276.789 244.355 276.71 244.626 276.71C244.869 276.71 245.074 276.799 245.242 276.976C245.419 277.144 245.508 277.349 245.508 277.592C245.508 277.853 245.429 278.068 245.27 278.236C245.111 278.395 244.897 278.474 244.626 278.474ZM250.044 287.168C249.344 287.168 248.789 286.939 248.378 286.482C247.977 286.015 247.776 285.353 247.776 284.494V281.078H246.516V279.986H247.804L248.07 277.69H249.036V279.986H251.052V281.078H249.036V284.592C249.036 285.133 249.148 285.511 249.372 285.726C249.605 285.941 249.881 286.048 250.198 286.048C250.431 286.048 250.651 286.011 250.856 285.936C251.071 285.861 251.267 285.773 251.444 285.67L251.794 286.678C251.607 286.79 251.355 286.897 251.038 287C250.721 287.112 250.389 287.168 250.044 287.168ZM253.106 290.248C252.826 290.248 252.578 290.22 252.364 290.164C252.158 290.108 251.995 290.043 251.874 289.968L252.154 288.918C252.266 288.983 252.406 289.039 252.574 289.086C252.742 289.133 252.928 289.156 253.134 289.156C253.526 289.156 253.876 289.03 254.184 288.778C254.492 288.526 254.786 288.031 255.066 287.294L255.388 286.454H254.716L251.874 280.056L252.994 279.552L255.71 285.614L257.824 279.608L258.986 280.056L256.312 287.364C256.041 288.111 255.747 288.694 255.43 289.114C255.112 289.534 254.762 289.828 254.38 289.996C253.997 290.164 253.572 290.248 253.106 290.248ZM264.589 287V277.228C264.972 277.181 265.392 277.149 265.849 277.13C266.316 277.102 266.796 277.088 267.291 277.088C268.103 277.088 268.794 277.219 269.363 277.48C269.932 277.732 270.366 278.082 270.665 278.53C270.964 278.978 271.113 279.491 271.113 280.07C271.113 280.77 270.94 281.363 270.595 281.848C270.25 282.333 269.769 282.707 269.153 282.968C268.537 283.22 267.823 283.346 267.011 283.346C266.619 283.346 266.255 283.332 265.919 283.304V287H264.589ZM267.179 282.24C268.01 282.24 268.654 282.053 269.111 281.68C269.568 281.307 269.797 280.807 269.797 280.182C269.797 279.575 269.578 279.095 269.139 278.74C268.7 278.385 268.075 278.208 267.263 278.208C267.011 278.208 266.773 278.213 266.549 278.222C266.325 278.231 266.115 278.245 265.919 278.264V282.17C266.068 282.189 266.25 282.207 266.465 282.226C266.68 282.235 266.918 282.24 267.179 282.24ZM275.445 287.168C274.754 287.168 274.133 287.009 273.583 286.692C273.032 286.365 272.598 285.917 272.281 285.348C271.973 284.769 271.819 284.107 271.819 283.36C271.819 282.576 271.977 281.899 272.295 281.33C272.612 280.761 273.046 280.322 273.597 280.014C274.147 279.706 274.763 279.552 275.445 279.552C276.126 279.552 276.737 279.706 277.279 280.014C277.829 280.322 278.263 280.761 278.581 281.33C278.907 281.89 279.071 282.557 279.071 283.332C279.071 284.107 278.912 284.783 278.595 285.362C278.277 285.931 277.843 286.375 277.293 286.692C276.751 287.009 276.135 287.168 275.445 287.168ZM275.445 286.048C276.182 286.048 276.756 285.801 277.167 285.306C277.577 284.802 277.783 284.153 277.783 283.36C277.783 282.875 277.68 282.431 277.475 282.03C277.269 281.619 276.989 281.293 276.635 281.05C276.289 280.798 275.893 280.672 275.445 280.672C274.707 280.672 274.133 280.915 273.723 281.4C273.312 281.885 273.107 282.529 273.107 283.332C273.107 283.817 273.209 284.27 273.415 284.69C273.62 285.101 273.895 285.432 274.241 285.684C274.595 285.927 274.997 286.048 275.445 286.048ZM283.812 287.168C283.121 287.168 282.501 287.009 281.95 286.692C281.399 286.365 280.965 285.917 280.648 285.348C280.34 284.769 280.186 284.107 280.186 283.36C280.186 282.576 280.345 281.899 280.662 281.33C280.979 280.761 281.413 280.322 281.964 280.014C282.515 279.706 283.131 279.552 283.812 279.552C284.493 279.552 285.105 279.706 285.646 280.014C286.197 280.322 286.631 280.761 286.948 281.33C287.275 281.89 287.438 282.557 287.438 283.332C287.438 284.107 287.279 284.783 286.962 285.362C286.645 285.931 286.211 286.375 285.66 286.692C285.119 287.009 284.503 287.168 283.812 287.168ZM283.812 286.048C284.549 286.048 285.123 285.801 285.534 285.306C285.945 284.802 286.15 284.153 286.15 283.36C286.15 282.875 286.047 282.431 285.842 282.03C285.637 281.619 285.357 281.293 285.002 281.05C284.657 280.798 284.26 280.672 283.812 280.672C283.075 280.672 282.501 280.915 282.09 281.4C281.679 281.885 281.474 282.529 281.474 283.332C281.474 283.817 281.577 284.27 281.782 284.69C281.987 285.101 282.263 285.432 282.608 285.684C282.963 285.927 283.364 286.048 283.812 286.048ZM291.325 287.168C290.896 287.168 290.508 287.089 290.163 286.93C289.818 286.762 289.542 286.496 289.337 286.132C289.141 285.768 289.043 285.297 289.043 284.718V276.64H290.303V284.592C290.303 285.096 290.406 285.469 290.611 285.712C290.826 285.955 291.12 286.076 291.493 286.076C291.67 286.076 291.843 286.057 292.011 286.02C292.188 285.973 292.338 285.922 292.459 285.866L292.767 286.888C292.599 286.963 292.389 287.028 292.137 287.084C291.894 287.14 291.624 287.168 291.325 287.168ZM294.933 281.428C294.681 281.428 294.462 281.335 294.275 281.148C294.088 280.961 293.995 280.742 293.995 280.49C293.995 280.201 294.079 279.972 294.247 279.804C294.415 279.636 294.644 279.552 294.933 279.552C295.176 279.552 295.39 279.645 295.577 279.832C295.773 280.019 295.871 280.238 295.871 280.49C295.871 280.77 295.782 280.999 295.605 281.176C295.428 281.344 295.204 281.428 294.933 281.428ZM294.933 287.168C294.681 287.168 294.462 287.075 294.275 286.888C294.088 286.701 293.995 286.482 293.995 286.23C293.995 285.941 294.079 285.712 294.247 285.544C294.415 285.376 294.644 285.292 294.933 285.292C295.176 285.292 295.39 285.385 295.577 285.572C295.773 285.759 295.871 285.978 295.871 286.23C295.871 286.51 295.782 286.739 295.605 286.916C295.428 287.084 295.204 287.168 294.933 287.168ZM304.924 287.168C304.382 287.168 303.897 287.075 303.468 286.888C303.038 286.692 302.646 286.421 302.292 286.076L303.118 285.138C303.678 285.726 304.303 286.02 304.994 286.02C305.376 286.02 305.731 285.894 306.058 285.642C306.384 285.381 306.646 284.975 306.842 284.424C307.047 283.873 307.15 283.164 307.15 282.296C306.86 282.557 306.538 282.777 306.184 282.954C305.829 283.131 305.446 283.22 305.036 283.22C304.541 283.22 304.07 283.108 303.622 282.884C303.183 282.651 302.824 282.315 302.544 281.876C302.273 281.428 302.138 280.877 302.138 280.224C302.138 279.636 302.268 279.099 302.53 278.614C302.8 278.129 303.174 277.746 303.65 277.466C304.126 277.177 304.676 277.032 305.302 277.032C305.787 277.032 306.202 277.107 306.548 277.256C306.893 277.405 307.182 277.601 307.416 277.844C307.64 278.077 307.826 278.353 307.976 278.67C308.134 278.978 308.251 279.389 308.326 279.902C308.4 280.406 308.438 281.064 308.438 281.876C308.438 283.117 308.284 284.13 307.976 284.914C307.668 285.689 307.248 286.258 306.716 286.622C306.193 286.986 305.596 287.168 304.924 287.168ZM305.246 282.184C305.6 282.184 305.941 282.095 306.268 281.918C306.604 281.741 306.898 281.526 307.15 281.274V280.854C307.15 279.967 306.977 279.295 306.632 278.838C306.296 278.381 305.838 278.152 305.26 278.152C304.728 278.152 304.275 278.339 303.902 278.712C303.538 279.076 303.356 279.561 303.356 280.168C303.356 280.588 303.444 280.952 303.622 281.26C303.799 281.559 304.028 281.787 304.308 281.946C304.597 282.105 304.91 282.184 305.246 282.184ZM313.402 287.168C312.833 287.168 312.343 287.107 311.932 286.986C311.521 286.855 311.148 286.673 310.812 286.44L311.47 285.362C311.731 285.549 312.021 285.707 312.338 285.838C312.655 285.959 313.015 286.02 313.416 286.02C314.041 286.02 314.545 285.843 314.928 285.488C315.311 285.124 315.502 284.662 315.502 284.102C315.502 283.523 315.301 283.052 314.9 282.688C314.508 282.315 313.943 282.128 313.206 282.128H311.47V277.2H316.314V278.334H312.66V280.994H313.36C314.088 280.994 314.709 281.12 315.222 281.372C315.745 281.624 316.141 281.974 316.412 282.422C316.692 282.87 316.832 283.383 316.832 283.962C316.832 284.587 316.687 285.143 316.398 285.628C316.118 286.104 315.721 286.482 315.208 286.762C314.695 287.033 314.093 287.168 313.402 287.168ZM321.643 287.56L320.803 287.028L326.921 276.64L327.761 277.172L321.643 287.56ZM320.929 283.22C320.154 283.22 319.561 282.949 319.151 282.408C318.749 281.867 318.549 281.111 318.549 280.14C318.549 279.169 318.754 278.423 319.165 277.9C319.585 277.368 320.177 277.102 320.943 277.102C321.717 277.102 322.31 277.368 322.721 277.9C323.131 278.423 323.337 279.169 323.337 280.14C323.337 281.101 323.127 281.857 322.707 282.408C322.296 282.949 321.703 283.22 320.929 283.22ZM320.943 282.282C321.335 282.282 321.638 282.123 321.853 281.806C322.067 281.489 322.175 280.933 322.175 280.14C322.175 279.449 322.067 278.927 321.853 278.572C321.638 278.208 321.33 278.026 320.929 278.026C320.555 278.026 320.257 278.185 320.033 278.502C319.818 278.81 319.711 279.356 319.711 280.14C319.711 280.84 319.818 281.372 320.033 281.736C320.247 282.1 320.551 282.282 320.943 282.282ZM327.677 287.084C326.902 287.084 326.309 286.813 325.899 286.272C325.497 285.731 325.297 284.975 325.297 284.004C325.297 283.033 325.502 282.287 325.913 281.764C326.333 281.232 326.925 280.966 327.691 280.966C328.465 280.966 329.058 281.232 329.469 281.764C329.879 282.287 330.085 283.033 330.085 284.004C330.085 284.965 329.875 285.721 329.455 286.272C329.044 286.813 328.451 287.084 327.677 287.084ZM327.691 286.146C328.083 286.146 328.386 285.987 328.601 285.67C328.815 285.353 328.923 284.797 328.923 284.004C328.923 283.313 328.815 282.791 328.601 282.436C328.386 282.072 328.078 281.89 327.677 281.89C327.303 281.89 327.005 282.049 326.781 282.366C326.566 282.674 326.459 283.22 326.459 284.004C326.459 284.704 326.566 285.236 326.781 285.6C326.995 285.964 327.299 286.146 327.691 286.146Z" fill="white"/>
<rect x="175" y="308" width="20" height="20" fill="#8E5BCF"/>
<path d="M207.536 323.112C206.967 323.112 206.426 323.098 205.912 323.07C205.408 323.042 205.007 323.009 204.708 322.972V313.228C205.035 313.191 205.441 313.158 205.926 313.13C206.412 313.102 206.967 313.088 207.592 313.088C208.787 313.088 209.706 313.317 210.35 313.774C210.994 314.222 211.316 314.833 211.316 315.608C211.316 316.121 211.176 316.56 210.896 316.924C210.626 317.279 210.229 317.573 209.706 317.806C210.341 318.03 210.822 318.343 211.148 318.744C211.475 319.136 211.638 319.621 211.638 320.2C211.638 321.087 211.288 321.796 210.588 322.328C209.888 322.851 208.871 323.112 207.536 323.112ZM206.038 317.428H207.578C208.316 317.428 208.899 317.274 209.328 316.966C209.767 316.658 209.986 316.261 209.986 315.776C209.986 315.253 209.772 314.857 209.342 314.586C208.913 314.306 208.325 314.166 207.578 314.166C207.27 314.166 206.99 314.175 206.738 314.194C206.486 314.203 206.253 314.217 206.038 314.236V317.428ZM207.634 322.006C208.465 322.006 209.114 321.857 209.58 321.558C210.047 321.259 210.28 320.825 210.28 320.256C210.28 319.696 210.052 319.257 209.594 318.94C209.137 318.623 208.484 318.464 207.634 318.464H206.038V321.922C206.533 321.978 207.065 322.006 207.634 322.006ZM215.767 323.168C215.347 323.168 214.95 323.079 214.577 322.902C214.203 322.725 213.9 322.44 213.667 322.048C213.433 321.647 213.317 321.115 213.317 320.452V315.72H214.577V320.284C214.577 320.853 214.698 321.292 214.941 321.6C215.183 321.899 215.538 322.048 216.005 322.048C216.387 322.048 216.756 321.973 217.111 321.824C217.475 321.665 217.797 321.455 218.077 321.194V315.72H219.337V321.11C219.337 321.511 219.421 321.777 219.589 321.908C219.766 322.029 219.957 322.09 220.163 322.09L219.897 323.07C219.029 323.07 218.492 322.725 218.287 322.034C217.96 322.37 217.582 322.645 217.153 322.86C216.723 323.065 216.261 323.168 215.767 323.168ZM221.836 323V315.72H223.054V317.302C223.175 316.994 223.338 316.709 223.544 316.448C223.749 316.177 224.006 315.963 224.314 315.804C224.622 315.636 224.981 315.552 225.392 315.552C225.532 315.552 225.672 315.561 225.812 315.58C225.952 315.589 226.068 315.608 226.162 315.636L225.784 316.938C225.606 316.863 225.396 316.826 225.154 316.826C224.808 316.826 224.477 316.924 224.16 317.12C223.852 317.316 223.595 317.619 223.39 318.03C223.194 318.441 223.096 318.963 223.096 319.598V323H221.836ZM227.428 323V315.72H228.646V316.938C228.907 316.546 229.238 316.219 229.64 315.958C230.05 315.687 230.536 315.552 231.096 315.552C231.917 315.552 232.528 315.799 232.93 316.294C233.34 316.789 233.546 317.442 233.546 318.254V323H232.286V318.394C232.286 317.871 232.16 317.451 231.908 317.134C231.665 316.817 231.324 316.658 230.886 316.658C230.456 316.658 230.05 316.812 229.668 317.12C229.285 317.419 228.958 317.773 228.688 318.184V323H227.428ZM240.05 323V313.2H241.912L244.628 319.402L247.302 313.2H249.206V323H247.876V314.894L245.258 320.788H243.942L241.31 314.894V323H240.05ZM254.498 323.168C253.452 323.168 252.622 322.837 252.006 322.174C251.399 321.502 251.096 320.564 251.096 319.36C251.096 318.632 251.231 317.983 251.502 317.414C251.782 316.835 252.169 316.383 252.664 316.056C253.158 315.72 253.732 315.552 254.386 315.552C255.086 315.552 255.664 315.706 256.122 316.014C256.588 316.313 256.938 316.719 257.172 317.232C257.405 317.745 257.522 318.31 257.522 318.926C257.522 319.253 257.508 319.57 257.48 319.878H252.384C252.468 320.559 252.706 321.091 253.098 321.474C253.49 321.857 254.008 322.048 254.652 322.048C255.072 322.048 255.45 322.006 255.786 321.922C256.122 321.829 256.444 321.712 256.752 321.572L257.046 322.65C256.71 322.799 256.332 322.921 255.912 323.014C255.492 323.117 255.02 323.168 254.498 323.168ZM252.37 318.856H256.36C256.36 318.147 256.182 317.601 255.828 317.218C255.473 316.835 254.983 316.644 254.358 316.644C253.816 316.644 253.368 316.835 253.014 317.218C252.659 317.591 252.444 318.137 252.37 318.856ZM259.201 323V315.72H260.419V316.938C260.68 316.546 261.012 316.219 261.413 315.958C261.814 315.687 262.272 315.552 262.785 315.552C263.364 315.552 263.835 315.692 264.199 315.972C264.572 316.252 264.834 316.625 264.983 317.092C265.272 316.663 265.613 316.299 266.005 316C266.406 315.701 266.901 315.552 267.489 315.552C268.282 315.552 268.87 315.804 269.253 316.308C269.645 316.803 269.841 317.451 269.841 318.254V323H268.581V318.352C268.581 317.848 268.464 317.442 268.231 317.134C267.998 316.817 267.676 316.658 267.265 316.658C266.845 316.658 266.453 316.817 266.089 317.134C265.734 317.442 265.422 317.806 265.151 318.226V323H263.891V318.352C263.891 317.848 263.774 317.442 263.541 317.134C263.308 316.817 262.986 316.658 262.575 316.658C262.164 316.658 261.777 316.812 261.413 317.12C261.049 317.419 260.732 317.773 260.461 318.184V323H259.201ZM274.924 323.168C273.878 323.168 273.048 322.837 272.432 322.174C271.825 321.502 271.522 320.564 271.522 319.36C271.522 318.632 271.657 317.983 271.928 317.414C272.208 316.835 272.595 316.383 273.09 316.056C273.584 315.72 274.158 315.552 274.812 315.552C275.512 315.552 276.09 315.706 276.548 316.014C277.014 316.313 277.364 316.719 277.598 317.232C277.831 317.745 277.948 318.31 277.948 318.926C277.948 319.253 277.934 319.57 277.906 319.878H272.81C272.894 320.559 273.132 321.091 273.524 321.474C273.916 321.857 274.434 322.048 275.078 322.048C275.498 322.048 275.876 322.006 276.212 321.922C276.548 321.829 276.87 321.712 277.178 321.572L277.472 322.65C277.136 322.799 276.758 322.921 276.338 323.014C275.918 323.117 275.446 323.168 274.924 323.168ZM272.796 318.856H276.786C276.786 318.147 276.608 317.601 276.254 317.218C275.899 316.835 275.409 316.644 274.784 316.644C274.242 316.644 273.794 316.835 273.44 317.218C273.085 317.591 272.87 318.137 272.796 318.856ZM290.698 323.14L289.606 320.34H285.07L283.978 323.112L282.844 322.65L286.68 313.2H288.136L291.916 322.65L290.698 323.14ZM285.49 319.22H289.172L287.338 314.516L285.49 319.22ZM293.176 323V315.72H294.436V323H293.176ZM293.806 314.474C293.563 314.474 293.353 314.385 293.176 314.208C293.008 314.031 292.924 313.825 292.924 313.592C292.924 313.321 293.003 313.107 293.162 312.948C293.32 312.789 293.535 312.71 293.806 312.71C294.048 312.71 294.254 312.799 294.422 312.976C294.599 313.144 294.688 313.349 294.688 313.592C294.688 313.853 294.608 314.068 294.45 314.236C294.291 314.395 294.076 314.474 293.806 314.474ZM296.676 323V315.72H297.894V317.302C298.015 316.994 298.178 316.709 298.384 316.448C298.589 316.177 298.846 315.963 299.154 315.804C299.462 315.636 299.821 315.552 300.232 315.552C300.372 315.552 300.512 315.561 300.652 315.58C300.792 315.589 300.908 315.608 301.002 315.636L300.624 316.938C300.446 316.863 300.236 316.826 299.994 316.826C299.648 316.826 299.317 316.924 299 317.12C298.692 317.316 298.435 317.619 298.23 318.03C298.034 318.441 297.936 318.963 297.936 319.598V323H296.676ZM304.602 323.168C304.004 323.168 303.458 323.014 302.964 322.706C302.469 322.398 302.077 321.964 301.788 321.404C301.498 320.835 301.354 320.167 301.354 319.402C301.354 318.665 301.498 318.007 301.788 317.428C302.086 316.849 302.478 316.392 302.964 316.056C303.458 315.72 304 315.552 304.588 315.552C305.073 315.552 305.488 315.65 305.834 315.846C306.188 316.042 306.464 316.243 306.66 316.448V312.64H307.92V321.236C307.92 321.591 308.004 321.824 308.172 321.936C308.349 322.039 308.54 322.09 308.746 322.09L308.48 323.07C307.593 323.07 307.052 322.715 306.856 322.006C306.65 322.295 306.361 322.561 305.988 322.804C305.624 323.047 305.162 323.168 304.602 323.168ZM304.882 322.048C305.227 322.048 305.554 321.969 305.862 321.81C306.179 321.642 306.445 321.427 306.66 321.166V317.554C306.482 317.33 306.235 317.125 305.918 316.938C305.6 316.742 305.25 316.644 304.868 316.644C304.42 316.644 304.028 316.765 303.692 317.008C303.356 317.251 303.094 317.577 302.908 317.988C302.73 318.389 302.642 318.847 302.642 319.36C302.642 319.873 302.74 320.335 302.936 320.746C303.132 321.147 303.398 321.465 303.734 321.698C304.079 321.931 304.462 322.048 304.882 322.048ZM310.43 323V315.72H311.648V317.302C311.769 316.994 311.932 316.709 312.138 316.448C312.343 316.177 312.6 315.963 312.908 315.804C313.216 315.636 313.575 315.552 313.986 315.552C314.126 315.552 314.266 315.561 314.406 315.58C314.546 315.589 314.662 315.608 314.756 315.636L314.378 316.938C314.2 316.863 313.99 316.826 313.748 316.826C313.402 316.826 313.071 316.924 312.754 317.12C312.446 317.316 312.189 317.619 311.984 318.03C311.788 318.441 311.69 318.963 311.69 319.598V323H310.43ZM318.664 323.168C317.973 323.168 317.352 323.009 316.802 322.692C316.251 322.365 315.817 321.917 315.5 321.348C315.192 320.769 315.038 320.107 315.038 319.36C315.038 318.576 315.196 317.899 315.514 317.33C315.831 316.761 316.265 316.322 316.816 316.014C317.366 315.706 317.982 315.552 318.664 315.552C319.345 315.552 319.956 315.706 320.498 316.014C321.048 316.322 321.482 316.761 321.8 317.33C322.126 317.89 322.29 318.557 322.29 319.332C322.29 320.107 322.131 320.783 321.814 321.362C321.496 321.931 321.062 322.375 320.512 322.692C319.97 323.009 319.354 323.168 318.664 323.168ZM318.664 322.048C319.401 322.048 319.975 321.801 320.386 321.306C320.796 320.802 321.002 320.153 321.002 319.36C321.002 318.875 320.899 318.431 320.694 318.03C320.488 317.619 320.208 317.293 319.854 317.05C319.508 316.798 319.112 316.672 318.664 316.672C317.926 316.672 317.352 316.915 316.942 317.4C316.531 317.885 316.326 318.529 316.326 319.332C316.326 319.817 316.428 320.27 316.634 320.69C316.839 321.101 317.114 321.432 317.46 321.684C317.814 321.927 318.216 322.048 318.664 322.048ZM323.957 326.08V317.582C323.957 317.265 323.878 317.041 323.719 316.91C323.57 316.77 323.374 316.7 323.131 316.7L323.397 315.72C324.256 315.72 324.793 316.061 325.007 316.742C325.101 316.602 325.25 316.439 325.455 316.252C325.67 316.065 325.931 315.902 326.239 315.762C326.557 315.622 326.916 315.552 327.317 315.552C327.877 315.552 328.4 315.701 328.885 316C329.38 316.289 329.777 316.714 330.075 317.274C330.374 317.825 330.523 318.497 330.523 319.29C330.523 320.065 330.374 320.746 330.075 321.334C329.777 321.913 329.385 322.365 328.899 322.692C328.423 323.009 327.905 323.168 327.345 323.168C326.916 323.168 326.515 323.084 326.141 322.916C325.768 322.739 325.46 322.538 325.217 322.314V326.08H323.957ZM327.093 322.048C327.728 322.048 328.241 321.801 328.633 321.306C329.035 320.802 329.235 320.144 329.235 319.332C329.235 318.772 329.133 318.291 328.927 317.89C328.731 317.489 328.465 317.181 328.129 316.966C327.803 316.751 327.439 316.644 327.037 316.644C326.636 316.644 326.272 316.747 325.945 316.952C325.628 317.148 325.385 317.363 325.217 317.596V321.18C325.46 321.432 325.74 321.642 326.057 321.81C326.375 321.969 326.72 322.048 327.093 322.048ZM333.257 317.428C333.005 317.428 332.786 317.335 332.599 317.148C332.413 316.961 332.319 316.742 332.319 316.49C332.319 316.201 332.403 315.972 332.571 315.804C332.739 315.636 332.968 315.552 333.257 315.552C333.5 315.552 333.715 315.645 333.901 315.832C334.097 316.019 334.195 316.238 334.195 316.49C334.195 316.77 334.107 316.999 333.929 317.176C333.752 317.344 333.528 317.428 333.257 317.428ZM333.257 323.168C333.005 323.168 332.786 323.075 332.599 322.888C332.413 322.701 332.319 322.482 332.319 322.23C332.319 321.941 332.403 321.712 332.571 321.544C332.739 321.376 332.968 321.292 333.257 321.292C333.5 321.292 333.715 321.385 333.901 321.572C334.097 321.759 334.195 321.978 334.195 322.23C334.195 322.51 334.107 322.739 333.929 322.916C333.752 323.084 333.528 323.168 333.257 323.168ZM340.784 323C340.756 322.832 340.742 322.659 340.742 322.482C340.742 321.875 340.844 321.334 341.05 320.858C341.264 320.373 341.54 319.934 341.876 319.542C342.212 319.141 342.566 318.772 342.94 318.436C343.322 318.091 343.677 317.764 344.004 317.456C344.34 317.139 344.615 316.821 344.83 316.504C345.044 316.187 345.152 315.855 345.152 315.51C345.152 315.118 345.007 314.796 344.718 314.544C344.428 314.283 344.055 314.152 343.598 314.152C343.206 314.152 342.846 314.231 342.52 314.39C342.202 314.539 341.904 314.745 341.624 315.006L340.924 314.152C341.297 313.816 341.708 313.545 342.156 313.34C342.613 313.135 343.14 313.032 343.738 313.032C344.288 313.032 344.769 313.139 345.18 313.354C345.59 313.559 345.908 313.844 346.132 314.208C346.365 314.572 346.482 314.978 346.482 315.426C346.482 315.874 346.384 316.289 346.188 316.672C345.992 317.055 345.74 317.414 345.432 317.75C345.124 318.086 344.792 318.413 344.438 318.73C344.083 319.038 343.742 319.355 343.416 319.682C343.089 320.009 342.809 320.349 342.576 320.704C342.352 321.059 342.212 321.441 342.156 321.852H346.468V323H340.784ZM351.572 323.56L350.732 323.028L356.85 312.64L357.69 313.172L351.572 323.56ZM350.858 319.22C350.084 319.22 349.491 318.949 349.08 318.408C348.679 317.867 348.478 317.111 348.478 316.14C348.478 315.169 348.684 314.423 349.094 313.9C349.514 313.368 350.107 313.102 350.872 313.102C351.647 313.102 352.24 313.368 352.65 313.9C353.061 314.423 353.266 315.169 353.266 316.14C353.266 317.101 353.056 317.857 352.636 318.408C352.226 318.949 351.633 319.22 350.858 319.22ZM350.872 318.282C351.264 318.282 351.568 318.123 351.782 317.806C351.997 317.489 352.104 316.933 352.104 316.14C352.104 315.449 351.997 314.927 351.782 314.572C351.568 314.208 351.26 314.026 350.858 314.026C350.485 314.026 350.186 314.185 349.962 314.502C349.748 314.81 349.64 315.356 349.64 316.14C349.64 316.84 349.748 317.372 349.962 317.736C350.177 318.1 350.48 318.282 350.872 318.282ZM357.606 323.084C356.832 323.084 356.239 322.813 355.828 322.272C355.427 321.731 355.226 320.975 355.226 320.004C355.226 319.033 355.432 318.287 355.842 317.764C356.262 317.232 356.855 316.966 357.62 316.966C358.395 316.966 358.988 317.232 359.398 317.764C359.809 318.287 360.014 319.033 360.014 320.004C360.014 320.965 359.804 321.721 359.384 322.272C358.974 322.813 358.381 323.084 357.606 323.084ZM357.62 322.146C358.012 322.146 358.316 321.987 358.53 321.67C358.745 321.353 358.852 320.797 358.852 320.004C358.852 319.313 358.745 318.791 358.53 318.436C358.316 318.072 358.008 317.89 357.606 317.89C357.233 317.89 356.934 318.049 356.71 318.366C356.496 318.674 356.388 319.22 356.388 320.004C356.388 320.704 356.496 321.236 356.71 321.6C356.925 321.964 357.228 322.146 357.62 322.146Z" fill="white"/>
<defs>
<linearGradient id="paint0_linear_210_444" x1="69.7688" y1="53.6087" x2="69.7688" y2="125.253" gradientUnits="userSpaceOnUse">
<stop stop-color="#011337"/>
<stop offset="0.1" stop-color="#012042"/>
<stop offset="0.3" stop-color="#034561"/>
<stop offset="0.57" stop-color="#058092"/>
<stop offset="0.9" stop-color="#08D0D6"/>
<stop offset="1" stop-color="#0AEBED"/>
</linearGradient>
<linearGradient id="paint1_linear_210_444" x1="157.082" y1="-2.88674" x2="157.082" y2="16.8271" gradientUnits="userSpaceOnUse">
<stop stop-color="#011337"/>
<stop offset="0.1" stop-color="#012042"/>
<stop offset="0.3" stop-color="#034561"/>
<stop offset="0.57" stop-color="#058092"/>
<stop offset="0.9" stop-color="#08D0D6"/>
<stop offset="1" stop-color="#0AEBED"/>
</linearGradient>
<linearGradient id="paint2_linear_210_444" x1="297.436" y1="37.881" x2="261.379" y2="159.033" gradientUnits="userSpaceOnUse">
<stop stop-color="#011337"/>
<stop offset="0.1" stop-color="#012042"/>
<stop offset="0.3" stop-color="#034561"/>
<stop offset="0.57" stop-color="#058092"/>
<stop offset="0.9" stop-color="#08D0D6"/>
<stop offset="1" stop-color="#0AEBED"/>
</linearGradient>
<linearGradient id="paint3_linear_210_444" x1="227.351" y1="217.46" x2="227.351" y2="252.888" gradientUnits="userSpaceOnUse">
<stop stop-color="#011337"/>
<stop offset="0.1" stop-color="#012042"/>
<stop offset="0.3" stop-color="#034561"/>
<stop offset="0.57" stop-color="#058092"/>
<stop offset="0.9" stop-color="#08D0D6"/>
<stop offset="1" stop-color="#0AEBED"/>
</linearGradient>
<linearGradient id="paint4_linear_210_444" x1="182.336" y1="12.6866" x2="182.336" y2="237.8" gradientUnits="userSpaceOnUse">
<stop stop-color="#011337"/>
<stop offset="0.1" stop-color="#012042"/>
<stop offset="0.3" stop-color="#034561"/>
<stop offset="0.57" stop-color="#058092"/>
<stop offset="0.9" stop-color="#08D0D6"/>
<stop offset="1" stop-color="#0AEBED"/>
</linearGradient>
<linearGradient id="paint5_linear_210_444" x1="182.336" y1="21.5534" x2="182.336" y2="228.953" gradientUnits="userSpaceOnUse">
<stop stop-color="#4CFFD5"/>
<stop offset="0.52" stop-color="#27F4E2"/>
<stop offset="1" stop-color="#0AEBED"/>
</linearGradient>
<linearGradient id="paint6_linear_210_444" x1="182.344" y1="37.0146" x2="178.999" y2="165.826" gradientUnits="userSpaceOnUse">
<stop stop-color="#FC574C"/>
<stop offset="1" stop-color="#E7483D" stop-opacity="0.2"/>
</linearGradient>
<linearGradient id="paint7_linear_210_444" x1="182.344" y1="37.0146" x2="178.999" y2="165.826" gradientUnits="userSpaceOnUse">
<stop stop-color="#AA72F1"/>
<stop offset="1" stop-color="#8E5BCF" stop-opacity="0.2"/>
</linearGradient>
<linearGradient id="paint8_linear_210_444" x1="243.893" y1="63.1882" x2="158.751" y2="146.665" gradientUnits="userSpaceOnUse">
<stop stop-color="#EDC34C"/>
<stop offset="1" stop-color="#EDC34C" stop-opacity="0.2"/>
</linearGradient>
<linearGradient id="paint9_linear_210_444" x1="182.344" y1="37.0146" x2="182.344" y2="213.946" gradientUnits="userSpaceOnUse">
<stop stop-color="#3BBAC0"/>
<stop offset="1" stop-color="#3BBAC0" stop-opacity="0"/>
</linearGradient>
<linearGradient id="paint10_linear_210_444" x1="182.336" y1="113.074" x2="182.336" y2="137.433" gradientUnits="userSpaceOnUse">
<stop stop-color="#011337"/>
<stop offset="0.1" stop-color="#012042"/>
<stop offset="0.3" stop-color="#034561"/>
<stop offset="0.57" stop-color="#058092"/>
<stop offset="0.9" stop-color="#08D0D6"/>
<stop offset="1" stop-color="#0AEBED"/>
</linearGradient>
<linearGradient id="paint11_linear_210_444" x1="182.337" y1="100.066" x2="182.337" y2="150.441" gradientUnits="userSpaceOnUse">
<stop stop-color="#011337"/>
<stop offset="0.1" stop-color="#012042"/>
<stop offset="0.3" stop-color="#034561"/>
<stop offset="0.57" stop-color="#058092"/>
<stop offset="0.9" stop-color="#08D0D6"/>
<stop offset="1" stop-color="#0AEBED"/>
</linearGradient>
<clipPath id="clip0_210_444">
<rect width="250" height="248" fill="white" transform="translate(55.5)"/>
</clipPath>
</defs>
</svg>
