<svg width="48" height="48" viewBox="0 0 48 48" fill="none" xmlns="http://www.w3.org/2000/svg">
<g clip-path="url(#clip0_101_807)">
<path d="M24 48C37.2548 48 48 37.2548 48 24C48 10.7452 37.2548 0 24 0C10.7452 0 0 10.7452 0 24C0 37.2548 10.7452 48 24 48Z" fill="#4793FF"/>
<path d="M24 0C37.2337 0 48 10.7663 48 24C48 37.2337 37.2337 48 24 48V0Z" fill="#5E69E2"/>
<path d="M24 41.9751C33.9273 41.9751 41.975 33.9274 41.975 24.0001C41.975 14.0728 33.9273 6.02515 24 6.02515C14.0727 6.02515 6.02503 14.0728 6.02503 24.0001C6.02503 33.9274 14.0727 41.9751 24 41.9751Z" fill="#2EBEEF"/>
<path d="M24 6.02515C33.9114 6.02515 41.975 14.0887 41.975 24.0001C41.975 33.9116 33.9114 41.9751 24 41.9751V6.02515Z" fill="#4793FF"/>
<path d="M22.8299 11.9231L15.2987 23.22C14.9838 23.6923 14.9838 24.3077 15.2987 24.78L22.8299 36.0769C23.3865 36.9119 24.6134 36.9119 25.1701 36.0769L32.7013 24.78C33.0162 24.3077 33.0162 23.6923 32.7013 23.22L25.1701 11.9231C24.6134 11.0881 23.3866 11.0881 22.8299 11.9231Z" fill="#76E5F6"/>
<path d="M24 25.8163V36.7031C24.4459 36.7031 24.8917 36.4944 25.1701 36.0769L32.7013 24.78C32.8477 24.5604 32.9252 24.3099 32.9354 24.0571L24.2757 25.7891C24.1848 25.8073 24.0923 25.8163 24 25.8163Z" fill="#2EBEEF"/>
<path d="M24.0001 11.2969C23.5543 11.2969 23.1084 11.5056 22.83 11.923L15.2988 23.2199C15.1304 23.4727 15.0529 23.7663 15.0647 24.0572L23.7243 25.7891C23.8154 25.8073 23.9078 25.8164 24.0001 25.8164V11.2969Z" fill="#C2F4FB"/>
</g>
<defs>
<clipPath id="clip0_101_807">
<rect width="48" height="48" fill="white"/>
</clipPath>
</defs>
</svg>
