<svg width="16" height="16" viewBox="0 0 16 16" fill="none" xmlns="http://www.w3.org/2000/svg">
<path d="M14 1.33325H10C9.82319 1.33325 9.65362 1.40349 9.5286 1.52851C9.40357 1.65354 9.33334 1.82311 9.33334 1.99992C9.33334 2.17673 9.40357 2.3463 9.5286 2.47132C9.65362 2.59635 9.82319 2.66659 10 2.66659H12.3907L6.862 8.19525C6.79833 8.25675 6.74754 8.33031 6.7126 8.41165C6.67766 8.49299 6.65927 8.58047 6.6585 8.66898C6.65773 8.7575 6.6746 8.84529 6.70812 8.92722C6.74164 9.00915 6.79115 9.08359 6.85374 9.14618C6.91634 9.20878 6.99077 9.25828 7.0727 9.2918C7.15463 9.32532 7.24242 9.34219 7.33094 9.34142C7.41946 9.34065 7.50694 9.32226 7.58827 9.28732C7.66961 9.25238 7.74317 9.20159 7.80467 9.13792L13.3333 3.60925V5.99992C13.3333 6.17673 13.4036 6.3463 13.5286 6.47132C13.6536 6.59635 13.8232 6.66659 14 6.66659C14.1768 6.66659 14.3464 6.59635 14.4714 6.47132C14.5964 6.3463 14.6667 6.17673 14.6667 5.99992V1.99992C14.6667 1.82311 14.5964 1.65354 14.4714 1.52851C14.3464 1.40349 14.1768 1.33325 14 1.33325Z" fill="#E6368C"/>
<path d="M12.6667 7.05875C12.4899 7.05875 12.3203 7.12899 12.1953 7.25401C12.0702 7.37903 12 7.5486 12 7.72542V12.5007C11.9998 12.7215 11.912 12.9332 11.7559 13.0893C11.5998 13.2455 11.3881 13.3332 11.1673 13.3334H3.49934C3.27855 13.3332 3.06686 13.2455 2.91075 13.0893C2.75463 12.9332 2.66685 12.7215 2.66667 12.5007V4.83275C2.66685 4.61197 2.75463 4.40028 2.91075 4.24416C3.06686 4.08804 3.27855 4.00026 3.49934 4.00008H7.64734C7.82415 4.00008 7.99372 3.92984 8.11874 3.80482C8.24376 3.67979 8.314 3.51023 8.314 3.33341C8.314 3.1566 8.24376 2.98703 8.11874 2.86201C7.99372 2.73699 7.82415 2.66675 7.64734 2.66675H3.49934C2.92509 2.66745 2.37457 2.89588 1.96852 3.30193C1.56247 3.70799 1.33404 4.25851 1.33334 4.83275V12.4994C1.33369 13.0739 1.56196 13.6248 1.96805 14.0311C2.37414 14.4374 2.92486 14.666 3.49934 14.6667H11.166C11.7405 14.6664 12.2913 14.4381 12.6977 14.032C13.104 13.6259 13.3326 13.0752 13.3333 12.5007V7.72542C13.3333 7.5486 13.2631 7.37903 13.1381 7.25401C13.0131 7.12899 12.8435 7.05875 12.6667 7.05875Z" fill="#E6368C"/>
</svg>
