<svg width="40" height="40" viewBox="0 0 40 40" fill="none" xmlns="http://www.w3.org/2000/svg">
<g clip-path="url(#clip0_646_4868)">
<g filter="url(#filter0_d_646_4868)">
<mask id="mask0_646_4868" style="mask-type:luminance" maskUnits="userSpaceOnUse" x="4" y="4" width="32" height="32">
<path d="M20.004 35.2085C28.4011 35.2085 35.2083 28.4013 35.2083 20.0043C35.2083 11.6072 28.4011 4.80005 20.004 4.80005C11.607 4.80005 4.7998 11.6072 4.7998 20.0043C4.7998 28.4013 11.607 35.2085 20.004 35.2085Z" fill="white"/>
</mask>
<g mask="url(#mask0_646_4868)">
<circle cx="19.9998" cy="20" r="15.2" fill="url(#paint0_linear_646_4868)"/>
<g filter="url(#filter1_f_646_4868)">
<circle cx="20" cy="20" r="14.25" fill="#100A5C" fill-opacity="0.5"/>
</g>
</g>
</g>
<path d="M20.8354 23.1918H20.2176C19.4152 23.1918 18.7524 22.55 18.7073 21.7294L18.2688 13.749C18.1958 12.4208 19.2277 11.3027 20.5265 11.3027C21.8253 11.3027 22.8572 12.4208 22.7842 13.749L22.3457 21.7294C22.3006 22.55 21.6378 23.1918 20.8354 23.1918Z" fill="#F1F1F4"/>
<path d="M21.0171 28.8293H20.0369C19.4006 28.8293 18.8848 28.301 18.8848 27.6493V26.8407C18.8848 26.189 19.4006 25.6606 20.0369 25.6606H21.0171C21.6533 25.6606 22.1692 26.189 22.1692 26.8407V27.6493C22.1692 28.301 21.6533 28.8293 21.0171 28.8293Z" fill="#F1F1F4"/>
<circle cx="20" cy="20" r="19.5" stroke="url(#paint1_linear_646_4868)" stroke-dasharray="2 2"/>
</g>
<defs>
<filter id="filter0_d_646_4868" x="-5.2002" y="-5.19995" width="50.3999" height="50.4" filterUnits="userSpaceOnUse" color-interpolation-filters="sRGB">
<feFlood flood-opacity="0" result="BackgroundImageFix"/>
<feColorMatrix in="SourceAlpha" type="matrix" values="0 0 0 0 0 0 0 0 0 0 0 0 0 0 0 0 0 0 127 0" result="hardAlpha"/>
<feOffset/>
<feGaussianBlur stdDeviation="5"/>
<feComposite in2="hardAlpha" operator="out"/>
<feColorMatrix type="matrix" values="0 0 0 0 0.508333 0 0 0 0 0.646 0 0 0 0 1 0 0 0 0.5 0"/>
<feBlend mode="normal" in2="BackgroundImageFix" result="effect1_dropShadow_646_4868"/>
<feBlend mode="normal" in="SourceGraphic" in2="effect1_dropShadow_646_4868" result="shape"/>
</filter>
<filter id="filter1_f_646_4868" x="-4.25" y="-4.25" width="48.5" height="48.5" filterUnits="userSpaceOnUse" color-interpolation-filters="sRGB">
<feFlood flood-opacity="0" result="BackgroundImageFix"/>
<feBlend mode="normal" in="SourceGraphic" in2="BackgroundImageFix" result="shape"/>
<feGaussianBlur stdDeviation="5" result="effect1_foregroundBlur_646_4868"/>
</filter>
<linearGradient id="paint0_linear_646_4868" x1="4.79981" y1="5.85286" x2="40.5461" y2="15.6065" gradientUnits="userSpaceOnUse">
<stop stop-color="#9C55FB"/>
<stop offset="1" stop-color="#4A9DFB"/>
</linearGradient>
<linearGradient id="paint1_linear_646_4868" x1="1" y1="2.31602" x2="45.6828" y2="14.5081" gradientUnits="userSpaceOnUse">
<stop stop-color="#9C55FB"/>
<stop offset="1" stop-color="#4A9DFB"/>
</linearGradient>
<clipPath id="clip0_646_4868">
<rect width="40" height="40" rx="20" fill="white"/>
</clipPath>
</defs>
</svg>
