<svg width="48" height="48" viewBox="0 0 48 48" fill="none" xmlns="http://www.w3.org/2000/svg">
<g clip-path="url(#clip0_84_128)">
<path d="M42.3079 44.0115H5.6921C3.7406 44.0115 2.15857 42.4295 2.15857 40.478V9.98861C2.15857 8.03711 3.7406 6.45508 5.6921 6.45508H42.3079C44.2594 6.45508 45.8414 8.03711 45.8414 9.98861V40.478C45.8414 42.4295 44.2594 44.0115 42.3079 44.0115Z" fill="url(#paint0_linear_84_128)"/>
<path d="M41.4913 43.174H6.50866C4.64416 43.174 3.13263 41.6624 3.13263 39.7979V10.6685C3.13263 8.80401 4.64407 7.29248 6.50866 7.29248H41.4912C43.3557 7.29248 44.8672 8.80392 44.8672 10.6685V39.798C44.8673 41.6625 43.3558 43.174 41.4913 43.174Z" fill="url(#paint1_linear_84_128)"/>
<path d="M43.4739 16.3172L34.6665 1.06262C34.0799 0.0464619 32.7804 -0.301726 31.7643 0.285056L3.99573 16.3172H43.4739Z" fill="url(#paint2_linear_84_128)"/>
<path d="M2.15857 28.5946H45.8414V17.0247C45.8414 15.5644 44.6576 14.3806 43.1973 14.3806H4.80269C3.34235 14.3806 2.15857 15.5644 2.15857 17.0247V28.5946Z" fill="url(#paint3_linear_84_128)"/>
<path d="M2.15857 24.2433V40.478C2.15857 42.4295 3.7406 44.0116 5.69219 44.0116H42.3079C44.2594 44.0116 45.8414 42.4296 45.8414 40.4781V24.2433C45.8414 23.0379 44.8642 22.0608 43.6589 22.0608H4.34107C3.13573 22.0608 2.15857 23.0379 2.15857 24.2433Z" fill="url(#paint4_linear_84_128)"/>
<path d="M39.2512 15.8696V44.0116H42.3079C44.2594 44.0116 45.8414 42.4296 45.8414 40.4781V22.4599L39.2512 15.8696Z" fill="url(#paint5_linear_84_128)"/>
<path d="M36.2716 47.9734L5.60716 44.412C3.64141 44.1837 2.15857 42.5188 2.15857 40.5398V9.7251C2.15857 10.3873 2.65479 10.9444 3.31244 11.0208L37.1709 14.9533C39.1367 15.1816 40.6195 16.8465 40.6195 18.8255V44.1013C40.6195 46.4324 38.5871 48.2425 36.2716 47.9734Z" fill="url(#paint6_linear_84_128)"/>
<path d="M36.2716 41.8184L5.60716 38.257C3.64141 38.0286 2.15857 36.3637 2.15857 34.3848V40.5398C2.15857 42.5188 3.64141 44.1838 5.60716 44.4121L36.2716 47.9735C38.5871 48.2424 40.6196 46.4324 40.6196 44.1012V37.9461C40.6195 40.2773 38.5871 42.0873 36.2716 41.8184Z" fill="url(#paint7_linear_84_128)"/>
<path d="M4.90781 14.528C4.88212 14.528 4.85606 14.5265 4.8299 14.5237L3.42665 14.3694C3.03909 14.3267 2.75943 13.9782 2.80209 13.5907C2.84475 13.2032 3.19359 12.9239 3.58078 12.9661L4.98403 13.1205C5.37159 13.1631 5.65125 13.5117 5.60859 13.8991C5.56884 14.2606 5.26303 14.528 4.90781 14.528Z" fill="url(#paint8_linear_84_128)"/>
<path d="M33.742 45.6479C33.7124 45.6479 33.6822 45.646 33.652 45.6422L30.9248 45.2954C30.5381 45.2463 30.2644 44.8929 30.3136 44.506C30.3628 44.1194 30.7162 43.8473 31.103 43.8949L33.8303 44.2417C34.2169 44.2908 34.4907 44.6442 34.4414 45.031C34.3959 45.3875 34.0922 45.6479 33.742 45.6479ZM36.4265 45.2985C36.1617 45.2985 35.9078 45.1488 35.7875 44.8932C35.6213 44.5406 35.7725 44.12 36.1252 43.954C36.8413 43.6165 37.3799 43.0568 37.6029 42.4181C37.7315 42.0503 38.1342 41.8562 38.5021 41.9845C38.8701 42.113 39.0643 42.5155 38.9358 42.8836C38.5836 43.8922 37.7992 44.7259 36.7269 45.231C36.6296 45.2768 36.5274 45.2985 36.4265 45.2985ZM28.2876 44.9544C28.2579 44.9544 28.2278 44.9524 28.1976 44.9486L25.4703 44.6019C25.0837 44.5527 24.8098 44.1993 24.8591 43.8125C24.9084 43.4259 25.2617 43.1536 25.6485 43.2013L28.3758 43.5481C28.7624 43.5972 29.0363 43.9507 28.9869 44.3375C28.9415 44.6938 28.6375 44.9544 28.2876 44.9544ZM22.8331 44.2607C22.8035 44.2607 22.7734 44.2587 22.7431 44.255L20.0158 43.9082C19.6292 43.8591 19.3554 43.5056 19.4047 43.1188C19.4539 42.7322 19.8073 42.4586 20.194 42.5077L22.9213 42.8545C23.3079 42.9036 23.5818 43.257 23.5325 43.6438C23.487 44.0002 23.1831 44.2607 22.8331 44.2607ZM17.3784 43.567C17.3488 43.567 17.3187 43.5651 17.2885 43.5613L14.5611 43.2145C14.1744 43.1652 13.9006 42.8119 13.9499 42.4251C13.9991 42.0384 14.3527 41.7661 14.7393 41.8139L17.4667 42.1608C17.8534 42.21 18.1271 42.5634 18.0778 42.9502C18.0325 43.3067 17.7286 43.567 17.3784 43.567ZM11.924 42.8734C11.8944 42.8734 11.8643 42.8714 11.834 42.8677L9.10661 42.5208C8.71989 42.4716 8.44614 42.1182 8.49545 41.7314C8.54467 41.3447 8.8982 41.0724 9.28482 41.1203L12.0122 41.4671C12.3989 41.5164 12.6727 41.8697 12.6234 42.2565C12.578 42.613 12.2741 42.8734 11.924 42.8734ZM38.4278 40.6257C38.0379 40.6257 37.7219 40.3098 37.7219 39.9199V37.1707C37.7219 36.7808 38.0379 36.4648 38.4278 36.4648C38.8177 36.4648 39.1336 36.7808 39.1336 37.1707V39.9199C39.1337 40.3098 38.8178 40.6257 38.4278 40.6257ZM38.4278 35.1274C38.0379 35.1274 37.7219 34.8115 37.7219 34.4216V31.6723C37.7219 31.2824 38.0379 30.9665 38.4278 30.9665C38.8177 30.9665 39.1336 31.2824 39.1336 31.6723V34.4216C39.1337 34.8114 38.8178 35.1274 38.4278 35.1274ZM38.4278 29.629C38.0379 29.629 37.7219 29.313 37.7219 28.9231V26.1739C37.7219 25.784 38.0379 25.4681 38.4278 25.4681C38.8177 25.4681 39.1336 25.784 39.1336 26.1739V28.9231C39.1337 29.3129 38.8178 29.629 38.4278 29.629ZM38.4278 24.1305C38.0379 24.1305 37.7219 23.8146 37.7219 23.4247V20.6755C37.7219 20.2856 38.0379 19.9696 38.4278 19.9696C38.8177 19.9696 39.1336 20.2856 39.1336 20.6755V23.4247C39.1337 23.8145 38.8178 24.1305 38.4278 24.1305ZM37.4406 18.9138C37.2663 18.9138 37.0916 18.8496 36.9552 18.7203C36.432 18.2246 35.7059 17.9087 34.9104 17.8308L34.8918 17.8288C34.5041 17.7871 34.2237 17.439 34.2655 17.0515C34.3073 16.6638 34.6553 16.3833 35.0429 16.4252L35.0549 16.4265C36.1543 16.5342 37.1764 16.9852 37.9263 17.6955C38.2093 17.9636 38.2213 18.4105 37.9532 18.6935C37.8143 18.8398 37.6276 18.9138 37.4406 18.9138ZM32.2353 17.5325C32.2096 17.5325 32.1835 17.531 32.1574 17.5282L29.4247 17.2277C29.0372 17.1851 28.7574 16.8365 28.8001 16.449C28.8428 16.0616 29.1916 15.7826 29.5788 15.8245L32.3115 16.1249C32.699 16.1676 32.9787 16.5161 32.9361 16.9036C32.8964 17.2649 32.5905 17.5325 32.2353 17.5325ZM26.7699 16.9316C26.7443 16.9316 26.7182 16.9301 26.692 16.9272L23.9592 16.6268C23.5718 16.5841 23.292 16.2356 23.3347 15.8481C23.3772 15.4605 23.7266 15.1813 24.1134 15.2235L26.8462 15.524C27.2336 15.5666 27.5134 15.9152 27.4707 16.3027C27.431 16.6641 27.1252 16.9316 26.7699 16.9316ZM21.3043 16.3307C21.2786 16.3307 21.2526 16.3292 21.2264 16.3264L18.4937 16.0259C18.1062 15.9833 17.8265 15.6347 17.8691 15.2472C17.9117 14.8598 18.2604 14.5806 18.6478 14.6227L21.3805 14.9231C21.768 14.9658 22.0478 15.3144 22.0051 15.7018C21.9654 16.0631 21.6596 16.3307 21.3043 16.3307ZM15.8388 15.7299C15.8131 15.7299 15.787 15.7284 15.7609 15.7256L13.0282 15.4251C12.6406 15.3824 12.3609 15.0339 12.4036 14.6464C12.4462 14.259 12.7944 13.9799 13.1823 14.0218L15.915 14.3223C16.3025 14.365 16.5822 14.7135 16.5396 15.101C16.5 15.4623 16.1941 15.7299 15.8388 15.7299ZM10.3733 15.1289C10.3476 15.1289 10.3215 15.1274 10.2954 15.1246L7.56264 14.8241C7.17517 14.7815 6.89542 14.4329 6.93807 14.0455C6.98073 13.6581 7.32911 13.3791 7.71676 13.4209L10.4495 13.7214C10.837 13.764 11.1167 14.1126 11.074 14.5001C11.0344 14.8614 10.7285 15.1289 10.3733 15.1289Z" fill="url(#paint9_linear_84_128)"/>
<path d="M6.46284 42.1788C6.43321 42.1788 6.40321 42.177 6.37293 42.1731L4.9724 41.9951C4.58568 41.946 4.31184 41.5925 4.36115 41.2058C4.41027 40.8191 4.76371 40.5455 5.15043 40.5946L6.55096 40.7726C6.93768 40.8217 7.21152 41.1751 7.16221 41.5619C7.11684 41.9184 6.8129 42.1788 6.46284 42.1788Z" fill="url(#paint10_linear_84_128)"/>
<path d="M32.397 5.25646L27.8794 7.71477C27.2909 8.03493 26.5543 7.81752 26.234 7.22905C25.9139 6.64058 26.1313 5.90399 26.7198 5.58374L31.2375 3.12552C31.826 2.80537 32.5625 3.02277 32.8828 3.61124C33.203 4.19962 32.9855 4.9363 32.397 5.25646Z" fill="#61DB99"/>
<path d="M40.6196 34.1082L36.1363 29.6249C35.5038 28.9361 34.5961 28.5042 33.5873 28.5042C31.6761 28.5042 30.1268 30.0536 30.1268 31.9646C30.1268 32.9735 30.5588 33.8813 31.2476 34.5137L40.6196 43.8858V34.1082H40.6196Z" fill="url(#paint11_linear_84_128)"/>
<path d="M33.5868 35.4247C35.498 35.4247 37.0473 33.8753 37.0473 31.9642C37.0473 30.053 35.498 28.5037 33.5868 28.5037C31.6757 28.5037 30.1263 30.053 30.1263 31.9642C30.1263 33.8753 31.6757 35.4247 33.5868 35.4247Z" fill="url(#paint12_linear_84_128)"/>
<path d="M33.5869 34.3525C34.9058 34.3525 35.975 33.2833 35.975 31.9644C35.975 30.6454 34.9058 29.5762 33.5869 29.5762C32.2679 29.5762 31.1987 30.6454 31.1987 31.9644C31.1987 33.2833 32.2679 34.3525 33.5869 34.3525Z" fill="url(#paint13_linear_84_128)"/>
<path d="M32.6796 31.5513C32.9525 31.5513 33.1737 31.3301 33.1737 31.0571C33.1737 30.7842 32.9525 30.563 32.6796 30.563C32.4067 30.563 32.1854 30.7842 32.1854 31.0571C32.1854 31.3301 32.4067 31.5513 32.6796 31.5513Z" fill="url(#paint14_linear_84_128)"/>
<path d="M34.4942 31.5513C34.7671 31.5513 34.9883 31.3301 34.9883 31.0571C34.9883 30.7842 34.7671 30.563 34.4942 30.563C34.2212 30.563 34 30.7842 34 31.0571C34 31.3301 34.2212 31.5513 34.4942 31.5513Z" fill="url(#paint15_linear_84_128)"/>
<path d="M32.6796 33.3667C32.9525 33.3667 33.1737 33.1455 33.1737 32.8726C33.1737 32.5997 32.9525 32.3784 32.6796 32.3784C32.4067 32.3784 32.1854 32.5997 32.1854 32.8726C32.1854 33.1455 32.4067 33.3667 32.6796 33.3667Z" fill="url(#paint16_linear_84_128)"/>
<path d="M34.4942 33.3667C34.7671 33.3667 34.9883 33.1455 34.9883 32.8726C34.9883 32.5997 34.7671 32.3784 34.4942 32.3784C34.2212 32.3784 34 32.5997 34 32.8726C34 33.1455 34.2212 33.3667 34.4942 33.3667Z" fill="url(#paint17_linear_84_128)"/>
</g>
<defs>
<linearGradient id="paint0_linear_84_128" x1="24.7138" y1="4.29033" x2="24.4588" y2="11.7684" gradientUnits="userSpaceOnUse">
<stop stop-color="#FFB92D"/>
<stop offset="1" stop-color="#F59500"/>
</linearGradient>
<linearGradient id="paint1_linear_84_128" x1="25.9367" y1="9.25556" x2="25.2421" y2="14.9844" gradientUnits="userSpaceOnUse">
<stop stop-color="#FFB92D"/>
<stop offset="1" stop-color="#F59500"/>
</linearGradient>
<linearGradient id="paint2_linear_84_128" x1="23.7343" y1="9.42484" x2="23.7343" y2="13.789" gradientUnits="userSpaceOnUse">
<stop stop-color="#A7F3CE"/>
<stop offset="1" stop-color="#61DB99"/>
</linearGradient>
<linearGradient id="paint3_linear_84_128" x1="23.9995" y1="16.9796" x2="23.9995" y2="29.2259" gradientUnits="userSpaceOnUse">
<stop stop-color="#FF4C54"/>
<stop offset="1" stop-color="#BE3F45"/>
</linearGradient>
<linearGradient id="paint4_linear_84_128" x1="23.9995" y1="26.073" x2="23.9995" y2="44.9865" gradientUnits="userSpaceOnUse">
<stop stop-color="#FF4C54"/>
<stop offset="1" stop-color="#BE3F45"/>
</linearGradient>
<linearGradient id="paint5_linear_84_128" x1="43.3563" y1="29.941" x2="40.1695" y2="29.941" gradientUnits="userSpaceOnUse">
<stop stop-color="#BE3F45" stop-opacity="0"/>
<stop offset="1" stop-color="#BE3F45"/>
</linearGradient>
<linearGradient id="paint6_linear_84_128" x1="14.8556" y1="26.6695" x2="31.067" y2="34.1475" gradientUnits="userSpaceOnUse">
<stop stop-color="#FFB92D"/>
<stop offset="1" stop-color="#F59500"/>
</linearGradient>
<linearGradient id="paint7_linear_84_128" x1="20.8722" y1="43.3197" x2="20.2021" y2="48.4415" gradientUnits="userSpaceOnUse">
<stop stop-color="#BE3F45" stop-opacity="0"/>
<stop offset="1" stop-color="#BE3F45"/>
</linearGradient>
<linearGradient id="paint8_linear_84_128" x1="4.2052" y1="12.9626" x2="4.2052" y2="45.7158" gradientUnits="userSpaceOnUse">
<stop stop-color="#FFF465"/>
<stop offset="1" stop-color="#FFE600"/>
</linearGradient>
<linearGradient id="paint9_linear_84_128" x1="23.0333" y1="12.9637" x2="23.0333" y2="45.6481" gradientUnits="userSpaceOnUse">
<stop stop-color="#FFF465"/>
<stop offset="1" stop-color="#FFE600"/>
</linearGradient>
<linearGradient id="paint10_linear_84_128" x1="5.76149" y1="12.9618" x2="5.76149" y2="45.714" gradientUnits="userSpaceOnUse">
<stop stop-color="#FFF465"/>
<stop offset="1" stop-color="#FFE600"/>
</linearGradient>
<linearGradient id="paint11_linear_84_128" x1="38.2053" y1="36.5838" x2="28.5076" y2="26.8861" gradientUnits="userSpaceOnUse">
<stop stop-color="#BE3F45" stop-opacity="0"/>
<stop offset="1" stop-color="#BE3F45"/>
</linearGradient>
<linearGradient id="paint12_linear_84_128" x1="33.5861" y1="29.7924" x2="33.5861" y2="34.7965" gradientUnits="userSpaceOnUse">
<stop stop-color="#FF4C54"/>
<stop offset="1" stop-color="#BE3F45"/>
</linearGradient>
<linearGradient id="paint13_linear_84_128" x1="33.5861" y1="33.464" x2="33.5861" y2="30.0109" gradientUnits="userSpaceOnUse">
<stop stop-color="#FF4C54"/>
<stop offset="1" stop-color="#BE3F45"/>
</linearGradient>
<linearGradient id="paint14_linear_84_128" x1="27.9952" y1="10.3737" x2="28.9835" y2="14.7378" gradientUnits="userSpaceOnUse">
<stop stop-color="#A7F3CE"/>
<stop offset="1" stop-color="#61DB99"/>
</linearGradient>
<linearGradient id="paint15_linear_84_128" x1="29.8098" y1="10.3739" x2="30.798" y2="14.738" gradientUnits="userSpaceOnUse">
<stop stop-color="#A7F3CE"/>
<stop offset="1" stop-color="#61DB99"/>
</linearGradient>
<linearGradient id="paint16_linear_84_128" x1="27.6042" y1="10.4621" x2="28.5924" y2="14.8263" gradientUnits="userSpaceOnUse">
<stop stop-color="#A7F3CE"/>
<stop offset="1" stop-color="#61DB99"/>
</linearGradient>
<linearGradient id="paint17_linear_84_128" x1="29.4187" y1="10.4623" x2="30.4069" y2="14.8265" gradientUnits="userSpaceOnUse">
<stop stop-color="#A7F3CE"/>
<stop offset="1" stop-color="#61DB99"/>
</linearGradient>
<clipPath id="clip0_84_128">
<rect width="48" height="48" fill="white"/>
</clipPath>
</defs>
</svg>
