<svg width="48" height="48" viewBox="0 0 48 48" fill="none" xmlns="http://www.w3.org/2000/svg">
<g clip-path="url(#clip0_481_3243)">
<path fill-rule="evenodd" clip-rule="evenodd" d="M6.02304 20.4168C6.30193 20.4166 6.56931 20.3057 6.76638 20.1083C6.96345 19.911 7.07406 19.6435 7.07389 19.3646V7.07556H19.3635C19.5025 7.07687 19.6403 7.05063 19.7691 6.99835C19.8979 6.94607 20.0151 6.86879 20.1138 6.77097C20.2126 6.67315 20.2909 6.55673 20.3444 6.42844C20.3979 6.30016 20.4255 6.16254 20.4255 6.02355C20.4255 5.88455 20.3979 5.74693 20.3444 5.61864C20.2909 5.49036 20.2126 5.37394 20.1138 5.27612C20.0151 5.1783 19.8979 5.10102 19.7691 5.04874C19.6403 4.99646 19.5025 4.97022 19.3635 4.97153H6.02304C5.88492 4.97152 5.74814 4.99871 5.62053 5.05157C5.49292 5.10442 5.37696 5.18189 5.27929 5.27956C5.18162 5.37723 5.10415 5.49318 5.0513 5.6208C4.99845 5.74841 4.97125 5.88519 4.97126 6.02331V19.3646C4.97121 19.6436 5.08199 19.9112 5.27924 20.1085C5.47648 20.3059 5.74403 20.4168 6.02304 20.4168ZM43.0288 28.6351C43.0288 28.3561 42.918 28.0886 42.7207 27.8913C42.5235 27.6941 42.256 27.5833 41.977 27.5833C41.6981 27.5833 41.4305 27.6941 41.2333 27.8913C41.036 28.0886 40.9252 28.3561 40.9252 28.6351V40.9247H28.6357C28.3568 40.9247 28.0893 41.0355 27.892 41.2327C27.6948 41.43 27.584 41.6975 27.584 41.9764C27.584 42.2554 27.6948 42.5229 27.892 42.7202C28.0893 42.9174 28.3568 43.0282 28.6357 43.0282H41.9764C42.2552 43.0282 42.5227 42.9176 42.7201 42.7205C42.9175 42.5235 43.0286 42.2562 43.029 41.9773L43.0288 28.6351ZM39.2874 11.9106L39.0495 12.2738L39.387 12.5457C40.0082 13.0433 40.4792 13.7034 40.7479 14.4526C41.0165 15.2018 41.0723 16.0108 40.9089 16.7897C40.7454 17.5687 40.3693 18.2871 39.8222 18.8652C39.2751 19.4433 38.5785 19.8584 37.8097 20.0644L37.4568 20.16V20.7412C37.4566 20.9851 37.3717 21.2215 37.2166 21.4097C37.0616 21.598 36.8459 21.7266 36.6065 21.7734C36.3671 21.8203 36.1189 21.7825 35.9042 21.6666C35.6896 21.5507 35.5219 21.3638 35.4298 21.138L34.9876 20.051L34.5443 21.1373C34.4525 21.3633 34.2849 21.5503 34.0703 21.6664C33.8557 21.7824 33.6075 21.8203 33.3681 21.7734C33.1287 21.7266 32.913 21.598 32.758 21.4097C32.6029 21.2213 32.5182 20.985 32.5182 20.741V20.2126H30.8865C30.6389 20.2129 30.3992 20.1259 30.2095 19.9668C30.0199 19.8077 29.8925 19.5868 29.8497 19.343C29.807 19.0992 29.8517 18.8481 29.976 18.634C30.1003 18.4199 30.2962 18.2566 30.5291 18.1727L30.8445 18.0587V7.94903L30.5291 7.83447C30.2961 7.75076 30.1002 7.58747 29.9758 7.37339C29.8515 7.15931 29.8067 6.90819 29.8494 6.66434C29.8922 6.42048 30.0196 6.19955 30.2094 6.0405C30.3991 5.88146 30.6389 5.79452 30.8865 5.79503H32.5186V5.26656C32.5185 5.02262 32.6033 4.78624 32.7583 4.59791C32.9134 4.40957 33.1291 4.28098 33.3685 4.23416C33.6079 4.18733 33.8561 4.22518 34.0707 4.34123C34.2853 4.45727 34.4528 4.6443 34.5447 4.87028L34.9876 5.95656L35.4294 4.87028C35.5214 4.64434 35.6891 4.45739 35.9037 4.3414C36.1183 4.22541 36.3665 4.18759 36.606 4.23439C36.8454 4.2812 37.0611 4.40973 37.2162 4.59801C37.3713 4.78629 37.4562 5.02261 37.4564 5.26656V6.06934L37.7223 6.20059C38.2251 6.44695 38.6697 6.79744 39.0267 7.2288C39.3837 7.66015 39.6449 8.16251 39.7929 8.70253C39.9409 9.24254 39.9723 9.80786 39.8851 10.3609C39.7979 10.914 39.5944 11.4423 39.2874 11.9106ZM32.9472 7.89906V11.5957H35.9813C36.4692 11.5922 36.936 11.396 37.2798 11.0497C37.6236 10.7035 37.8165 10.2353 37.8165 9.74739C37.8165 9.25945 37.6236 8.7913 37.2798 8.44505C36.936 8.0988 36.4692 7.90253 35.9813 7.89906H32.9472ZM36.6917 18.109C37.2764 18.109 37.8371 17.8767 38.2506 17.4633C38.664 17.0498 38.8963 16.4891 38.8963 15.9044C38.8963 15.3197 38.664 14.7589 38.2506 14.3455C37.8371 13.932 37.2764 13.6997 36.6917 13.6997H32.9472V18.109H36.6917ZM13.0038 25.2246C12.8301 25.2246 12.6592 25.2676 12.5063 25.3497C12.3533 25.4318 12.223 25.5505 12.1271 25.6952L5.17648 36.1846C5.04274 36.3869 4.98295 36.6293 5.0072 36.8706C5.03146 37.112 5.13827 37.3375 5.30961 37.5092L12.2602 44.459C12.3578 44.5567 12.4737 44.6343 12.6013 44.6872C12.7289 44.7401 12.8656 44.7673 13.0037 44.7673C13.1418 44.7673 13.2786 44.7401 13.4061 44.6872C13.5337 44.6343 13.6496 44.5567 13.7472 44.459L20.6979 37.5094C20.8691 37.3377 20.976 37.1122 21.0004 36.8709C21.0248 36.6296 20.9653 36.3873 20.8319 36.1847L13.8804 25.6956C13.7846 25.5508 13.6544 25.432 13.5014 25.3499C13.3484 25.2677 13.1774 25.2245 13.0038 25.2246ZM11.952 36.6591L8.05179 35.6532L11.9518 29.7677L11.952 36.6591ZM14.0555 29.7674L17.9548 35.6532L14.0555 36.6591V29.7674ZM13.0038 42.2267L8.79223 38.0165L12.7401 39.0356C12.8262 39.058 12.9148 39.0693 13.0038 39.0692C13.0923 39.0694 13.1806 39.0581 13.2663 39.0356L17.2173 38.0165L13.0038 42.2267ZM13.0038 21.9923C20.1738 21.9923 26.0076 27.8261 26.0076 34.9954C26.0076 42.1648 20.1738 48.0001 13.0038 48.0001C5.83376 48.0001 -0.000488281 42.1657 -0.000488281 34.9957C-0.000488281 27.8257 5.83376 21.9923 13.0038 21.9923ZM34.9876 5.95656C27.8172 5.95656 21.9916 5.83356 21.9916 13.0032C21.9916 20.1728 27.8251 26.0079 34.9954 26.0079C42.1658 26.0079 44.5 21.5163 44.5 14.3455C44.5 7.17462 42.1576 5.95656 34.9876 5.95656Z" fill="url(#paint0_linear_481_3243)"/>
<g clip-path="url(#clip1_481_3243)">
<path d="M13 48C20.1797 48 26 42.1797 26 35C26 27.8203 20.1797 22 13 22C5.8203 22 0 27.8203 0 35C0 42.1797 5.8203 48 13 48Z" fill="#4793FF"/>
<path d="M13 22C20.1682 22 26 27.8318 26 35C26 42.1682 20.1682 48 13 48V22Z" fill="#5E69E2"/>
<path d="M13.0001 44.7366C18.3774 44.7366 22.7366 40.3774 22.7366 35.0001C22.7366 29.6228 18.3774 25.2637 13.0001 25.2637C7.62283 25.2637 3.26367 29.6228 3.26367 35.0001C3.26367 40.3774 7.62283 44.7366 13.0001 44.7366Z" fill="#2EBEEF"/>
<path d="M13 25.2637C18.3687 25.2637 22.7364 29.6314 22.7364 35.0001C22.7364 40.3688 18.3687 44.7366 13 44.7366V25.2637Z" fill="#4793FF"/>
<path d="M12.366 28.4583L8.28662 34.5775C8.11605 34.8333 8.11605 35.1667 8.28662 35.4225L12.366 41.5417C12.6675 41.9939 13.3321 41.9939 13.6336 41.5417L17.713 35.4225C17.8836 35.1667 17.8836 34.8333 17.713 34.5775L13.6336 28.4583C13.3321 28.0061 12.6676 28.0061 12.366 28.4583Z" fill="#76E5F6"/>
<path d="M13 35.9839V41.8809C13.2415 41.8809 13.483 41.7678 13.6338 41.5417L17.7132 35.4226C17.7925 35.3036 17.8345 35.1679 17.84 35.031L13.1493 35.9691C13.1001 35.979 13.05 35.9839 13 35.9839Z" fill="#2EBEEF"/>
<path d="M12.9998 28.1191C12.7583 28.1191 12.5168 28.2322 12.366 28.4583L8.28662 34.5774C8.19536 34.7144 8.15342 34.8734 8.15981 35.031L12.8504 35.9691C12.8997 35.979 12.9498 35.9839 12.9998 35.9839V28.1191Z" fill="#C2F4FB"/>
</g>
<path d="M17 3L19.3452 5.3452C19.7147 5.71469 19.7374 6.30636 19.3973 6.7031L17 9.5" stroke="#3FA3DC" stroke-width="1.5" stroke-linecap="round"/>
<path d="M39 30L41.3452 27.6548C41.7147 27.2853 42.3064 27.2626 42.7031 27.6027L45.5 30" stroke="#3FA3DC" stroke-width="1.5" stroke-linecap="round"/>
<path d="M31 45L28.6548 42.6548C28.2853 42.2853 28.2626 41.6936 28.6027 41.2969L31 38.5" stroke="#558CCA" stroke-width="1.5" stroke-linecap="round"/>
<path d="M9 17.75L6.6548 20.0952C6.28531 20.4647 5.69364 20.4874 5.2969 20.1473L2.5 17.75" stroke="#568BC9" stroke-width="1.5" stroke-linecap="round"/>
<g clip-path="url(#clip2_481_3243)">
<path d="M34.6518 26.6427C41.884 26.6427 47.7469 20.7798 47.7469 13.5475C47.7469 6.31528 41.884 0.452393 34.6518 0.452393C27.4195 0.452393 21.5566 6.31528 21.5566 13.5475C21.5566 20.7798 27.4195 26.6427 34.6518 26.6427Z" fill="url(#paint1_linear_481_3243)" stroke="#0A1839" stroke-width="1.41" stroke-miterlimit="10"/>
<path d="M34.6521 25.4842C41.3172 25.4842 46.7203 20.0811 46.7203 13.4161C46.7203 6.751 41.3172 1.3479 34.6521 1.3479C27.9871 1.3479 22.584 6.751 22.584 13.4161C22.584 20.0811 27.9871 25.4842 34.6521 25.4842Z" fill="url(#paint2_linear_481_3243)"/>
<path d="M45.0901 19.6088C43.0034 23.2157 39.1035 25.6429 34.6366 25.6429C30.1698 25.6429 25.9258 22.9964 23.917 19.1233H45.3533L45.0895 19.6088H45.0901Z" fill="url(#paint3_linear_481_3243)"/>
<path d="M44.1391 12.4368C44.0927 11.8508 43.9774 10.9961 43.8259 10.4274C43.8045 10.3471 43.7771 10.2901 43.6826 10.2574C43.5269 10.2027 43.4693 10.0209 43.5418 9.87883C43.6137 9.73857 43.7961 9.68151 43.9388 9.75521C44.0862 9.83128 44.1426 10.0179 44.0428 10.1546C43.9869 10.2313 43.9917 10.2943 44.0137 10.3757C44.2223 11.1346 44.334 11.704 44.3494 12.4897L44.1385 12.4374L44.1391 12.4368Z" fill="url(#paint4_linear_481_3243)"/>
<path d="M43.1037 12.568C43.0698 11.3788 42.7893 10.3203 42.2741 9.24342C42.2509 9.19469 42.2402 9.13348 42.2443 9.07939C42.2812 8.5564 42.3252 8.0334 42.359 7.5104C42.3632 7.44265 42.3412 7.35529 42.2978 7.30477C41.9573 6.90598 41.609 6.51374 41.2625 6.1197C41.2108 6.06087 41.1597 6.02759 41.0652 6.04363C40.8887 6.07275 40.7502 5.95092 40.7407 5.78273C40.7312 5.61573 40.862 5.48438 41.0355 5.48735C41.2037 5.48973 41.3214 5.62642 41.3214 5.79699C41.3214 5.85286 41.3505 5.92002 41.3879 5.96399C41.7588 6.39547 42.1368 6.82159 42.5052 7.25485C42.548 7.30536 42.5682 7.39273 42.5635 7.46107C42.5278 7.97516 42.4815 8.48924 42.4434 9.00332C42.4387 9.07107 42.4458 9.14833 42.4743 9.20895C43.0021 10.3209 43.2755 11.3711 43.3082 12.5954L43.1025 12.5686L43.1037 12.568Z" fill="url(#paint5_linear_481_3243)"/>
<path d="M42.1344 12.0808C42.0048 10.9272 41.6269 9.85685 40.9999 8.87147C40.9446 8.78411 40.8964 8.71279 40.7645 8.71042C40.6135 8.70804 40.5095 8.53509 40.5393 8.38592C40.5696 8.23496 40.717 8.13631 40.8739 8.16067C41.0337 8.18564 41.149 8.33659 41.1003 8.49587C41.0682 8.60225 41.1033 8.67 41.1544 8.75083C41.9193 9.94481 42.2764 10.6829 42.3293 12.0897L42.1332 12.0808H42.1344Z" fill="url(#paint6_linear_481_3243)"/>
<path d="M26.761 12.1123C26.9049 10.9837 27.271 9.75943 27.9009 8.80318C27.9271 8.76395 27.9877 8.73008 28.0364 8.72354C28.2141 8.70036 28.3336 8.57318 28.3152 8.40915C28.2973 8.24631 28.1416 8.13279 27.974 8.16072C27.8088 8.18866 27.7001 8.34556 27.7529 8.51137C27.7815 8.6023 27.7535 8.66054 27.7096 8.72948C27.0427 9.76597 26.6392 10.8916 26.5186 12.1117H26.7616L26.761 12.1123Z" fill="url(#paint7_linear_481_3243)"/>
<path d="M25.8005 12.3464C25.8005 12.2959 26.0496 10.3608 26.5547 9.28987C26.5856 9.2245 26.6029 9.14486 26.5987 9.07413C26.566 8.5553 26.5232 8.03706 26.4929 7.51762C26.4888 7.44215 26.5167 7.34706 26.5654 7.29C26.9024 6.89419 27.2495 6.50669 27.5918 6.11564C27.6465 6.05323 27.7029 6.03303 27.7909 6.04551C27.9662 6.06987 28.1047 5.94507 28.1106 5.77806C28.116 5.61641 27.99 5.48863 27.823 5.48804C27.6542 5.48744 27.5134 5.62354 27.5365 5.78936C27.5484 5.87613 27.5104 5.91595 27.4617 5.97122C27.0855 6.39794 26.7104 6.82644 26.3414 7.2591C26.3027 7.30427 26.2802 7.38034 26.2843 7.43977C26.3206 7.94969 26.3681 8.45842 26.4026 8.96835C26.4091 9.06106 26.3931 9.16506 26.3544 9.24886C25.898 10.2396 25.6234 11.2731 25.561 12.3595L25.7999 12.347L25.8005 12.3464Z" fill="url(#paint8_linear_481_3243)"/>
<path d="M24.4902 12.8135C24.5021 12.6132 24.5134 12.4284 24.5235 12.243C24.5592 11.6059 24.6721 10.9818 24.8391 10.3661C24.8599 10.2895 24.8647 10.2306 24.8106 10.1575C24.7089 10.0208 24.7618 9.836 24.9086 9.75636C25.0489 9.68029 25.2337 9.73496 25.3074 9.87403C25.3847 10.0196 25.3181 10.189 25.163 10.2669C25.1143 10.2912 25.0572 10.3382 25.0435 10.3857C24.8248 11.1375 24.7208 11.9066 24.6965 12.6869C24.6953 12.7214 24.7 12.7559 24.7024 12.7981L24.4902 12.8135Z" fill="url(#paint9_linear_481_3243)"/>
<path d="M34.3824 4.17993C37.0752 4.24293 39.3027 5.20869 41.0833 7.13902C41.1492 7.21034 41.2057 7.26145 41.3198 7.25848C41.4826 7.25373 41.6039 7.41122 41.5849 7.56693C41.5653 7.72621 41.4256 7.8314 41.2556 7.81298C41.1011 7.79693 40.9727 7.64954 41.012 7.50275C41.0399 7.39755 41.0018 7.33753 40.9383 7.26859C39.61 5.82202 37.9815 4.86637 36.0209 4.5383C32.8401 4.0058 30.1437 4.93768 27.9388 7.24006C27.8633 7.31851 27.8045 7.38745 27.8396 7.5176C27.8782 7.66202 27.7367 7.80406 27.5798 7.81476C27.4111 7.82605 27.275 7.71254 27.2643 7.55207C27.2542 7.40052 27.3748 7.25313 27.5323 7.25848C27.6464 7.26264 27.7029 7.20915 27.7682 7.13843C29.2083 5.56825 30.99 4.61081 33.123 4.2881C33.2484 4.26908 33.3744 4.25006 33.501 4.23996C33.8089 4.21618 34.1167 4.19776 34.3812 4.18053L34.3824 4.17993Z" fill="url(#paint10_linear_481_3243)"/>
<path d="M32.9834 3.66881C32.9192 3.63969 32.842 3.62423 32.795 3.57788C32.7332 3.51726 32.678 3.51785 32.6007 3.53212C31.8162 3.67832 31.0638 3.91842 30.3387 4.2447C30.2609 4.27976 30.2086 4.31542 30.1931 4.41289C30.1682 4.56979 29.9946 4.65537 29.8353 4.60961C29.685 4.56682 29.5958 4.40814 29.6404 4.26253C29.688 4.10741 29.8573 4.00757 30.0029 4.07591C30.1147 4.12821 30.1943 4.09969 30.2912 4.05571C31.0186 3.72408 31.7788 3.48992 32.5668 3.34193C32.6488 3.32648 32.7011 3.30152 32.7421 3.22426C32.8093 3.09708 32.962 3.05547 33.0958 3.10896C33.2223 3.15948 33.2978 3.29379 33.2717 3.42157C33.2443 3.5547 33.1302 3.6486 32.984 3.66881H32.9834Z" fill="url(#paint11_linear_481_3243)"/>
<path d="M35.8923 3.08813C35.9862 3.08992 36.0676 3.14816 36.1306 3.24682C36.155 3.28485 36.2049 3.32229 36.2489 3.33062C37.0768 3.4893 37.8744 3.73832 38.6392 4.08658C38.6832 4.10679 38.751 4.10322 38.7973 4.08539C38.9697 4.01883 39.1385 4.07945 39.2027 4.24111C39.2633 4.39444 39.1747 4.56679 39.0125 4.61077C38.8407 4.65772 38.6939 4.56263 38.6458 4.38493C38.6339 4.34095 38.5965 4.28865 38.5566 4.26963C37.8072 3.91958 37.0221 3.67413 36.2061 3.52674C36.1615 3.51842 36.1003 3.55527 36.0581 3.58558C35.9506 3.66343 35.8085 3.67532 35.7027 3.604C35.5964 3.53209 35.5512 3.4055 35.5898 3.28723C35.6302 3.1648 35.7366 3.08873 35.8923 3.08873V3.08813Z" fill="url(#paint12_linear_481_3243)"/>
<path d="M36.0242 5.08203C36.1443 5.08263 36.2275 5.1373 36.2899 5.23834C36.3184 5.28469 36.3683 5.33759 36.4182 5.35066C37.1831 5.54797 37.9011 5.84989 38.578 6.24986C38.6196 6.27482 38.6879 6.2772 38.7373 6.26531C38.9197 6.22193 39.0808 6.30394 39.1176 6.47035C39.1539 6.63379 39.0475 6.78771 38.8799 6.81446C38.7117 6.8412 38.5732 6.72353 38.5441 6.54167C38.537 6.49769 38.5055 6.44301 38.468 6.41983C37.8167 6.02224 37.116 5.73459 36.3749 5.53965C36.2946 5.51826 36.2512 5.54797 36.196 5.59076C36.0937 5.66981 35.9565 5.66803 35.8542 5.59017C35.752 5.51172 35.714 5.40653 35.7502 5.28172C35.7859 5.15929 35.8947 5.08263 36.0248 5.08263L36.0242 5.08203Z" fill="url(#paint13_linear_481_3243)"/>
<path d="M30.0032 6.81759C29.8938 6.81106 29.7857 6.76232 29.7589 6.65119C29.7369 6.56144 29.7488 6.44734 29.7898 6.36473C29.8403 6.2631 29.9604 6.22209 30.0727 6.2625C30.1767 6.29935 30.2492 6.26904 30.3342 6.21852C30.979 5.83638 31.6661 5.5517 32.3947 5.36331C32.4761 5.3425 32.5356 5.31635 32.5748 5.23018C32.6408 5.08398 32.8297 5.03881 32.97 5.11785C33.1162 5.19987 33.1584 5.38351 33.0639 5.52258C32.9736 5.65511 32.7852 5.69374 32.658 5.58974C32.589 5.53269 32.532 5.52555 32.4512 5.54695C31.7326 5.73832 31.0539 6.01824 30.4168 6.39563C30.3473 6.43664 30.3039 6.47646 30.2986 6.56739C30.2902 6.71537 30.1577 6.81997 30.0032 6.81819V6.81759Z" fill="url(#paint14_linear_481_3243)"/>
<path d="M28.317 14.0406C32.0384 14.0406 35.0553 11.0238 35.0553 7.30231C35.0553 3.58082 32.0384 0.563965 28.317 0.563965C24.5955 0.563965 21.5786 3.58082 21.5786 7.30231C21.5786 11.0238 24.5955 14.0406 28.317 14.0406Z" fill="url(#paint15_radial_481_3243)"/>
<path d="M44.1454 14.0597C44.099 14.6457 43.9837 15.5004 43.8322 16.0691C43.8108 16.1493 43.7835 16.2064 43.689 16.2391C43.5333 16.2938 43.4756 16.4756 43.5481 16.6177C43.62 16.7579 43.8025 16.815 43.9451 16.7413C44.0925 16.6652 44.149 16.4786 44.0491 16.3419C43.9933 16.2652 43.998 16.2022 44.02 16.1208C44.2286 15.3619 44.3403 14.7925 44.3558 14.0068L44.1448 14.0591L44.1454 14.0597Z" fill="url(#paint16_linear_481_3243)"/>
<path d="M43.1091 13.9289C43.0752 15.1182 42.7947 16.1766 42.2794 17.2535C42.2562 17.3023 42.2455 17.3635 42.2497 17.4176C42.2866 17.9406 42.3305 18.4636 42.3644 18.9866C42.3686 19.0543 42.3466 19.1417 42.3032 19.1922C41.9627 19.591 41.6144 19.9832 41.2679 20.3773C41.2162 20.4361 41.1651 20.4694 41.0706 20.4533C40.8941 20.4242 40.7556 20.5461 40.7461 20.7142C40.7366 20.8812 40.8673 21.0126 41.0409 21.0096C41.2091 21.0072 41.3267 20.8705 41.3267 20.7C41.3267 20.6441 41.3559 20.577 41.3933 20.533C41.7642 20.1015 42.1421 19.6754 42.5106 19.2421C42.5534 19.1916 42.5736 19.1042 42.5689 19.0359C42.5332 18.5218 42.4868 18.0077 42.4488 17.4936C42.4441 17.4259 42.4512 17.3486 42.4797 17.288C43.0075 16.1761 43.2808 15.1259 43.3135 13.9016L43.1079 13.9284L43.1091 13.9289Z" fill="url(#paint17_linear_481_3243)"/>
<path d="M42.1398 14.4161C42.0102 15.5697 41.6322 16.6401 41.0052 17.6254C40.95 17.7128 40.9018 17.7841 40.7699 17.7865C40.6189 17.7889 40.5149 17.9618 40.5446 18.111C40.5749 18.262 40.7223 18.3606 40.8792 18.3362C41.0391 18.3113 41.1544 18.1603 41.1057 18.001C41.0736 17.8947 41.1086 17.8269 41.1597 17.7461C41.9246 16.5521 42.2818 15.814 42.3347 14.4072L42.1386 14.4161H42.1398Z" fill="url(#paint18_linear_481_3243)"/>
<path d="M26.7669 14.3843C26.9107 15.5129 27.2768 16.7372 27.9068 17.6934C27.9329 17.7326 27.9936 17.7665 28.0423 17.7731C28.22 17.7962 28.3395 17.9234 28.321 18.0875C28.3032 18.2503 28.1475 18.3638 27.9799 18.3359C27.8147 18.3079 27.7059 18.151 27.7588 17.9852C27.7873 17.8943 27.7594 17.8361 27.7154 17.7671C27.0486 16.7306 26.6451 15.605 26.5244 14.3849H26.7675L26.7669 14.3843Z" fill="url(#paint19_linear_481_3243)"/>
<path d="M25.8069 14.1505C25.8069 14.201 26.0559 16.1361 26.5611 17.2071C26.592 17.2725 26.6092 17.3521 26.6051 17.4228C26.5724 17.9417 26.5296 18.4599 26.4993 18.9793C26.4951 19.0548 26.523 19.1499 26.5718 19.207C26.9088 19.6028 27.2558 19.9903 27.5982 20.3813C27.6528 20.4437 27.7093 20.4639 27.7973 20.4515C27.9726 20.4271 28.1111 20.5519 28.117 20.7189C28.1223 20.8805 27.9963 21.0083 27.8293 21.0089C27.6606 21.0095 27.5197 20.8734 27.5429 20.7076C27.5548 20.6208 27.5167 20.581 27.468 20.5257C27.0918 20.099 26.7168 19.6705 26.3477 19.2379C26.3091 19.1927 26.2865 19.1166 26.2907 19.0572C26.3269 18.5473 26.3745 18.0385 26.4089 17.5286C26.4155 17.4359 26.3994 17.3319 26.3608 17.2481C25.9044 16.2574 25.6298 15.2239 25.5674 14.1375L25.8063 14.1499L25.8069 14.1505Z" fill="url(#paint20_linear_481_3243)"/>
<path d="M24.4966 13.6829C24.5085 13.8831 24.5198 14.068 24.5299 14.2534C24.5655 14.8905 24.6784 15.5145 24.8454 16.1303C24.8662 16.2069 24.871 16.2658 24.8169 16.3389C24.7153 16.4755 24.7682 16.6604 24.915 16.74C25.0552 16.8161 25.2401 16.7614 25.3138 16.6223C25.391 16.4767 25.3245 16.3074 25.1693 16.2295C25.1206 16.2051 25.0636 16.1582 25.0499 16.1106C24.8312 15.3588 24.7272 14.5898 24.7028 13.8095C24.7016 13.775 24.7064 13.7405 24.7088 13.6983L24.4966 13.6829Z" fill="url(#paint21_linear_481_3243)"/>
<path d="M34.3882 22.317C37.0811 22.254 39.3086 21.2882 41.0891 19.3579C41.1551 19.2866 41.2116 19.2355 41.3257 19.2384C41.4885 19.2432 41.6097 19.0857 41.5907 18.93C41.5711 18.7707 41.4315 18.6655 41.2615 18.684C41.107 18.7 40.9786 18.8474 41.0178 18.9942C41.0457 19.0994 41.0077 19.1594 40.9441 19.2283C39.6158 20.6749 37.9874 21.6306 36.0268 21.9586C32.846 22.4911 30.1496 21.5592 27.9447 19.2569C27.8692 19.1784 27.8104 19.1095 27.8454 18.9793C27.884 18.8349 27.7426 18.6929 27.5857 18.6822C27.4169 18.6709 27.2808 18.7844 27.2701 18.9449C27.26 19.0964 27.3807 19.2438 27.5382 19.2384C27.6523 19.2343 27.7087 19.2878 27.7741 19.3585C29.2141 20.9287 30.9959 21.8861 33.1289 22.2088C33.2543 22.2279 33.3803 22.2469 33.5069 22.257C33.8147 22.2807 34.1226 22.2992 34.387 22.3164L34.3882 22.317Z" fill="url(#paint22_linear_481_3243)"/>
<path d="M32.9893 22.8281C32.9251 22.8572 32.8478 22.8727 32.8009 22.919C32.7391 22.9796 32.6838 22.9791 32.6066 22.9648C31.8221 22.8186 31.0697 22.5785 30.3446 22.2522C30.2667 22.2171 30.2144 22.1815 30.199 22.084C30.174 21.9271 30.0005 21.8415 29.8412 21.8873C29.6908 21.9301 29.6017 22.0888 29.6463 22.2344C29.6938 22.3895 29.8632 22.4893 30.0088 22.421C30.1205 22.3687 30.2002 22.3972 30.297 22.4412C31.0245 22.7728 31.7846 23.007 32.5727 23.155C32.6547 23.1704 32.707 23.1954 32.748 23.2726C32.8152 23.3998 32.9679 23.4414 33.1016 23.3879C33.2282 23.3374 33.3037 23.2031 33.2775 23.0753C33.2502 22.9422 33.1361 22.8483 32.9899 22.8281H32.9893Z" fill="url(#paint23_linear_481_3243)"/>
<path d="M35.8982 23.4088C35.9921 23.407 36.0735 23.3488 36.1365 23.2501C36.1609 23.2121 36.2108 23.1747 36.2548 23.1663C37.0827 23.0077 37.8802 22.7586 38.6451 22.4104C38.6891 22.3902 38.7568 22.3937 38.8032 22.4116C38.9755 22.4781 39.1443 22.4175 39.2085 22.2559C39.2691 22.1025 39.1806 21.9302 39.0183 21.8862C38.8466 21.8392 38.6998 21.9343 38.6516 22.112C38.6398 22.156 38.6023 22.2083 38.5625 22.2273C37.8131 22.5774 37.028 22.8228 36.212 22.9702C36.1674 22.9785 36.1062 22.9417 36.064 22.9114C35.9564 22.8335 35.8144 22.8216 35.7086 22.893C35.6022 22.9649 35.557 23.0915 35.5957 23.2097C35.6361 23.3322 35.7425 23.4082 35.8982 23.4082V23.4088Z" fill="url(#paint24_linear_481_3243)"/>
<path d="M36.0306 21.4149C36.1506 21.4143 36.2338 21.3596 36.2962 21.2586C36.3247 21.2123 36.3747 21.1594 36.4246 21.1463C37.1895 20.949 37.9074 20.6471 38.5843 20.2471C38.6259 20.2221 38.6943 20.2198 38.7436 20.2316C38.9261 20.275 39.0871 20.193 39.124 20.0266C39.1602 19.8632 39.0538 19.7092 38.8862 19.6825C38.7181 19.6557 38.5796 19.7734 38.5505 19.9553C38.5433 19.9993 38.5118 20.0539 38.4744 20.0771C37.823 20.4747 37.1223 20.7624 36.3812 20.9573C36.301 20.9787 36.2576 20.949 36.2023 20.9062C36.1001 20.8271 35.9628 20.8289 35.8606 20.9068C35.7584 20.9852 35.7203 21.0904 35.7566 21.2152C35.7922 21.3377 35.901 21.4143 36.0312 21.4143L36.0306 21.4149Z" fill="url(#paint25_linear_481_3243)"/>
<path d="M30.0095 19.6788C29.9002 19.6854 29.792 19.7341 29.7653 19.8452C29.7433 19.935 29.7552 20.0491 29.7962 20.1317C29.8467 20.2333 29.9667 20.2743 30.0791 20.2339C30.1831 20.1971 30.2556 20.2274 30.3406 20.2779C30.9854 20.6601 31.6724 20.9447 32.4011 21.1331C32.4825 21.1539 32.5419 21.1801 32.5811 21.2663C32.6471 21.4125 32.8361 21.4576 32.9764 21.3786C33.1226 21.2966 33.1647 21.1129 33.0703 20.9739C32.9799 20.8413 32.7915 20.8027 32.6643 20.9067C32.5954 20.9637 32.5383 20.9709 32.4575 20.9495C31.739 20.7581 31.0603 20.4782 30.4232 20.1008C30.3536 20.0598 30.3103 20.02 30.3049 19.929C30.2966 19.7811 30.1641 19.6765 30.0095 19.6782V19.6788Z" fill="url(#paint26_linear_481_3243)"/>
<path d="M37.0703 13.9933C37.0019 14.3689 36.9122 14.7171 37.0744 15.0803C37.2706 15.5195 37.5826 15.904 37.9647 16.1958C38.1555 16.3414 38.3647 16.4644 38.5852 16.5589C39.0149 16.7432 39.4731 16.8591 39.904 17.0617C39.964 17.0902 40.0246 17.1188 40.0817 17.1526C40.6879 17.5164 40.8579 18.1986 41.0052 18.8417C41.2614 19.9578 41.2994 21.0662 41.344 22.2061C41.3737 22.9734 41.0914 23.384 40.528 23.8619C40.1762 24.1602 39.8059 24.4395 39.4279 24.7034C39.4155 24.3034 39.403 23.9029 39.3899 23.5029C39.375 23.0393 39.4523 22.442 39.3281 21.9999C39.104 22.1211 38.9893 22.4111 38.7641 22.552C38.6969 22.5942 38.6232 22.6251 38.5495 22.6554C38.2672 22.7731 37.9861 22.9341 37.6824 22.9585C37.5457 22.9692 37.4049 22.9615 37.2682 22.9627C36.8338 22.9674 36.3999 22.9716 35.9655 22.9763C35.2166 22.9841 34.4684 22.9918 33.7195 22.9995C33.7023 22.9995 33.6851 22.9995 33.6678 22.9995L32.5481 22.7624V25.5872C32.5481 25.5872 29.4619 24.2553 29.7465 23.7341C30.5649 22.2334 29.4672 20.1813 29.5772 18.4792C29.592 18.2527 29.6069 18.0239 29.6758 17.8082C29.7953 17.4349 30.1578 17.1081 30.5061 16.9429C31.3334 16.55 32.1357 16.1869 33.0016 15.8957C33.9062 15.5914 34.7328 15.2621 35.5696 14.8075C35.9042 14.6256 36.2382 14.4444 36.5728 14.2625C36.7244 14.1805 36.9027 14.039 37.0697 13.9927L37.0703 13.9933Z" fill="#FADDEA"/>
<path d="M34.7508 15.7411C34.5273 16.2659 33.8932 16.5678 33.3767 16.7116C32.8733 16.8518 32.3366 16.8186 31.8345 16.9642C31.3721 17.0979 30.8705 17.4402 30.5769 17.8224C30.1175 18.4208 30.1163 19.241 30.124 19.9958C30.1383 21.3793 30.2518 22.8515 30.2138 24.2344C30.2161 24.1435 30.0919 24.4656 30.0366 24.3925C29.8815 24.1863 29.3532 24.2291 29.3579 23.9646C29.3722 23.1944 29.5547 21.6664 29.5077 20.8973C29.4602 20.1224 29.3579 19.3515 29.4465 18.5742C29.5095 18.0215 29.8108 17.2905 30.291 16.9725C30.7997 16.6355 31.5498 16.5024 32.1298 16.3318C32.4935 16.2248 32.8751 16.2409 33.24 16.1422C33.7321 16.0091 34.2521 15.8064 34.7513 15.7405L34.7508 15.7411Z" fill="#FCEBF2"/>
<path d="M40.9431 18.5765C40.9003 18.4606 40.9288 18.2318 40.8516 18.0184C40.7743 17.8051 40.5907 17.6072 40.5128 17.5138C40.4165 17.3985 40.3179 17.285 40.2109 17.1792C39.9993 16.9695 39.7575 16.7852 39.4716 16.6931C39.2689 16.6277 39.0657 16.5623 38.863 16.497C38.6705 16.4352 38.4708 16.4126 38.28 16.3436C38.0488 16.2598 37.8592 16.0887 37.6857 15.9193C37.4456 15.6857 37.2102 15.4337 37.0813 15.1241C36.9131 14.7206 36.9457 14.2505 37.1133 13.8469C37.1585 13.8469 37.2037 13.8481 37.2489 13.8487C37.2102 14.1049 37.1104 14.3527 37.1056 14.6118C37.1003 14.8686 37.1906 15.1223 37.3321 15.3369C37.439 15.4985 37.5745 15.64 37.7225 15.7642C38.1088 16.0887 38.57 16.2664 39.033 16.453C39.2772 16.5516 39.5376 16.6099 39.7729 16.7293C40.0065 16.8482 40.1842 17.0396 40.3761 17.2137C40.5515 17.4223 40.8136 17.6488 40.933 17.893C41.0091 18.0481 41.0222 18.2597 41.0578 18.4291C41.1024 18.643 41.1464 18.8576 41.1886 19.0727C41.2308 19.2879 41.2706 19.5024 41.3086 19.7182C41.399 20.2299 41.4245 20.7499 41.4411 21.2681C41.456 21.718 41.5677 22.2648 41.3472 22.6897C41.3853 22.5227 41.3312 22.3492 41.3276 22.1816C41.3235 21.9771 41.3181 21.7727 41.3122 21.5689C41.2991 21.1606 41.2807 20.7523 41.2516 20.3452" fill="#804F69"/>
<path d="M36.4414 14.3468C36.4188 14.342 36.0789 14.7533 36.0325 14.7955C35.8661 14.9482 35.6854 15.0855 35.497 15.2109C35.1089 15.4682 34.6822 15.6656 34.2478 15.8308C33.7824 16.0079 33.3052 16.1547 32.8214 16.2712C32.3686 16.3805 31.8747 16.3972 31.4331 16.5297C31.9097 16.2456 32.4001 15.9835 32.8993 15.7416C33.3979 15.5003 33.9066 15.2804 34.4183 15.0689C34.8843 14.8763 35.3716 14.6166 35.8566 14.4817C36.0254 14.4347 36.2815 14.3117 36.4414 14.3468Z" fill="#EAC5D7"/>
<path d="M36.3659 18.2771C36.3659 18.4043 36.3688 18.5166 36.3712 18.6242C36.4063 20.0707 35.79 21.235 35.2539 22.5253C35.3359 22.3279 35.5523 22.1538 35.6741 21.9791C35.8601 21.7128 35.9998 21.4175 36.1085 21.112C36.3266 20.4986 36.4182 19.8485 36.5038 19.206C36.5513 18.8465 36.4895 18.6069 36.3659 18.2771Z" fill="#EAC5D7"/>
<path d="M37.0987 19.9417C36.9941 20.5514 36.8229 21.1463 36.6702 21.7448C36.5816 22.0937 36.5228 22.4788 36.291 22.767C36.3796 22.7349 36.5002 22.6808 36.5757 22.6089C36.6999 22.4907 36.7635 22.3201 36.8205 22.162C36.9471 21.8078 37.0785 21.4447 37.107 21.0667C37.1349 20.6911 37.0345 20.3173 37.0993 19.9417H37.0987Z" fill="#EAC5D7"/>
<path d="M37.8321 18.4172C37.7887 18.8814 37.8535 19.5928 37.8321 19.8085C37.8107 20.0243 37.8167 21.5338 37.8167 21.5338C37.8167 21.5338 37.8161 22.2535 37.8161 22.2666C37.8161 22.0491 37.9242 21.787 37.9528 21.5647C37.9938 21.2408 38.0187 20.9145 38.0277 20.5883C38.0473 19.8531 37.9712 19.1364 37.8321 18.4172Z" fill="#EAC5D7"/>
<path d="M32.4365 19.7866L32.5275 22.5258L32.4817 25.5663H32.657V22.9787V20.9943L32.4365 19.7866Z" fill="#804F69"/>
<path d="M29.3573 23.9641C29.2563 23.7828 29.4542 22.8812 29.4583 22.6827C29.4643 22.4165 29.45 22.1485 29.4465 21.8822C29.4387 21.342 29.4536 20.7952 29.4221 20.2562L29.3579 19.1561V18.4982L29.5463 17.7975L29.768 17.3767L30.1953 17.0314L31.0404 16.6106C31.0404 16.6106 31.7191 16.2719 31.7304 16.2665C31.8166 16.2237 31.9943 16.2493 32.0918 16.2422C31.9182 16.2838 31.7346 16.4484 31.5759 16.5346C31.318 16.6748 31.0517 16.799 30.7825 16.9155C30.4491 17.0599 30.1002 17.2252 29.8851 17.5306C29.6776 17.8254 29.5588 18.1778 29.5065 18.5326C29.4268 19.0729 29.4863 19.622 29.5213 20.167C29.554 20.6817 29.5647 21.1976 29.5647 21.7128C29.5647 21.9708 29.5612 22.2287 29.557 22.4866C29.5528 22.7345 29.4102 23.7222 29.3585 23.9629L29.3573 23.9641Z" fill="#804F69"/>
<path d="M39.5449 16.7039L39.5966 17.6684L40.1089 17.8158L40.2106 17.1793L39.5449 16.7039Z" fill="#D25398"/>
<path d="M31.4463 11.9047C31.4231 11.982 31.3714 12.0474 31.3245 12.1134C31.2311 12.2447 31.1533 12.3873 31.0933 12.5365C31.0808 12.568 31.0683 12.6031 31.0784 12.6358C31.0867 12.6631 31.1093 12.6833 31.1307 12.7023C31.3464 12.8913 31.6079 13.0845 31.7761 13.318C31.8914 13.4785 31.9384 13.6669 32.0026 13.8499C32.5042 13.5391 32.9564 13.05 33.4081 12.6655C33.593 12.508 33.7778 12.3505 33.9626 12.1936C34.0714 12.1009 34.4464 11.8768 34.4666 11.7372C34.4856 11.6082 34.1581 11.232 34.0862 11.1161C34.0862 10.9105 33.7285 10.5913 33.653 10.3863C33.6197 10.2965 33.6054 10.1937 33.5828 10.1004C33.502 9.77056 33.4206 9.44131 33.3398 9.11147C33.215 8.60333 33.0896 8.09579 32.9648 7.58765C32.9873 7.67917 32.8031 7.96682 32.768 8.05002C32.6486 8.33054 32.5351 8.59917 32.4299 8.88444C32.2005 9.50431 31.8593 10.0826 31.4255 10.5812C31.3934 10.6181 31.3595 10.6573 31.3488 10.7054C31.3405 10.7435 31.3476 10.7833 31.3554 10.8213C31.4124 11.1161 31.4463 11.415 31.4605 11.7146C31.4635 11.7764 31.4653 11.8394 31.4487 11.8988C31.4487 11.9006 31.4475 11.903 31.4469 11.9047H31.4463Z" fill="#FCE8F1"/>
<path d="M36.9413 14.8147C37.0875 15.0863 36.8219 15.6045 36.9699 15.8993C37.1208 16.2006 37.5737 16.66 37.8542 16.8294C38.1347 16.9988 38.7885 17.3007 38.9685 17.4297C39.3251 17.6864 39.6853 17.7013 40.0662 17.8742C40.3836 18.0181 40.5684 18.3449 40.8995 18.4751C40.925 17.7774 40.0573 16.9798 39.4886 16.7034C39.082 16.5061 38.631 16.4205 38.2054 16.2678C37.5006 16.014 37.2837 15.45 36.9413 14.8147Z" fill="#FCEBF2"/>
<path d="M32.4367 11.5531C32.4759 11.7213 32.5395 11.8906 32.5704 12.0006C32.697 12.4517 32.7321 12.9081 32.7291 13.3746C33.3139 12.8332 33.8987 12.2918 34.4835 11.7504C34.4217 11.8074 33.6342 10.724 33.576 10.6093C33.2878 10.0411 33.0649 9.33329 33.0025 8.69797C32.9187 7.84275 32.8759 9.58944 32.864 9.94425C32.8521 10.2961 32.4438 11.1269 32.4373 11.1406C32.3862 11.2446 32.401 11.3985 32.4373 11.5537L32.4367 11.5531Z" fill="#FADDEA"/>
<path d="M31.9442 16.2035C31.6928 16.4056 31.3843 16.5173 31.0782 16.6724C30.8423 16.7919 30.5 17.0593 30.2456 17.0718C30.3027 16.5405 30.6206 16.1162 30.8476 15.6514C31.0895 15.1563 31.2827 14.6512 31.6357 14.2185C31.8402 13.9683 32.0832 13.752 32.3245 13.5374C33.0508 12.892 33.8501 12.2781 34.495 11.5542C34.5389 11.808 34.7012 11.9952 34.5847 12.2608C34.5074 12.4368 34.363 12.5734 34.2305 12.7131C33.3658 13.6254 32.9046 14.8378 32.2241 15.8951C32.1438 16.0199 32.0488 16.1197 31.9436 16.2041L31.9442 16.2035Z" fill="#D5E4F5"/>
<path d="M32.8631 7.32271C32.9736 8.17139 32.6527 9.05573 32.3377 9.82715C32.3026 9.91332 32.2652 10.0001 32.2069 10.0726C32.1428 10.1528 32.0554 10.2111 31.974 10.2741C31.8937 10.3359 31.8183 10.403 31.7469 10.4744C31.7196 10.5017 31.6923 10.5308 31.6774 10.5671C31.5116 10.9706 31.697 11.3944 31.6132 11.7985C31.5579 12.0642 31.2881 12.2157 31.2453 12.4766C31.2453 12.4766 31.3755 11.6737 31.3761 11.6707C31.3844 11.6196 31.1817 11.4877 31.1449 11.4443C31.0302 11.3094 30.9714 11.1655 30.9226 10.9962C30.8418 10.7156 30.761 10.4345 30.6801 10.154C30.6504 10.0512 30.6207 9.94661 30.6201 9.83963C30.6201 9.72374 30.6534 9.61141 30.6867 9.50087C30.7663 9.23699 30.846 8.97312 30.9256 8.70924C30.9512 8.62485 30.9773 8.53867 31.0272 8.46617C31.0837 8.38415 31.1669 8.32472 31.2483 8.26767C32.0144 7.72506 32.7775 7.17888 33.5406 6.6333L34.8398 10.5492C34.8398 10.9825 34.8932 11.455 34.8314 11.8805C34.2359 11.7931 33.6446 11.0015 33.4051 10.4969C32.9475 9.53059 32.9986 8.36573 32.8625 7.3233L32.8631 7.32271Z" fill="#7E8DC6"/>
<path d="M30.3113 10.3702C30.3178 10.7381 30.3659 11.1072 30.4533 11.4762C30.5199 11.7591 30.6655 12.0854 30.9537 12.1211C30.7849 11.1494 30.6168 10.1438 30.8563 9.18753C31.0946 8.23484 31.7115 7.43133 32.2618 6.61831C32.4211 6.38296 32.5798 6.13988 32.8038 5.96397C33.0576 5.76547 33.2686 5.77795 33.5657 5.77141C33.8784 5.76428 34.2028 5.70425 34.5161 5.67513C35.1211 5.61926 35.7267 5.56815 36.3317 5.51704C36.3626 5.51466 36.3953 5.51169 36.4244 5.52358C36.4535 5.53547 36.4755 5.55924 36.4963 5.58301C36.9807 6.12562 37.4668 6.66764 37.953 7.20906C38.0035 7.26552 38.0546 7.32257 38.0873 7.39092C38.1111 7.44203 38.1241 7.4973 38.1366 7.55198C38.2709 8.14213 38.4789 8.74298 38.5182 9.34918C38.5241 9.43892 38.5253 9.52926 38.5223 9.619C38.514 9.84365 38.4605 10.0529 38.4183 10.271C38.3678 10.5313 38.3987 10.8171 38.3012 11.0668C38.2584 11.1761 38.1901 11.273 38.1224 11.3687C37.6671 12.0105 37.3004 12.7219 36.756 13.2972C36.0916 14.0003 35.2946 14.6404 34.4162 15.06C34.2064 15.1604 33.8094 15.3298 33.7951 15.6127C34.188 15.5348 34.6159 15.2442 34.982 15.0724C35.4004 14.8757 35.8188 14.679 36.2372 14.4823L36.9129 13.8642L37.3711 13.6199L38.2067 12.6138L38.9164 10.829L39.012 8.69781L38.5645 6.94756L37.5465 5.66978L37.1429 5.10934L36.0482 4.60596L34.3609 4.91857C34.3609 4.91857 33.2941 5.1759 33.2484 5.1866C32.3058 5.41363 31.8167 6.0858 31.3917 6.9113C31.0702 7.53652 30.7469 8.16531 30.5347 8.83569C30.3743 9.34265 30.3024 9.85554 30.3119 10.3708L30.3113 10.3702Z" fill="#D5E4F5"/>
<path d="M34.0095 5.69714C34.2038 5.70546 34.4974 5.44574 34.687 5.38572C34.9402 5.30608 35.2142 5.27161 35.4786 5.28469C36.8473 5.35481 37.8505 6.67479 38.2148 7.88778C38.4847 8.78698 38.6475 9.76522 38.3682 10.6805C38.1429 11.4198 37.8107 12.1306 37.3501 12.7534C36.606 13.7584 35.6123 14.5685 34.5503 15.2175C34.0291 15.536 33.4728 15.8558 32.8993 16.0709C32.5754 16.1921 32.1112 16.308 31.7743 16.3354C31.7648 15.7298 32.1225 15.0071 32.4233 14.4966C32.8541 13.7644 33.5281 13.2996 34.0208 12.6316C34.1842 12.4099 34.3037 12.1389 34.2757 11.8643C34.2371 11.4887 33.9495 11.1815 33.7908 10.8516C33.6256 10.5093 33.4847 10.1509 33.395 9.78068C33.2375 9.13347 33.1834 8.22238 32.765 7.68037C32.1005 8.07975 32.16 9.37654 31.7778 9.9976C31.5193 10.4184 31.2281 10.7132 31.2281 10.8243C31.2281 10.9354 31.4527 11.6094 31.4545 11.6147C31.4527 11.6094 31.316 11.5606 31.303 11.5529C31.1912 11.4846 31.1538 11.4049 31.0979 11.2956C30.9636 11.0305 30.8965 10.7031 30.8424 10.4136C30.5613 8.90109 31.0896 7.37192 32.1404 6.26471C32.6984 5.67693 33.247 5.66208 34.0095 5.69536V5.69714Z" fill="#222F62"/>
<path d="M38.6933 9.99644C38.572 10.3257 38.5762 10.731 38.4894 11.0745C38.3866 11.4816 38.2457 11.8804 38.0514 12.2531C37.5813 13.1552 36.8711 13.5837 36.0474 14.1121C36.0474 14.1121 37.2829 13.0381 37.4535 12.807C37.6241 12.5758 37.9248 12.1027 38.0556 11.8216C38.1863 11.5405 38.3931 10.7072 38.4359 10.6431C38.4787 10.5789 38.6927 9.99823 38.6933 9.99585V9.99644Z" fill="#0A1839"/>
<path d="M36.2362 11.2468C36.0596 11.6831 35.9515 12.1704 35.7369 12.5828C35.4879 13.0601 35.145 13.4791 34.7836 13.8749C34.5025 14.1827 34.1406 14.4573 33.8862 14.7836C34.575 13.9004 35.2306 13.0024 35.8273 12.0545L36.2367 11.2474L36.2362 11.2468Z" fill="#0A1839"/>
<path d="M38.3873 8.81738C38.4604 10.1136 37.6795 11.3611 37.0329 12.4255C36.7333 12.9187 36.4071 13.5095 35.9476 13.8714C35.6701 14.0907 35.3527 14.2779 35.0615 14.4818C36.6555 12.9104 37.831 11.0021 38.3873 8.81738Z" fill="#0A1839"/>
<path d="M36.2365 7.90454C36.2365 7.90454 36.1598 8.76689 36.0475 8.93984C35.9352 9.11278 35.5685 10.1475 35.5685 10.1475L35.0615 11.0318L34.4868 11.7616C34.4868 11.7616 34.8256 11.036 34.828 11.0318C35.3153 9.98821 35.8258 8.98263 36.2371 7.90514L36.2365 7.90454Z" fill="#0A1839"/>
<path d="M35.3614 11.0531L34.6619 12.196C34.6619 12.196 33.6914 13.3388 33.6052 13.4684C33.519 13.5979 33.2385 13.8137 33.1737 13.9426C33.109 14.0722 32.5485 14.827 32.4837 15.0207C32.419 15.2145 32.3328 15.5384 32.3328 15.7321V16.185L32.2032 15.9693C32.2032 15.9693 32.1711 15.4896 32.2032 15.3007C32.2353 15.1123 32.4356 14.6945 32.4944 14.6041C32.5533 14.5138 33.0876 13.7483 33.0876 13.7483L33.8857 12.921L34.4248 12.2168L35.3614 11.0525V11.0531Z" fill="#0A1839"/>
<path d="M34.6831 5.74829C34.8127 5.87785 35.1574 6.65403 35.1574 6.71881C35.1574 6.78359 35.2435 6.95594 35.2435 7.12829C35.2435 7.30064 35.2649 7.62454 35.2435 7.68873C35.2221 7.75351 35.1681 7.05281 35.1467 6.97733C35.1253 6.90186 34.9095 6.29803 34.9095 6.29803L34.6831 5.74829Z" fill="#0A1839"/>
<path d="M34.1982 5.84521C34.6713 6.69627 34.8365 7.6971 34.8972 8.65811C34.9584 9.62625 34.9714 10.677 34.4948 11.553C34.4948 11.2796 34.6624 11.0556 34.7319 10.8012C34.8829 10.2473 34.8134 9.65953 34.7593 9.09731C34.7034 8.51488 34.6773 7.93126 34.5845 7.35299C34.5168 6.92925 34.4663 6.20002 34.1982 5.84581V5.84521Z" fill="#0A1839"/>
<path d="M33.3101 6.43283C33.3101 6.43283 33.3101 6.43223 33.3101 6.43164C33.1044 7.07469 32.9356 8.01133 33.0016 8.69657C33.0159 8.84575 33.275 9.78001 33.3035 9.99575C33.3951 10.684 34.0078 11.2866 34.4761 11.7531C34.3192 11.5968 34.1041 11.4958 33.9454 11.3294C33.7552 11.1303 33.5941 10.9027 33.4616 10.662C33.0991 10.0053 32.8513 9.18035 32.8637 8.42557C32.875 7.74032 33.0842 7.0735 33.3101 6.43224V6.43283Z" fill="#0A1839"/>
<path d="M32.369 8.44409C32.1824 8.68717 32.1122 9.01879 31.9856 9.29337C31.8686 9.54655 31.7562 9.8027 31.6617 10.0654C31.5987 10.2407 31.3907 10.6199 31.4389 10.8041C31.4947 11.0199 31.5667 11.2308 31.6326 11.4436C31.4745 11.2136 31.3093 10.961 31.3242 10.6817C31.3313 10.5486 31.3794 10.422 31.427 10.2978C31.534 10.0178 31.6409 9.73851 31.7485 9.45859C31.8929 9.0812 32.1229 8.76324 32.369 8.44469V8.44409Z" fill="#0A1839"/>
<path d="M30.7158 10.3702C30.8341 10.7108 30.7426 10.9901 31.0088 11.2884C31.1265 11.4204 31.2638 11.5339 31.3767 11.67C31.4326 11.7377 31.4849 11.8245 31.4593 11.9089C31.5247 11.6932 31.369 11.5327 31.262 11.3615L31.0231 11.1393L30.8721 10.8207L30.7158 10.3696V10.3702Z" fill="#0A1839"/>
<path d="M31.0068 9.94604C31.1168 10.5445 30.9391 10.9932 31.4835 11.4461C31.4324 11.3445 31.3824 11.2428 31.3337 11.14C31.3337 11.14 31.2059 10.9183 31.1899 10.8863C31.1738 10.8542 31.0134 9.98052 31.0068 9.94604Z" fill="#0A1839"/>
<path d="M30.6778 11.0039C30.7015 11.1935 30.7336 11.3801 30.7919 11.5495C30.8358 11.6767 30.8893 11.8033 30.9321 11.9287C30.7734 11.7979 30.6801 11.6054 30.6362 11.4075C30.5559 11.0509 30.6576 10.6818 30.5928 10.3306C30.632 10.5433 30.6498 10.7757 30.6784 11.0039H30.6778Z" fill="#0A1839"/>
<path d="M30.9433 12.111C30.5778 11.9595 30.3347 11.5928 30.2414 11.2083C30.1481 10.8238 30.1832 10.4202 30.2385 10.0286C30.456 8.49047 31.0134 6.78063 32.1837 5.69244C32.9574 4.97272 34.0742 4.79324 35.1208 4.64585C35.4042 4.60603 35.6919 4.56621 35.9754 4.60484C36.2464 4.64228 36.5037 4.75045 36.7432 4.88179C37.7886 5.45471 38.3378 6.3866 38.7811 7.45161C38.925 7.79691 38.9969 8.44709 39.0111 8.6967C39.0254 8.94631 39.0973 9.30587 39.0973 9.59352C39.0973 9.88117 39.0539 10.082 39.0111 10.3697C38.9683 10.6573 38.8958 10.9159 38.7811 11.304C38.6658 11.692 38.3639 12.3535 38.2058 12.612C38.0478 12.8706 37.8035 13.1873 37.602 13.4459C37.4011 13.7044 37.1569 13.9487 37.0701 13.992C35.8417 14.6083 34.7493 15.3816 33.4353 15.8404C33.9072 15.6757 34.3808 15.3168 34.8182 15.0731C35.3086 14.8003 35.7965 14.5228 36.2749 14.2298C37.1563 13.6895 37.7916 13.0524 38.2659 12.1235C38.6076 11.4549 38.7859 10.753 38.8697 10.0113C38.9487 9.31241 38.9089 8.55763 38.733 7.87536C38.5654 7.22399 38.2629 6.56905 37.8362 6.05081C37.6846 5.86717 37.5598 5.59972 37.3696 5.45233C36.9631 5.13675 36.48 4.83781 35.9677 4.74272C35.5231 4.66011 35.0673 4.75401 34.6251 4.84792C34.0831 4.96262 33.5197 5.08386 33.024 5.33882C32.3144 5.70314 31.7635 6.32835 31.3748 7.02489C30.8904 7.89259 30.5237 9.00039 30.3656 9.98101C30.2432 10.7388 30.3704 11.5993 30.9433 12.1104V12.111Z" fill="#0A1839"/>
<path d="M34.3603 4.91743C34.267 5.1082 33.8028 5.23063 33.7761 5.41011C33.7493 5.5896 33.6655 5.66864 33.6655 5.66864C33.6655 5.66864 33.9454 5.4529 34.0132 5.35246C34.0804 5.25203 34.3621 5.1082 34.4875 5.03629C34.6129 4.96438 35.1769 4.74805 35.1769 4.74805L34.3609 4.91743H34.3603Z" fill="#0A1839"/>
<path opacity="0.7" d="M37.6477 6.24463C37.6459 6.92869 36.2475 7.66266 34.4462 7.9093C33.0156 8.10543 31.748 7.93664 31.1929 7.52954L31.534 7.00595C31.7919 7.50576 32.9871 7.78866 34.3814 7.6484C35.2229 7.56401 35.9622 7.34292 36.4496 7.06122C36.5572 6.99881 36.6528 6.93403 36.7343 6.86688L37.6471 6.24463H37.6477Z" fill="#D5E4F5"/>
<path d="M33.669 12.7422C33.3462 13.0958 32.8999 13.3674 32.5582 13.7121C32.1903 14.0836 31.8509 14.4829 31.5437 14.9067C31.1431 15.4588 30.9137 16.1209 30.7241 16.771C30.8424 16.7378 30.9601 16.7045 31.0783 16.6712C31.1372 16.6546 31.2121 15.9396 31.2459 15.8409C31.2982 15.6894 31.8468 14.7837 31.8468 14.7837L32.4369 14.1127C32.8458 13.6545 33.2553 13.1962 33.6695 12.7422H33.669Z" fill="#7E8DC6"/>
<path d="M30.2549 17.2144C30.3149 16.7729 30.4569 16.2766 30.7654 15.942C30.9496 15.7423 31.1333 15.6015 31.251 15.3513C31.3627 15.1135 31.4346 14.8592 31.5428 14.6203C31.5737 14.5525 31.6046 14.4842 31.6456 14.4212C31.8976 14.0361 32.3807 13.6705 32.7296 13.3722C32.8633 13.2575 34.1869 12.1051 34.1869 12.1051L34.4834 11.7485C33.7411 12.3119 32.9602 12.8706 32.3189 13.5511C31.8114 14.0901 31.3978 14.7385 30.955 15.3328C30.5277 15.9064 30.5134 16.5869 30.2555 17.2139L30.2549 17.2144Z" fill="#0A1839"/>
<path d="M37.4869 25.3505L38.0349 24.0942C38.1341 23.8969 38.234 23.7001 38.3332 23.5028C38.4491 23.2734 38.7825 22.8437 38.6922 22.5828C38.6708 22.5222 38.6339 22.4681 38.6108 22.4075C38.5068 22.1323 39.0339 21.5261 39.1445 21.2652C39.3174 20.8546 39.4975 20.4094 39.6478 19.9898C39.8945 19.2998 39.9373 18.5843 40.1132 17.8747C40.1132 17.8747 40.2142 17.2393 40.2148 17.2382C40.2422 17.0343 39.5545 16.8881 39.5444 16.7033C39.5682 17.1306 39.7649 17.6833 39.6758 18.1041C39.3709 19.5441 38.8188 20.8783 38.2346 22.2447C38.1692 22.3968 37.938 22.7011 37.8269 22.7986C37.7627 22.855 37.6664 22.9697 37.5844 22.9852C37.2914 23.041 36.999 23.0975 36.706 23.1534L35.0657 23.0422L34.6437 22.9145L34.3061 20.4593C34.2604 20.2151 34.1231 19.9637 34.0411 19.7295C33.9026 19.3361 33.7701 18.9426 33.6138 18.5557C33.3998 18.0256 33.1597 17.5056 32.8941 16.9992C32.7871 16.7948 32.6545 16.3942 32.4762 16.248C32.3128 16.1143 32.0442 16.2284 31.8267 16.2724C31.9158 16.2546 32.4346 17.2179 32.497 17.3285C32.7116 17.7083 32.8614 18.1076 33.0272 18.51C33.1995 18.9272 33.4236 19.3284 33.5323 19.7693C33.6126 20.0944 33.6375 20.4415 33.6857 20.7731C33.7534 21.2385 33.8539 21.7104 33.8907 22.1793L33.9418 22.8259C33.9418 22.8259 33.8877 23.0642 33.8877 23.0648C33.8776 23.1082 33.2459 23.0553 33.1722 23.041C32.9285 22.9935 32.7728 22.8461 32.5547 22.7522C32.6219 22.7813 32.5951 23.7275 32.5987 23.8261C32.6088 24.1132 32.6183 24.4002 32.6284 24.6879C32.6355 24.8959 32.5547 25.4278 32.6605 25.6002C32.664 25.6055 32.4816 25.2846 32.4858 25.2905" fill="#BB1E6F"/>
<path d="M40.3773 19.3558C40.3773 19.3558 39.9892 20.9088 39.903 21.0811C39.8168 21.2535 39.0977 22.2668 39.0977 22.2668L38.2853 23.5178L37.6815 24.7468L37.4871 25.3507L37.25 25.4107L37.3701 25.1135L37.7029 24.2292L38.7132 22.5146L39.3634 21.6196L39.6867 21.1019L40.01 20.2396L40.3767 19.3552L40.3773 19.3558Z" fill="#804F69"/>
<path d="M31.7744 16.3367L32.3247 16.1899L32.7966 16.6707L32.1964 16.8859L31.7744 16.3367Z" fill="#D25398"/>
<path d="M31.729 16.2672C31.729 16.2672 32.2579 16.9709 32.4036 17.2145C32.5492 17.4576 33.0882 18.8382 33.0882 18.8382L33.6688 20.4018C33.6688 20.4018 33.9345 22.5057 33.9369 22.5259C33.9553 22.6697 33.9 22.8635 33.8828 23.0067C33.4311 22.9616 32.9895 22.8041 32.5509 22.6941C32.5872 22.703 32.6757 22.854 32.7257 22.8861C32.8362 22.9568 33.005 22.9853 33.1322 23.0133C33.3681 23.0656 34.1586 23.2427 34.1051 22.829C34.0248 22.2074 33.9434 21.5863 33.8614 20.9647C33.8026 20.516 33.6683 20.1106 33.5304 19.6821L33.0989 18.4929L32.6026 17.4362L32.1961 16.7135L31.9091 16.3213L31.729 16.2666V16.2672Z" fill="#804F69"/>
<path d="M32.3247 16.1899C32.5654 16.6838 32.9066 17.142 33.1603 17.6305C33.5455 18.3699 33.8123 19.1805 34.0483 19.9787C34.289 20.7929 34.469 21.6249 34.5867 22.4659C34.6075 22.6151 34.6164 22.7678 34.6438 22.9158C34.6657 23.0364 34.6949 23.04 34.8024 23.097C34.8024 23.097 36.2734 23.1505 36.2912 23.1511C36.5806 23.1618 36.876 23.1511 37.1637 23.119C37.4394 23.0887 37.7806 23.0953 37.9731 22.8522C38.2197 22.5414 38.3576 22.0861 38.511 21.7236C39.0595 20.4232 39.5997 19.1009 39.806 17.7048C39.7335 17.6822 39.6604 17.6573 39.5867 17.6383C39.6806 17.8302 39.6093 18.1321 39.5653 18.3324C39.3894 19.1282 39.1184 19.9038 38.8141 20.6592C38.6625 21.0348 38.5062 21.4104 38.3368 21.7777C38.1853 22.1063 38.0539 22.6644 37.7372 22.8718C37.6147 22.952 37.462 22.9663 37.3158 22.9758C36.8992 23.0037 36.4814 23.0144 36.0642 23.0091C35.8508 23.0061 35.638 22.999 35.4247 22.9877C35.2737 22.9794 35.017 23.0115 34.8815 22.9437C34.7175 22.8789 34.7281 22.6436 34.7079 22.4926C34.5974 21.6665 34.4292 20.8482 34.2063 20.0452C33.9835 19.2423 33.7541 18.4858 33.3987 17.7726C33.3149 17.6038 33.234 17.4332 33.152 17.2638L32.796 16.6707C32.796 16.6707 32.446 16.1156 32.4359 16.0996C32.427 16.0859 32.301 16.0996 32.2808 16.0996C32.2944 16.1299 32.3087 16.1602 32.3236 16.1899H32.3247Z" fill="#804F69"/>
<path d="M31.9093 16.3216L32.0965 16.2622L32.3247 16.1897L32.4364 16.0994L31.8267 16.2105L31.9093 16.3216Z" fill="#804F69"/>
<path d="M32.4618 11.3777C32.517 11.4687 32.5967 11.5453 32.6906 11.5964C32.7868 11.5524 32.8778 11.4966 32.9705 11.4461C33.059 11.3801 33.1482 11.3141 33.2367 11.2482C33.3057 11.197 33.339 11.1899 33.2694 11.1138C33.1945 11.0318 33.0971 10.9736 32.9943 10.9332C32.8641 10.8821 32.725 10.8589 32.5866 10.8357C32.5562 10.831 32.5253 10.8256 32.4956 10.8321C32.2704 10.8803 32.3613 11.1525 32.4184 11.2927C32.4303 11.3224 32.4445 11.351 32.4612 11.3777H32.4618Z" fill="white"/>
<path d="M32.3892 10.9824C32.4646 10.9937 32.5437 11.0026 32.6001 11.0603C32.6441 11.1054 32.6667 11.1667 32.6839 11.2273C32.716 11.3402 32.7291 11.4537 32.741 11.5702C32.7392 11.5542 32.9704 11.4377 32.9918 11.4252C33.1011 11.3598 33.2111 11.295 33.3205 11.2297C33.3383 11.1138 33.2901 11.0805 33.1974 11.0264C33.0964 10.9682 32.9829 10.9355 32.8711 10.9034C32.8087 10.8856 32.7463 10.8677 32.6839 10.8499C32.6138 10.8297 32.5556 10.8873 32.4979 10.9218L32.3892 10.9818V10.9824Z" fill="#BEE5F9"/>
<path d="M32.3901 10.9814C32.5054 11.0146 32.6237 11.0366 32.7414 11.0604H33.1509V11.1478C33.1509 11.2387 33.0581 11.3118 32.9904 11.3546C32.8906 11.4176 32.8246 11.4669 32.8115 11.5887C32.9613 11.4836 33.1051 11.3694 33.24 11.2458C33.278 11.2114 33.3185 11.1668 33.3095 11.1163C33.3054 11.0931 33.2911 11.0735 33.2757 11.0568C33.1657 10.9398 32.9637 10.8863 32.8091 10.8744C32.7651 10.8708 32.4187 10.8583 32.4074 10.9041C32.4014 10.9296 32.3949 10.9552 32.3901 10.9808V10.9814Z" fill="#25316C"/>
<path d="M32.1231 10.3056C32.1457 10.3157 32.1736 10.3198 32.2111 10.3175C32.4328 10.3032 32.6515 10.3507 32.8672 10.3959C33.0045 10.4244 33.3724 10.4619 33.4603 10.5635C33.3183 10.3995 33.1976 10.3026 32.9795 10.2485C32.6931 10.1784 32.3103 10.1106 32.0215 10.1909C32.0381 10.236 32.0756 10.2854 32.1231 10.3056Z" fill="#0A1839"/>
<path d="M32.1203 10.7378C32.1203 10.7378 32.1197 10.7419 32.1197 10.7443C32.1179 10.78 32.1429 10.8109 32.1685 10.8352C32.2933 10.9559 32.4056 10.9707 32.5726 10.9636C32.6736 10.9595 33.2394 10.9624 33.2608 11.1128C33.2656 11.1479 33.243 11.1805 33.2198 11.2079C33.1134 11.3309 32.9726 11.3945 32.8329 11.4706C32.7473 11.5175 32.7366 11.5324 32.6903 11.5989C32.676 11.6197 32.6588 11.6388 32.6427 11.6572C32.7521 11.7089 32.8816 11.6839 32.9666 11.5966C33.1306 11.426 33.2953 11.256 33.4593 11.0854C33.4177 11.1288 33.0029 10.903 32.9399 10.8727C32.7871 10.799 32.629 10.7289 32.4614 10.6968C32.4014 10.6855 32.1375 10.6462 32.1209 10.7378H32.1203Z" fill="#0A1839"/>
<path d="M32.3483 10.9106C32.3108 10.9213 32.296 10.9534 32.29 10.9891C32.277 11.0693 32.3097 11.1626 32.3471 11.2334C32.3316 11.2048 32.3596 11.0022 32.3893 10.982C32.4137 10.9653 32.4446 10.9612 32.4683 10.9445C32.4784 10.9374 32.4874 10.9285 32.4975 10.9219C32.5135 10.9124 32.5331 10.91 32.5509 10.9148C32.5753 10.9219 32.6038 10.9427 32.6229 10.9255C32.6781 10.8768 32.5866 10.8857 32.5676 10.8892C32.5141 10.8982 32.4606 10.9041 32.4059 10.9047C32.3863 10.9047 32.3661 10.9047 32.3471 10.91L32.3483 10.9106Z" fill="#0A1839"/>
<path d="M32.4793 10.995C32.5084 10.9998 32.5518 11.0884 32.5655 11.1109C32.5958 11.1609 32.6213 11.2132 32.6415 11.2678C32.6742 11.3552 32.7039 11.4628 32.7039 11.5567C32.7039 11.5668 32.6718 11.6702 32.6564 11.6577C32.5506 11.5692 32.487 11.4663 32.4264 11.3439C32.3729 11.2357 32.3188 11.064 32.3836 10.9517C32.408 10.957 32.4543 10.9915 32.4787 10.9956L32.4793 10.995Z" fill="#0A1839"/>
<path d="M32.1446 10.5635L32.2427 10.7881L32.3449 10.942L32.3627 10.8642L32.1196 10.4951L32.1446 10.5635Z" fill="#0A1839"/>
<path d="M32.2951 10.5491L32.3842 10.8023L32.4395 10.8855L32.5292 10.8409L32.408 10.7173L32.2778 10.5063L32.2951 10.5491Z" fill="#0A1839"/>
<path d="M32.4427 10.5515L32.4891 10.8154L32.5295 10.9069L32.6258 10.8778L32.5259 10.7358L32.4326 10.5063L32.4427 10.5515Z" fill="#0A1839"/>
<path d="M32.5925 10.6134L32.6038 10.8541L32.6312 10.9414L32.7239 10.9284L32.6478 10.7887L32.5884 10.5718L32.5925 10.6134Z" fill="#0A1839"/>
<path d="M32.722 10.6777L32.7375 10.8661L32.763 10.935L32.8415 10.9273L32.7737 10.8162L32.7173 10.645L32.722 10.6777Z" fill="#0A1839"/>
<path d="M32.5116 11.2397C32.5243 11.2336 32.5179 11.1934 32.4972 11.1498C32.4765 11.1062 32.4494 11.0758 32.4367 11.0818C32.4239 11.0879 32.4303 11.1281 32.451 11.1717C32.4717 11.2153 32.4988 11.2457 32.5116 11.2397Z" fill="white"/>
<path d="M32.6005 11.2944C32.61 11.3295 32.6118 11.3669 32.6077 11.4026C32.6047 11.4264 32.6023 11.4513 32.5928 11.4733C32.5791 11.5066 32.556 11.5084 32.5215 11.5054C32.5221 11.5054 32.5435 11.5417 32.55 11.5458C32.5643 11.5559 32.5803 11.5589 32.5964 11.5488C32.6124 11.5387 32.6201 11.5215 32.6273 11.5042C32.6534 11.4383 32.619 11.3604 32.6005 11.2944Z" fill="#BEE5F9"/>
<path d="M32.5433 11.7628L32.7162 11.6487L32.7685 11.5958L32.7174 11.5542L32.6485 11.6558L32.5142 11.7836L32.5433 11.7628Z" fill="#0A1839"/>
<path d="M32.687 11.7645L32.8338 11.6189L32.8742 11.5565L32.8159 11.5256L32.7684 11.6391L32.6626 11.7907L32.687 11.7645Z" fill="#0A1839"/>
<path d="M32.8121 11.7402L32.9518 11.5869L32.9892 11.5227L32.9298 11.4954L32.8876 11.6107L32.7896 11.7676L32.8121 11.7402Z" fill="#0A1839"/>
<path d="M31.3672 11.7955C31.3672 11.8514 31.3078 11.9411 31.2864 11.9934C31.2549 12.0701 31.2234 12.1473 31.1925 12.224C31.1592 12.3048 31.1313 12.391 31.0962 12.4701C31.0647 12.5414 31.0023 12.6145 31.0433 12.6965C31.0552 12.7209 31.0754 12.7399 31.0956 12.7589C31.4498 13.0917 31.8433 13.3924 31.9401 13.8929C31.9675 13.8881 31.9906 13.8667 32.015 13.8495C32.0554 13.8203 31.8961 13.5155 31.8789 13.4768C31.804 13.3116 31.6667 13.1815 31.5366 13.0596C31.3981 12.9307 31.2668 12.7952 31.1265 12.6686C31.0427 12.5931 31.2822 12.2062 31.3268 12.1117C31.3743 12.0113 31.4225 11.8912 31.3678 11.7949L31.3672 11.7955Z" fill="#0A1839"/>
<path d="M31.8293 11.0305C31.8542 11.1119 31.8572 11.2029 31.8709 11.2867C31.8851 11.3722 31.9113 11.4555 31.9065 11.5434C31.9012 11.6385 31.8697 11.7282 31.8477 11.8221C31.8257 11.9178 31.8073 12.0153 31.7585 12.1074C31.7027 12.2126 31.6474 12.3172 31.5915 12.4224C31.5654 12.4711 31.5392 12.5211 31.5303 12.5722C31.5226 12.6167 31.5279 12.6797 31.5707 12.7101C31.5737 12.6732 31.5434 12.6316 31.5636 12.5936C31.6403 12.4503 31.6997 12.3047 31.7728 12.1603C31.796 12.114 31.8209 12.0682 31.8394 12.0212C31.8762 11.9279 31.8869 11.8317 31.9154 11.7378C31.944 11.6439 31.9743 11.5547 31.9594 11.4632C31.9541 11.4329 31.9451 11.4026 31.9356 11.3728C31.9 11.2587 31.8643 11.1446 31.8287 11.0305H31.8293Z" fill="#FADDEA"/>
<path opacity="0.7" d="M34.6623 12.196C34.5482 12.3874 34.2903 12.7268 34.0739 12.9877C33.7696 13.3538 33.4255 13.6652 33.1688 14.0717C32.9037 14.4913 32.7088 14.9554 32.5977 15.4392C32.6933 15.025 33.0071 14.6595 33.2223 14.3029C33.6615 13.5737 34.2285 12.9253 34.6629 12.196H34.6623Z" fill="#D5E4F5"/>
<path opacity="0.7" d="M37.7918 10.1558C37.3354 11.0187 36.8706 11.903 36.3156 12.7167C35.8847 13.3484 35.3759 13.9196 34.8589 14.4806C35.0746 14.2464 35.3878 14.0705 35.6273 13.8572C35.8769 13.6343 36.0285 13.3823 36.2407 13.1291C36.4796 12.8438 36.6775 12.5312 36.8487 12.2014C37.1957 11.5346 37.4406 10.8196 37.7918 10.1558Z" fill="#D5E4F5"/>
<path d="M40.1139 17.8747L39.5873 17.6381L39.5029 16.7039L40.2256 17.0735L40.1139 17.8747Z" fill="#D25398"/>
<path d="M38.7073 22.5305C38.6669 22.5151 38.6169 22.5073 38.5902 22.505C38.6247 22.3362 38.7483 22.1543 38.8208 21.9962C38.904 21.815 38.986 21.6331 39.0657 21.4501C39.2184 21.1 39.364 20.747 39.4995 20.3904C39.6314 20.0439 39.7592 19.6962 39.8561 19.3385C39.9084 19.1453 39.9559 18.951 40.0011 18.7554C40.0415 18.5825 40.1289 18.3679 40.1289 18.1908C40.1289 18.1908 40.2151 17.3303 40.2151 17.3285C40.2335 17.1436 40.0843 16.9291 39.9304 16.8471C39.8008 16.7781 39.6528 16.7389 39.5405 16.645C39.5429 16.9107 39.5453 17.1769 39.5476 17.4426C39.5482 17.521 39.5506 17.6048 39.597 17.669C39.6261 17.7094 39.7729 17.7837 39.7854 17.691C39.7889 17.6649 39.7759 17.6399 39.7646 17.6167C39.7045 17.4961 39.6629 17.3665 39.641 17.2334C39.6344 17.1954 39.619 16.8643 39.6231 16.8655C39.7467 16.9006 40.035 16.9689 40.0944 17.102C40.1087 17.1335 40.1087 17.1692 40.1075 17.2037C40.0831 18.5849 39.6148 19.849 39.1108 21.1119C39.1061 21.1232 39.1025 21.1351 39.0972 21.1458C39.0972 21.1458 38.5813 22.2548 38.5759 22.2666C38.5337 22.357 38.4297 22.4497 38.4369 22.5579C38.4464 22.6999 38.6401 22.7272 38.7317 22.6464C38.7976 22.5882 38.7614 22.5519 38.7067 22.5305H38.7073Z" fill="#804F69"/>
<mask id="mask0_481_3243" style="mask-type:luminance" maskUnits="userSpaceOnUse" x="21" y="0" width="27" height="27">
<path d="M34.5033 0.0310059C27.0625 0.0310059 21.0308 6.0633 21.0308 13.5035C21.0308 20.9438 27.0625 26.976 34.5033 26.976C41.9441 26.976 47.9752 20.9438 47.9752 13.5035C47.9752 6.0633 41.9435 0.0310059 34.5033 0.0310059ZM43.5648 22.5656C41.1448 24.9863 37.9259 26.3193 34.5033 26.3193C31.0806 26.3193 27.8618 24.9863 25.4412 22.5656C23.0205 20.145 21.6875 16.9268 21.6875 13.5035C21.6875 10.0803 23.0205 6.86206 25.4412 4.44142C27.8612 2.02077 31.08 0.688318 34.5033 0.688318C37.9265 0.688318 41.1448 2.02137 43.5648 4.44201C45.9854 6.86265 47.3185 10.0809 47.3185 13.5041C47.3185 16.9274 45.9854 20.1456 43.5648 22.5662V22.5656Z" fill="white"/>
</mask>
<g mask="url(#mask0_481_3243)">
<path d="M22.3453 0.688232H21.688V26.3187H22.3453V0.688232Z" fill="#0B193A"/>
<path d="M23.0025 0.688232H22.3452V26.3187H23.0025V0.688232Z" fill="#0B193B"/>
<path d="M23.6593 0.688232H23.002V26.3187H23.6593V0.688232Z" fill="#0C1A3C"/>
<path d="M24.3165 0.688232H23.6592V26.3187H24.3165V0.688232Z" fill="#0C1A3D"/>
<path d="M24.9742 0.688232H24.3169V26.3187H24.9742V0.688232Z" fill="#0D1B3E"/>
<path d="M25.6314 0.688232H24.9741V26.3187H25.6314V0.688232Z" fill="#0E1B3F"/>
<path d="M26.2882 0.688232H25.6309V26.3187H26.2882V0.688232Z" fill="#0E1C40"/>
<path d="M26.9454 0.688232H26.2881V26.3187H26.9454V0.688232Z" fill="#0F1D41"/>
<path d="M27.6026 0.688232H26.9453V26.3187H27.6026V0.688232Z" fill="#0F1D42"/>
<path d="M28.2599 0.688232H27.6025V26.3187H28.2599V0.688232Z" fill="#101E43"/>
<path d="M28.9176 0.688232H28.2603V26.3187H28.9176V0.688232Z" fill="#111E44"/>
<path d="M29.5738 0.688232H28.9165V26.3187H29.5738V0.688232Z" fill="#111F45"/>
<path d="M30.2315 0.688232H29.5742V26.3187H30.2315V0.688232Z" fill="#121F46"/>
<path d="M30.8888 0.688232H30.2314V26.3187H30.8888V0.688232Z" fill="#122047"/>
<path d="M31.546 0.688232H30.8887V26.3187H31.546V0.688232Z" fill="#132148"/>
<path d="M32.2027 0.688232H31.5454V26.3187H32.2027V0.688232Z" fill="#142149"/>
<path d="M32.8599 0.688232H32.2026V26.3187H32.8599V0.688232Z" fill="#14224A"/>
<path d="M33.5172 0.688232H32.8599V26.3187H33.5172V0.688232Z" fill="#15224B"/>
<path d="M34.1744 0.688232H33.5171V26.3187H34.1744V0.688232Z" fill="#15234C"/>
<path d="M34.8321 0.688232H34.1748V26.3187H34.8321V0.688232Z" fill="#16244E"/>
<path d="M35.4889 0.688232H34.8315V26.3187H35.4889V0.688232Z" fill="#17244F"/>
<path d="M36.1461 0.688232H35.4888V26.3187H36.1461V0.688232Z" fill="#172550"/>
<path d="M36.8033 0.688232H36.146V26.3187H36.8033V0.688232Z" fill="#182551"/>
<path d="M37.4605 0.688232H36.8032V26.3187H37.4605V0.688232Z" fill="#182652"/>
<path d="M38.1173 0.688232H37.46V26.3187H38.1173V0.688232Z" fill="#192653"/>
<path d="M38.7745 0.688232H38.1172V26.3187H38.7745V0.688232Z" fill="#1A2754"/>
<path d="M39.4317 0.688232H38.7744V26.3187H39.4317V0.688232Z" fill="#1A2855"/>
<path d="M40.0894 0.688232H39.4321V26.3187H40.0894V0.688232Z" fill="#1B2856"/>
<path d="M40.7467 0.688232H40.0894V26.3187H40.7467V0.688232Z" fill="#1B2957"/>
<path d="M41.4034 0.688232H40.7461V26.3187H41.4034V0.688232Z" fill="#1C2958"/>
<path d="M42.0606 0.688232H41.4033V26.3187H42.0606V0.688232Z" fill="#1D2A59"/>
<path d="M42.7179 0.688232H42.0605V26.3187H42.7179V0.688232Z" fill="#1D2A5A"/>
<path d="M43.3751 0.688232H42.7178V26.3187H43.3751V0.688232Z" fill="#1E2B5B"/>
<path d="M44.0318 0.688232H43.3745V26.3187H44.0318V0.688232Z" fill="#1E2C5C"/>
<path d="M44.689 0.688232H44.0317V26.3187H44.689V0.688232Z" fill="#1F2C5D"/>
<path d="M45.3468 0.688232H44.6895V26.3187H45.3468V0.688232Z" fill="#202D5E"/>
<path d="M46.004 0.688232H45.3467V26.3187H46.004V0.688232Z" fill="#202D5F"/>
<path d="M46.6612 0.688232H46.0039V26.3187H46.6612V0.688232Z" fill="#212E60"/>
<path d="M47.318 0.688232H46.6606V26.3187H47.318V0.688232Z" fill="#212E61"/>
<path d="M21.6881 0.0310059H21.0308V26.976H21.6881V0.0310059Z" fill="#0A1839"/>
<path d="M22.3453 0.0310059H21.688V26.976H22.3453V0.0310059Z" fill="#0B193A"/>
<path d="M23.0025 0.0310059H22.3452V26.976H23.0025V0.0310059Z" fill="#0B193B"/>
<path d="M23.6593 0.0310059H23.002V26.976H23.6593V0.0310059Z" fill="#0C1A3C"/>
<path d="M24.3165 0.0310059H23.6592V26.976H24.3165V0.0310059Z" fill="#0C1A3D"/>
<path d="M24.9742 0.0310059H24.3169V26.976H24.9742V0.0310059Z" fill="#0D1B3E"/>
<path d="M25.6314 0.0310059H24.9741V26.976H25.6314V0.0310059Z" fill="#0E1B3F"/>
<path d="M26.2882 0.0310059H25.6309V26.976H26.2882V0.0310059Z" fill="#0E1C40"/>
<path d="M26.9454 0.0310059H26.2881V26.976H26.9454V0.0310059Z" fill="#0F1D41"/>
<path d="M27.6026 0.0310059H26.9453V26.976H27.6026V0.0310059Z" fill="#0F1D42"/>
<path d="M28.2599 0.0310059H27.6025V26.976H28.2599V0.0310059Z" fill="#101E43"/>
<path d="M28.9176 0.0310059H28.2603V26.976H28.9176V0.0310059Z" fill="#111E44"/>
<path d="M29.5738 0.0310059H28.9165V26.976H29.5738V0.0310059Z" fill="#111F45"/>
<path d="M30.2315 0.0310059H29.5742V26.976H30.2315V0.0310059Z" fill="#121F46"/>
<path d="M30.8888 0.0310059H30.2314V26.976H30.8888V0.0310059Z" fill="#122047"/>
<path d="M31.546 0.0310059H30.8887V26.976H31.546V0.0310059Z" fill="#132148"/>
<path d="M32.2027 0.0310059H31.5454V26.976H32.2027V0.0310059Z" fill="#142149"/>
<path d="M32.8599 0.0310059H32.2026V26.976H32.8599V0.0310059Z" fill="#14224A"/>
<path d="M33.5172 0.0310059H32.8599V26.976H33.5172V0.0310059Z" fill="#15224B"/>
<path d="M34.1744 0.0310059H33.5171V26.976H34.1744V0.0310059Z" fill="#15234C"/>
<path d="M34.8321 0.0310059H34.1748V26.976H34.8321V0.0310059Z" fill="#16244E"/>
<path d="M35.4889 0.0310059H34.8315V26.976H35.4889V0.0310059Z" fill="#17244F"/>
<path d="M36.1461 0.0310059H35.4888V26.976H36.1461V0.0310059Z" fill="#172550"/>
<path d="M36.8033 0.0310059H36.146V26.976H36.8033V0.0310059Z" fill="#182551"/>
<path d="M37.4605 0.0310059H36.8032V26.976H37.4605V0.0310059Z" fill="#182652"/>
<path d="M38.1173 0.0310059H37.46V26.976H38.1173V0.0310059Z" fill="#192653"/>
<path d="M38.7745 0.0310059H38.1172V26.976H38.7745V0.0310059Z" fill="#1A2754"/>
<path d="M39.4317 0.0310059H38.7744V26.976H39.4317V0.0310059Z" fill="#1A2855"/>
<path d="M40.0894 0.0310059H39.4321V26.976H40.0894V0.0310059Z" fill="#1B2856"/>
<path d="M40.7467 0.0310059H40.0894V26.976H40.7467V0.0310059Z" fill="#1B2957"/>
<path d="M41.4034 0.0310059H40.7461V26.976H41.4034V0.0310059Z" fill="#1C2958"/>
<path d="M42.0606 0.0310059H41.4033V26.976H42.0606V0.0310059Z" fill="#1D2A59"/>
<path d="M42.7179 0.0310059H42.0605V26.976H42.7179V0.0310059Z" fill="#1D2A5A"/>
<path d="M43.3751 0.0310059H42.7178V26.976H43.3751V0.0310059Z" fill="#1E2B5B"/>
<path d="M44.0318 0.0310059H43.3745V26.976H44.0318V0.0310059Z" fill="#1E2C5C"/>
<path d="M44.689 0.0310059H44.0317V26.976H44.689V0.0310059Z" fill="#1F2C5D"/>
<path d="M45.3468 0.0310059H44.6895V26.976H45.3468V0.0310059Z" fill="#202D5E"/>
<path d="M46.004 0.0310059H45.3467V26.976H46.004V0.0310059Z" fill="#202D5F"/>
<path d="M46.6612 0.0310059H46.0039V26.976H46.6612V0.0310059Z" fill="#212E60"/>
<path d="M47.318 0.0310059H46.6606V26.976H47.318V0.0310059Z" fill="#212E61"/>
<path d="M47.9752 0.0310059H47.3179V26.976H47.9752V0.0310059Z" fill="#222F62"/>
</g>
<path d="M34.5034 27.0069C30.8965 27.0069 27.5054 25.6025 24.9552 23.0517C22.4044 20.5009 21 17.1103 21 13.5034C21 9.89653 22.4044 6.50537 24.9552 3.95517C27.5054 1.40437 30.8965 0 34.5034 0C38.1103 0 41.5009 1.40437 44.0511 3.95517C46.6013 6.50537 48.0063 9.89653 48.0063 13.5034C48.0063 17.1103 46.6019 20.5009 44.0511 23.0517C41.5009 25.6025 38.1097 27.0069 34.5034 27.0069ZM34.5034 0.0618087C30.9132 0.0618087 27.5375 1.46023 24.9985 3.99914C22.4596 6.53746 21.0618 9.91317 21.0618 13.5034C21.0618 17.0937 22.4596 20.4694 24.9985 23.0077C27.5375 25.5466 30.9132 26.945 34.5034 26.945C38.0937 26.945 41.4688 25.5466 44.0077 23.0077C46.5466 20.4688 47.9444 17.0937 47.9444 13.5034C47.9444 9.91317 46.5466 6.53746 44.0077 3.99914C41.4688 1.46023 38.0937 0.0618087 34.5034 0.0618087ZM34.5034 26.3495C31.0719 26.3495 27.8459 25.0135 25.4199 22.5869C22.9933 20.1603 21.6573 16.9344 21.6573 13.5034C21.6573 10.0724 22.9933 6.84591 25.4199 4.41992C27.8453 1.99333 31.0713 0.657312 34.5034 0.657312C37.9356 0.657312 41.1609 1.99333 43.5863 4.41992C46.0129 6.84651 47.3489 10.0724 47.3489 13.5034C47.3489 16.9344 46.0123 20.1609 43.5863 22.5869C41.1609 25.0135 37.935 26.3495 34.5034 26.3495ZM34.5034 0.719121C31.0879 0.719121 27.8774 2.0492 25.4633 4.4633C23.0486 6.87801 21.7191 10.0885 21.7191 13.5034C21.7191 16.9184 23.0492 20.1288 25.4633 22.5435C27.878 24.9583 31.0885 26.2877 34.5034 26.2877C37.9184 26.2877 41.1288 24.9577 43.543 22.5435C45.9577 20.1288 47.2871 16.9184 47.2871 13.5034C47.2871 10.0885 45.9571 6.87801 43.543 4.4633C41.1288 2.0486 37.9184 0.719121 34.5034 0.719121Z" fill="#C5E8F1"/>
<mask id="mask1_481_3243" style="mask-type:luminance" maskUnits="userSpaceOnUse" x="22" y="1" width="25" height="25">
<path d="M34.5035 1.28589C27.7556 1.28589 22.2861 6.75596 22.2861 13.5032C22.2861 20.2505 27.7556 25.7205 34.5035 25.7205C41.2513 25.7205 46.7202 20.2505 46.7202 13.5032C46.7202 6.75596 41.2507 1.28589 34.5035 1.28589ZM42.7205 21.7208C40.5257 23.9156 37.607 25.1244 34.5035 25.1244C31.4 25.1244 28.4813 23.9156 26.2859 21.7208C24.0911 19.526 22.8822 16.6073 22.8822 13.5032C22.8822 10.3991 24.0911 7.48103 26.2859 5.28563C28.4807 3.09082 31.3994 1.88199 34.5035 1.88199C37.6076 1.88199 40.5257 3.09082 42.7205 5.28563C44.9153 7.48043 46.1241 10.3991 46.1241 13.5032C46.1241 16.6073 44.9153 19.5254 42.7205 21.7208Z" fill="white"/>
</mask>
<g mask="url(#mask1_481_3243)">
<path d="M23.4784 1.88208H22.8823V25.1245H23.4784V1.88208Z" fill="#0B193A"/>
<path d="M24.0746 1.88208H23.4785V25.1245H24.0746V1.88208Z" fill="#0B193B"/>
<path d="M24.6698 1.88208H24.0737V25.1245H24.6698V1.88208Z" fill="#0C1A3C"/>
<path d="M25.266 1.88208H24.6699V25.1245H25.266V1.88208Z" fill="#0C1A3D"/>
<path d="M25.8622 1.88208H25.2661V25.1245H25.8622V1.88208Z" fill="#0D1B3E"/>
<path d="M26.4584 1.88208H25.8623V25.1245H26.4584V1.88208Z" fill="#0E1B3F"/>
<path d="M27.0536 1.88208H26.4575V25.1245H27.0536V1.88208Z" fill="#0E1C40"/>
<path d="M27.6498 1.88208H27.0537V25.1245H27.6498V1.88208Z" fill="#0F1D41"/>
<path d="M28.246 1.88208H27.6499V25.1245H28.246V1.88208Z" fill="#0F1D42"/>
<path d="M28.8422 1.88208H28.2461V25.1245H28.8422V1.88208Z" fill="#101E43"/>
<path d="M29.4374 1.88208H28.8413V25.1245H29.4374V1.88208Z" fill="#111E44"/>
<path d="M30.0336 1.88208H29.4375V25.1245H30.0336V1.88208Z" fill="#111F45"/>
<path d="M30.6298 1.88208H30.0337V25.1245H30.6298V1.88208Z" fill="#121F46"/>
<path d="M31.226 1.88208H30.6299V25.1245H31.226V1.88208Z" fill="#122047"/>
<path d="M31.8212 1.88208H31.2251V25.1245H31.8212V1.88208Z" fill="#132148"/>
<path d="M32.4174 1.88208H31.8213V25.1245H32.4174V1.88208Z" fill="#142149"/>
<path d="M33.0136 1.88208H32.4175V25.1245H33.0136V1.88208Z" fill="#14224A"/>
<path d="M33.6098 1.88208H33.0137V25.1245H33.6098V1.88208Z" fill="#15224B"/>
<path d="M34.205 1.88208H33.6089V25.1245H34.205V1.88208Z" fill="#15234C"/>
<path d="M34.8012 1.88208H34.2051V25.1245H34.8012V1.88208Z" fill="#16244E"/>
<path d="M35.3974 1.88208H34.8013V25.1245H35.3974V1.88208Z" fill="#17244F"/>
<path d="M35.9936 1.88208H35.3975V25.1245H35.9936V1.88208Z" fill="#172550"/>
<path d="M36.5888 1.88208H35.9927V25.1245H36.5888V1.88208Z" fill="#182551"/>
<path d="M37.185 1.88208H36.5889V25.1245H37.185V1.88208Z" fill="#182652"/>
<path d="M37.7812 1.88208H37.1851V25.1245H37.7812V1.88208Z" fill="#192653"/>
<path d="M38.3773 1.88208H37.7812V25.1245H38.3773V1.88208Z" fill="#1A2754"/>
<path d="M38.9726 1.88208H38.3765V25.1245H38.9726V1.88208Z" fill="#1A2855"/>
<path d="M39.5688 1.88208H38.9727V25.1245H39.5688V1.88208Z" fill="#1B2856"/>
<path d="M40.1649 1.88208H39.5688V25.1245H40.1649V1.88208Z" fill="#1B2957"/>
<path d="M40.7611 1.88208H40.165V25.1245H40.7611V1.88208Z" fill="#1C2958"/>
<path d="M41.3563 1.88208H40.7603V25.1245H41.3563V1.88208Z" fill="#1D2A59"/>
<path d="M41.9525 1.88208H41.3564V25.1245H41.9525V1.88208Z" fill="#1D2A5A"/>
<path d="M42.5487 1.88208H41.9526V25.1245H42.5487V1.88208Z" fill="#1E2B5B"/>
<path d="M43.1449 1.88208H42.5488V25.1245H43.1449V1.88208Z" fill="#1E2C5C"/>
<path d="M43.7401 1.88208H43.144V25.1245H43.7401V1.88208Z" fill="#1F2C5D"/>
<path d="M44.3363 1.88208H43.7402V25.1245H44.3363V1.88208Z" fill="#202D5E"/>
<path d="M44.9325 1.88208H44.3364V25.1245H44.9325V1.88208Z" fill="#202D5F"/>
<path d="M45.5287 1.88208H44.9326V25.1245H45.5287V1.88208Z" fill="#212E60"/>
<path d="M46.1239 1.88208H45.5278V25.1245H46.1239V1.88208Z" fill="#212E61"/>
<path d="M22.8822 1.28589H22.2861V25.7205H22.8822V1.28589Z" fill="#0A1839"/>
<path d="M23.4784 1.28589H22.8823V25.7205H23.4784V1.28589Z" fill="#0B193A"/>
<path d="M24.0746 1.28589H23.4785V25.7205H24.0746V1.28589Z" fill="#0B193B"/>
<path d="M24.6698 1.28589H24.0737V25.7205H24.6698V1.28589Z" fill="#0C1A3C"/>
<path d="M25.266 1.28589H24.6699V25.7205H25.266V1.28589Z" fill="#0C1A3D"/>
<path d="M25.8622 1.28589H25.2661V25.7205H25.8622V1.28589Z" fill="#0D1B3E"/>
<path d="M26.4584 1.28589H25.8623V25.7205H26.4584V1.28589Z" fill="#0E1B3F"/>
<path d="M27.0536 1.28589H26.4575V25.7205H27.0536V1.28589Z" fill="#0E1C40"/>
<path d="M27.6498 1.28589H27.0537V25.7205H27.6498V1.28589Z" fill="#0F1D41"/>
<path d="M28.246 1.28589H27.6499V25.7205H28.246V1.28589Z" fill="#0F1D42"/>
<path d="M28.8422 1.28589H28.2461V25.7205H28.8422V1.28589Z" fill="#101E43"/>
<path d="M29.4374 1.28589H28.8413V25.7205H29.4374V1.28589Z" fill="#111E44"/>
<path d="M30.0336 1.28589H29.4375V25.7205H30.0336V1.28589Z" fill="#111F45"/>
<path d="M30.6298 1.28589H30.0337V25.7205H30.6298V1.28589Z" fill="#121F46"/>
<path d="M31.226 1.28589H30.6299V25.7205H31.226V1.28589Z" fill="#122047"/>
<path d="M31.8212 1.28589H31.2251V25.7205H31.8212V1.28589Z" fill="#132148"/>
<path d="M32.4174 1.28589H31.8213V25.7205H32.4174V1.28589Z" fill="#142149"/>
<path d="M33.0136 1.28589H32.4175V25.7205H33.0136V1.28589Z" fill="#14224A"/>
<path d="M33.6098 1.28589H33.0137V25.7205H33.6098V1.28589Z" fill="#15224B"/>
<path d="M34.205 1.28589H33.6089V25.7205H34.205V1.28589Z" fill="#15234C"/>
<path d="M34.8012 1.28589H34.2051V25.7205H34.8012V1.28589Z" fill="#16244E"/>
<path d="M35.3974 1.28589H34.8013V25.7205H35.3974V1.28589Z" fill="#17244F"/>
<path d="M35.9936 1.28589H35.3975V25.7205H35.9936V1.28589Z" fill="#172550"/>
<path d="M36.5888 1.28589H35.9927V25.7205H36.5888V1.28589Z" fill="#182551"/>
<path d="M37.185 1.28589H36.5889V25.7205H37.185V1.28589Z" fill="#182652"/>
<path d="M37.7812 1.28589H37.1851V25.7205H37.7812V1.28589Z" fill="#192653"/>
<path d="M38.3773 1.28589H37.7812V25.7205H38.3773V1.28589Z" fill="#1A2754"/>
<path d="M38.9726 1.28589H38.3765V25.7205H38.9726V1.28589Z" fill="#1A2855"/>
<path d="M39.5688 1.28589H38.9727V25.7205H39.5688V1.28589Z" fill="#1B2856"/>
<path d="M40.1649 1.28589H39.5688V25.7205H40.1649V1.28589Z" fill="#1B2957"/>
<path d="M40.7611 1.28589H40.165V25.7205H40.7611V1.28589Z" fill="#1C2958"/>
<path d="M41.3563 1.28589H40.7603V25.7205H41.3563V1.28589Z" fill="#1D2A59"/>
<path d="M41.9525 1.28589H41.3564V25.7205H41.9525V1.28589Z" fill="#1D2A5A"/>
<path d="M42.5487 1.28589H41.9526V25.7205H42.5487V1.28589Z" fill="#1E2B5B"/>
<path d="M43.1449 1.28589H42.5488V25.7205H43.1449V1.28589Z" fill="#1E2C5C"/>
<path d="M43.7401 1.28589H43.144V25.7205H43.7401V1.28589Z" fill="#1F2C5D"/>
<path d="M44.3363 1.28589H43.7402V25.7205H44.3363V1.28589Z" fill="#202D5E"/>
<path d="M44.9325 1.28589H44.3364V25.7205H44.9325V1.28589Z" fill="#202D5F"/>
<path d="M45.5287 1.28589H44.9326V25.7205H45.5287V1.28589Z" fill="#212E60"/>
<path d="M46.1239 1.28589H45.5278V25.7205H46.1239V1.28589Z" fill="#212E61"/>
<path d="M46.7201 1.28589H46.124V25.7205H46.7201V1.28589Z" fill="#222F62"/>
</g>
<path d="M34.5036 25.7486C27.7516 25.7486 22.2583 20.2553 22.2583 13.5033C22.2583 6.75131 27.7516 1.25806 34.5036 1.25806C41.2556 1.25806 46.7482 6.75131 46.7482 13.5033C46.7482 20.2553 41.2556 25.7486 34.5036 25.7486ZM34.5036 1.31392C27.7825 1.31392 22.3142 6.78221 22.3142 13.5033C22.3142 20.2244 27.7825 25.6927 34.5036 25.6927C41.2247 25.6927 46.6924 20.2244 46.6924 13.5033C46.6924 6.78221 41.2241 1.31392 34.5036 1.31392ZM34.5036 25.1525C31.3917 25.1525 28.4665 23.9407 26.2664 21.7405C24.0662 19.5404 22.8544 16.6146 22.8544 13.5033C22.8544 10.3921 24.0662 7.46627 26.2664 5.26612C28.4659 3.06596 31.3911 1.85415 34.5036 1.85415C37.616 1.85415 40.5406 3.06596 42.7402 5.26612C44.9403 7.46627 46.1521 10.3915 46.1521 13.5033C46.1521 16.6152 44.9403 19.5404 42.7402 21.7405C40.5406 23.9407 37.6154 25.1525 34.5036 25.1525ZM34.5036 1.91002C31.4066 1.91002 28.495 3.11588 26.3056 5.30534C24.1161 7.4948 22.9103 10.4063 22.9103 13.5033C22.9103 16.6003 24.1161 19.5112 26.3056 21.7013C28.495 23.8908 31.4066 25.0966 34.5036 25.0966C37.6005 25.0966 40.5115 23.8908 42.7009 21.7013C44.8904 19.5118 46.0963 16.6003 46.0963 13.5033C46.0963 10.4063 44.8904 7.49539 42.7009 5.30534C40.5121 3.11588 37.6005 1.91002 34.5036 1.91002Z" fill="#D6EEF6"/>
</g>
</g>
<defs>
<linearGradient id="paint0_linear_481_3243" x1="5.31026" y1="44.0637" x2="43.4516" y2="3.11747" gradientUnits="userSpaceOnUse">
<stop stop-color="#667ABC"/>
<stop offset="0.206" stop-color="#5E82C2"/>
<stop offset="0.528" stop-color="#4998D3"/>
<stop offset="0.924" stop-color="#27BCEE"/>
<stop offset="1" stop-color="#20C4F4"/>
</linearGradient>
<linearGradient id="paint1_linear_481_3243" x1="21.556" y1="13.5475" x2="47.7469" y2="13.5475" gradientUnits="userSpaceOnUse">
<stop stop-color="#B3B8C9"/>
<stop offset="0.49" stop-color="#222F62"/>
</linearGradient>
<linearGradient id="paint2_linear_481_3243" x1="34.6521" y1="1.3479" x2="34.6521" y2="25.4842" gradientUnits="userSpaceOnUse">
<stop offset="0.1" stop-color="#EBD8BF"/>
<stop offset="0.8" stop-color="#F49394"/>
</linearGradient>
<linearGradient id="paint3_linear_481_3243" x1="34.6349" y1="19.1233" x2="34.6349" y2="25.6429" gradientUnits="userSpaceOnUse">
<stop offset="0.1" stop-color="#EBD8BF"/>
<stop offset="0.8" stop-color="#F49394"/>
</linearGradient>
<linearGradient id="paint4_linear_481_3243" x1="43.5109" y1="11.1061" x2="44.35" y2="11.1061" gradientUnits="userSpaceOnUse">
<stop offset="0.1" stop-color="#804F69"/>
<stop offset="0.8" stop-color="#F49394"/>
</linearGradient>
<linearGradient id="paint5_linear_481_3243" x1="40.7407" y1="9.04076" x2="43.3093" y2="9.04076" gradientUnits="userSpaceOnUse">
<stop offset="0.1" stop-color="#804F69"/>
<stop offset="0.8" stop-color="#F49394"/>
</linearGradient>
<linearGradient id="paint6_linear_481_3243" x1="40.5345" y1="10.1231" x2="42.3305" y2="10.1231" gradientUnits="userSpaceOnUse">
<stop offset="0.1" stop-color="#804F69"/>
<stop offset="0.8" stop-color="#F49394"/>
</linearGradient>
<linearGradient id="paint7_linear_481_3243" x1="26.518" y1="10.135" x2="28.317" y2="10.135" gradientUnits="userSpaceOnUse">
<stop offset="0.1" stop-color="#804F69"/>
<stop offset="0.8" stop-color="#F49394"/>
</linearGradient>
<linearGradient id="paint8_linear_481_3243" x1="25.5616" y1="8.92318" x2="28.1112" y2="8.92318" gradientUnits="userSpaceOnUse">
<stop offset="0.1" stop-color="#804F69"/>
<stop offset="0.8" stop-color="#F49394"/>
</linearGradient>
<linearGradient id="paint9_linear_481_3243" x1="24.4902" y1="11.2683" x2="25.3401" y2="11.2683" gradientUnits="userSpaceOnUse">
<stop offset="0.1" stop-color="#804F69"/>
<stop offset="0.8" stop-color="#F49394"/>
</linearGradient>
<linearGradient id="paint10_linear_481_3243" x1="27.2643" y1="5.99735" x2="41.5867" y2="5.99735" gradientUnits="userSpaceOnUse">
<stop offset="0.1" stop-color="#804F69"/>
<stop offset="0.8" stop-color="#F49394"/>
</linearGradient>
<linearGradient id="paint11_linear_481_3243" x1="29.6285" y1="3.85423" x2="33.2764" y2="3.85423" gradientUnits="userSpaceOnUse">
<stop offset="0.1" stop-color="#804F69"/>
<stop offset="0.8" stop-color="#F49394"/>
</linearGradient>
<linearGradient id="paint12_linear_481_3243" x1="35.5761" y1="3.8554" x2="39.2217" y2="3.8554" gradientUnits="userSpaceOnUse">
<stop offset="0.1" stop-color="#804F69"/>
<stop offset="0.8" stop-color="#F49394"/>
</linearGradient>
<linearGradient id="paint13_linear_481_3243" x1="35.7366" y1="5.94973" x2="39.1242" y2="5.94973" gradientUnits="userSpaceOnUse">
<stop offset="0.1" stop-color="#804F69"/>
<stop offset="0.8" stop-color="#F49394"/>
</linearGradient>
<linearGradient id="paint14_linear_481_3243" x1="29.7482" y1="5.94871" x2="33.1138" y2="5.94871" gradientUnits="userSpaceOnUse">
<stop offset="0.1" stop-color="#804F69"/>
<stop offset="0.8" stop-color="#F49394"/>
</linearGradient>
<radialGradient id="paint15_radial_481_3243" cx="0" cy="0" r="1" gradientUnits="userSpaceOnUse" gradientTransform="translate(28.3169 7.30181) rotate(-2.8) scale(6.73834 5.39067)">
<stop offset="0.07" stop-color="#FDF6F9"/>
<stop offset="1" stop-color="#A8978D" stop-opacity="0"/>
</radialGradient>
<linearGradient id="paint16_linear_481_3243" x1="43.5172" y1="15.391" x2="44.3564" y2="15.391" gradientUnits="userSpaceOnUse">
<stop offset="0.1" stop-color="#804F69"/>
<stop offset="0.8" stop-color="#F49394"/>
</linearGradient>
<linearGradient id="paint17_linear_481_3243" x1="40.7461" y1="17.4562" x2="43.3147" y2="17.4562" gradientUnits="userSpaceOnUse">
<stop offset="0.1" stop-color="#804F69"/>
<stop offset="0.8" stop-color="#F49394"/>
</linearGradient>
<linearGradient id="paint18_linear_481_3243" x1="40.5399" y1="16.3732" x2="42.3359" y2="16.3732" gradientUnits="userSpaceOnUse">
<stop offset="0.1" stop-color="#804F69"/>
<stop offset="0.8" stop-color="#F49394"/>
</linearGradient>
<linearGradient id="paint19_linear_481_3243" x1="26.5244" y1="16.3622" x2="28.3228" y2="16.3622" gradientUnits="userSpaceOnUse">
<stop offset="0.1" stop-color="#804F69"/>
<stop offset="0.8" stop-color="#F49394"/>
</linearGradient>
<linearGradient id="paint20_linear_481_3243" x1="25.5674" y1="17.5738" x2="28.117" y2="17.5738" gradientUnits="userSpaceOnUse">
<stop offset="0.1" stop-color="#804F69"/>
<stop offset="0.8" stop-color="#F49394"/>
</linearGradient>
<linearGradient id="paint21_linear_481_3243" x1="24.4966" y1="15.2287" x2="25.3459" y2="15.2287" gradientUnits="userSpaceOnUse">
<stop offset="0.1" stop-color="#804F69"/>
<stop offset="0.8" stop-color="#F49394"/>
</linearGradient>
<linearGradient id="paint22_linear_481_3243" x1="27.2707" y1="20.4996" x2="41.5925" y2="20.4996" gradientUnits="userSpaceOnUse">
<stop offset="0.1" stop-color="#804F69"/>
<stop offset="0.8" stop-color="#F49394"/>
</linearGradient>
<linearGradient id="paint23_linear_481_3243" x1="29.635" y1="22.6427" x2="33.2823" y2="22.6427" gradientUnits="userSpaceOnUse">
<stop offset="0.1" stop-color="#804F69"/>
<stop offset="0.8" stop-color="#F49394"/>
</linearGradient>
<linearGradient id="paint24_linear_481_3243" x1="35.582" y1="22.6416" x2="39.2281" y2="22.6416" gradientUnits="userSpaceOnUse">
<stop offset="0.1" stop-color="#804F69"/>
<stop offset="0.8" stop-color="#F49394"/>
</linearGradient>
<linearGradient id="paint25_linear_481_3243" x1="35.7423" y1="20.5466" x2="39.1305" y2="20.5466" gradientUnits="userSpaceOnUse">
<stop offset="0.1" stop-color="#804F69"/>
<stop offset="0.8" stop-color="#F49394"/>
</linearGradient>
<linearGradient id="paint26_linear_481_3243" x1="29.754" y1="20.5483" x2="33.1202" y2="20.5483" gradientUnits="userSpaceOnUse">
<stop offset="0.1" stop-color="#804F69"/>
<stop offset="0.8" stop-color="#F49394"/>
</linearGradient>
<clipPath id="clip0_481_3243">
<rect width="48" height="48" fill="white"/>
</clipPath>
<clipPath id="clip1_481_3243">
<rect width="26" height="26" fill="white" transform="translate(0 22)"/>
</clipPath>
<clipPath id="clip2_481_3243">
<rect width="27" height="27" fill="white" transform="translate(21)"/>
</clipPath>
</defs>
</svg>
